<svg xmlns="http://www.w3.org/2000/svg" xmlns:xlink="http://www.w3.org/1999/xlink" width="2380" zoomAndPan="magnify" viewBox="0 0 1784.88 1784.99993" height="2380" preserveAspectRatio="xMidYMid meet" version="1.0"><defs><clipPath id="35b16c6f1d"><path d="M 388.707031 388.765625 L 1395.890625 388.765625 L 1395.890625 1395.949219 L 388.707031 1395.949219 Z M 388.707031 388.765625 " clip-rule="nonzero"/></clipPath><clipPath id="9678d90a6d"><path d="M 892.375 388.765625 C 614.207031 388.765625 388.707031 614.265625 388.707031 892.433594 C 388.707031 1170.601562 614.207031 1396.101562 892.375 1396.101562 C 1170.542969 1396.101562 1396.042969 1170.601562 1396.042969 892.433594 C 1396.042969 614.265625 1170.542969 388.765625 892.375 388.765625 Z M 892.375 388.765625 " clip-rule="nonzero"/></clipPath><linearGradient x1="0.00000179172" gradientTransform="matrix(20.98755, 0, 0, 20.98755, -0.0000125371, -0.0000626704)" y1="0.00000179172" x2="63.990321" gradientUnits="userSpaceOnUse" y2="63.990321" id="81e39ddb10"><stop stop-opacity="1" stop-color="rgb(89.019775%, 57.649231%, 59.21936%)" offset="0"/><stop stop-opacity="1" stop-color="rgb(88.841248%, 57.440186%, 59.371948%)" offset="0.00390625"/><stop stop-opacity="1" stop-color="rgb(88.664246%, 57.232666%, 59.526062%)" offset="0.0078125"/><stop stop-opacity="1" stop-color="rgb(88.485718%, 57.023621%, 59.67865%)" offset="0.0117188"/><stop stop-opacity="1" stop-color="rgb(88.308716%, 56.816101%, 59.831238%)" offset="0.015625"/><stop stop-opacity="1" stop-color="rgb(88.130188%, 56.607056%, 59.983826%)" offset="0.0195312"/><stop stop-opacity="1" stop-color="rgb(87.953186%, 56.399536%, 60.137939%)" offset="0.0234375"/><stop stop-opacity="1" stop-color="rgb(87.774658%, 56.190491%, 60.290527%)" offset="0.0273438"/><stop stop-opacity="1" stop-color="rgb(87.597656%, 55.981445%, 60.444641%)" offset="0.03125"/><stop stop-opacity="1" stop-color="rgb(87.420654%, 55.7724%, 60.597229%)" offset="0.0351562"/><stop stop-opacity="1" stop-color="rgb(87.243652%, 55.56488%, 60.749817%)" offset="0.0390625"/><stop stop-opacity="1" stop-color="rgb(87.065125%, 55.355835%, 60.902405%)" offset="0.0429688"/><stop stop-opacity="1" stop-color="rgb(86.888123%, 55.148315%, 61.056519%)" offset="0.046875"/><stop stop-opacity="1" stop-color="rgb(86.709595%, 54.93927%, 61.209106%)" offset="0.0507812"/><stop stop-opacity="1" stop-color="rgb(86.532593%, 54.73175%, 61.36322%)" offset="0.0546875"/><stop stop-opacity="1" stop-color="rgb(86.354065%, 54.522705%, 61.515808%)" offset="0.0585938"/><stop stop-opacity="1" stop-color="rgb(86.177063%, 54.315186%, 61.668396%)" offset="0.0625"/><stop stop-opacity="1" stop-color="rgb(85.998535%, 54.10614%, 61.820984%)" offset="0.0664062"/><stop stop-opacity="1" stop-color="rgb(85.821533%, 53.898621%, 61.975098%)" offset="0.0703125"/><stop stop-opacity="1" stop-color="rgb(85.643005%, 53.689575%, 62.127686%)" offset="0.0742188"/><stop stop-opacity="1" stop-color="rgb(85.466003%, 53.48053%, 62.281799%)" offset="0.078125"/><stop stop-opacity="1" stop-color="rgb(85.289001%, 53.271484%, 62.434387%)" offset="0.0820313"/><stop stop-opacity="1" stop-color="rgb(85.112%, 53.063965%, 62.586975%)" offset="0.0859375"/><stop stop-opacity="1" stop-color="rgb(84.933472%, 52.854919%, 62.739563%)" offset="0.0898438"/><stop stop-opacity="1" stop-color="rgb(84.75647%, 52.6474%, 62.893677%)" offset="0.09375"/><stop stop-opacity="1" stop-color="rgb(84.577942%, 52.438354%, 63.046265%)" offset="0.0976562"/><stop stop-opacity="1" stop-color="rgb(84.40094%, 52.230835%, 63.200378%)" offset="0.101562"/><stop stop-opacity="1" stop-color="rgb(84.222412%, 52.02179%, 63.352966%)" offset="0.105469"/><stop stop-opacity="1" stop-color="rgb(84.04541%, 51.81427%, 63.505554%)" offset="0.109375"/><stop stop-opacity="1" stop-color="rgb(83.866882%, 51.605225%, 63.658142%)" offset="0.113281"/><stop stop-opacity="1" stop-color="rgb(83.68988%, 51.397705%, 63.812256%)" offset="0.117188"/><stop stop-opacity="1" stop-color="rgb(83.511353%, 51.18866%, 63.964844%)" offset="0.121094"/><stop stop-opacity="1" stop-color="rgb(83.334351%, 50.979614%, 64.118958%)" offset="0.125"/><stop stop-opacity="1" stop-color="rgb(83.157349%, 50.770569%, 64.271545%)" offset="0.128906"/><stop stop-opacity="1" stop-color="rgb(82.980347%, 50.563049%, 64.424133%)" offset="0.132812"/><stop stop-opacity="1" stop-color="rgb(82.801819%, 50.354004%, 64.576721%)" offset="0.136719"/><stop stop-opacity="1" stop-color="rgb(82.624817%, 50.146484%, 64.730835%)" offset="0.140625"/><stop stop-opacity="1" stop-color="rgb(82.446289%, 49.937439%, 64.883423%)" offset="0.144531"/><stop stop-opacity="1" stop-color="rgb(82.269287%, 49.729919%, 65.037537%)" offset="0.148438"/><stop stop-opacity="1" stop-color="rgb(82.090759%, 49.520874%, 65.190125%)" offset="0.152344"/><stop stop-opacity="1" stop-color="rgb(81.913757%, 49.313354%, 65.342712%)" offset="0.15625"/><stop stop-opacity="1" stop-color="rgb(81.735229%, 49.104309%, 65.4953%)" offset="0.160156"/><stop stop-opacity="1" stop-color="rgb(81.558228%, 48.89679%, 65.649414%)" offset="0.164063"/><stop stop-opacity="1" stop-color="rgb(81.381226%, 48.687744%, 65.802002%)" offset="0.167969"/><stop stop-opacity="1" stop-color="rgb(81.204224%, 48.478699%, 65.956116%)" offset="0.171875"/><stop stop-opacity="1" stop-color="rgb(81.025696%, 48.269653%, 66.108704%)" offset="0.175781"/><stop stop-opacity="1" stop-color="rgb(80.848694%, 48.062134%, 66.261292%)" offset="0.179688"/><stop stop-opacity="1" stop-color="rgb(80.670166%, 47.853088%, 66.413879%)" offset="0.183594"/><stop stop-opacity="1" stop-color="rgb(80.493164%, 47.645569%, 66.567993%)" offset="0.1875"/><stop stop-opacity="1" stop-color="rgb(80.314636%, 47.436523%, 66.720581%)" offset="0.191406"/><stop stop-opacity="1" stop-color="rgb(80.137634%, 47.229004%, 66.874695%)" offset="0.195312"/><stop stop-opacity="1" stop-color="rgb(79.959106%, 47.019958%, 67.027283%)" offset="0.199219"/><stop stop-opacity="1" stop-color="rgb(79.782104%, 46.812439%, 67.179871%)" offset="0.203125"/><stop stop-opacity="1" stop-color="rgb(79.603577%, 46.603394%, 67.332458%)" offset="0.207031"/><stop stop-opacity="1" stop-color="rgb(79.426575%, 46.395874%, 67.486572%)" offset="0.210938"/><stop stop-opacity="1" stop-color="rgb(79.249573%, 46.186829%, 67.63916%)" offset="0.214844"/><stop stop-opacity="1" stop-color="rgb(79.072571%, 45.977783%, 67.793274%)" offset="0.21875"/><stop stop-opacity="1" stop-color="rgb(78.894043%, 45.768738%, 67.945862%)" offset="0.222656"/><stop stop-opacity="1" stop-color="rgb(78.717041%, 45.561218%, 68.09845%)" offset="0.226562"/><stop stop-opacity="1" stop-color="rgb(78.538513%, 45.352173%, 68.251038%)" offset="0.230469"/><stop stop-opacity="1" stop-color="rgb(78.361511%, 45.144653%, 68.405151%)" offset="0.234375"/><stop stop-opacity="1" stop-color="rgb(78.182983%, 44.935608%, 68.557739%)" offset="0.238281"/><stop stop-opacity="1" stop-color="rgb(78.005981%, 44.728088%, 68.711853%)" offset="0.242188"/><stop stop-opacity="1" stop-color="rgb(77.827454%, 44.519043%, 68.864441%)" offset="0.246094"/><stop stop-opacity="1" stop-color="rgb(77.650452%, 44.311523%, 69.017029%)" offset="0.25"/><stop stop-opacity="1" stop-color="rgb(77.253723%, 44.206238%, 69.145203%)" offset="0.253906"/><stop stop-opacity="1" stop-color="rgb(76.856995%, 44.102478%, 69.274902%)" offset="0.257812"/><stop stop-opacity="1" stop-color="rgb(76.45874%, 43.997192%, 69.403076%)" offset="0.261719"/><stop stop-opacity="1" stop-color="rgb(76.060486%, 43.893433%, 69.532776%)" offset="0.265625"/><stop stop-opacity="1" stop-color="rgb(75.662231%, 43.789673%, 69.66095%)" offset="0.269531"/><stop stop-opacity="1" stop-color="rgb(75.263977%, 43.685913%, 69.789124%)" offset="0.273437"/><stop stop-opacity="1" stop-color="rgb(74.865723%, 43.582153%, 69.917297%)" offset="0.277344"/><stop stop-opacity="1" stop-color="rgb(74.467468%, 43.478394%, 70.046997%)" offset="0.28125"/><stop stop-opacity="1" stop-color="rgb(74.069214%, 43.373108%, 70.175171%)" offset="0.285156"/><stop stop-opacity="1" stop-color="rgb(73.670959%, 43.269348%, 70.303345%)" offset="0.289063"/><stop stop-opacity="1" stop-color="rgb(73.272705%, 43.165588%, 70.431519%)" offset="0.292969"/><stop stop-opacity="1" stop-color="rgb(72.874451%, 43.061829%, 70.561218%)" offset="0.296875"/><stop stop-opacity="1" stop-color="rgb(72.476196%, 42.958069%, 70.689392%)" offset="0.300781"/><stop stop-opacity="1" stop-color="rgb(72.077942%, 42.854309%, 70.817566%)" offset="0.304688"/><stop stop-opacity="1" stop-color="rgb(71.679688%, 42.749023%, 70.94574%)" offset="0.308594"/><stop stop-opacity="1" stop-color="rgb(71.281433%, 42.645264%, 71.075439%)" offset="0.3125"/><stop stop-opacity="1" stop-color="rgb(70.883179%, 42.541504%, 71.203613%)" offset="0.316406"/><stop stop-opacity="1" stop-color="rgb(70.484924%, 42.437744%, 71.331787%)" offset="0.320312"/><stop stop-opacity="1" stop-color="rgb(70.08667%, 42.332458%, 71.459961%)" offset="0.324219"/><stop stop-opacity="1" stop-color="rgb(69.688416%, 42.228699%, 71.589661%)" offset="0.328125"/><stop stop-opacity="1" stop-color="rgb(69.290161%, 42.124939%, 71.717834%)" offset="0.332031"/><stop stop-opacity="1" stop-color="rgb(68.891907%, 42.021179%, 71.846008%)" offset="0.335938"/><stop stop-opacity="1" stop-color="rgb(68.493652%, 41.917419%, 71.974182%)" offset="0.339844"/><stop stop-opacity="1" stop-color="rgb(68.095398%, 41.81366%, 72.103882%)" offset="0.34375"/><stop stop-opacity="1" stop-color="rgb(67.697144%, 41.708374%, 72.232056%)" offset="0.347656"/><stop stop-opacity="1" stop-color="rgb(67.298889%, 41.604614%, 72.360229%)" offset="0.351562"/><stop stop-opacity="1" stop-color="rgb(66.900635%, 41.500854%, 72.488403%)" offset="0.355469"/><stop stop-opacity="1" stop-color="rgb(66.50238%, 41.397095%, 72.618103%)" offset="0.359375"/><stop stop-opacity="1" stop-color="rgb(66.104126%, 41.293335%, 72.746277%)" offset="0.363281"/><stop stop-opacity="1" stop-color="rgb(65.705872%, 41.189575%, 72.875977%)" offset="0.367187"/><stop stop-opacity="1" stop-color="rgb(65.307617%, 41.08429%, 73.00415%)" offset="0.371094"/><stop stop-opacity="1" stop-color="rgb(64.909363%, 40.98053%, 73.132324%)" offset="0.375"/><stop stop-opacity="1" stop-color="rgb(64.511108%, 40.87677%, 73.260498%)" offset="0.378906"/><stop stop-opacity="1" stop-color="rgb(64.112854%, 40.77301%, 73.390198%)" offset="0.382812"/><stop stop-opacity="1" stop-color="rgb(63.7146%, 40.667725%, 73.518372%)" offset="0.386719"/><stop stop-opacity="1" stop-color="rgb(63.317871%, 40.563965%, 73.646545%)" offset="0.390625"/><stop stop-opacity="1" stop-color="rgb(62.919617%, 40.460205%, 73.774719%)" offset="0.394531"/><stop stop-opacity="1" stop-color="rgb(62.521362%, 40.356445%, 73.904419%)" offset="0.398437"/><stop stop-opacity="1" stop-color="rgb(62.123108%, 40.252686%, 74.032593%)" offset="0.402344"/><stop stop-opacity="1" stop-color="rgb(61.724854%, 40.148926%, 74.160767%)" offset="0.40625"/><stop stop-opacity="1" stop-color="rgb(61.326599%, 40.04364%, 74.28894%)" offset="0.410156"/><stop stop-opacity="1" stop-color="rgb(60.928345%, 39.93988%, 74.41864%)" offset="0.414062"/><stop stop-opacity="1" stop-color="rgb(60.53009%, 39.836121%, 74.546814%)" offset="0.417969"/><stop stop-opacity="1" stop-color="rgb(60.131836%, 39.732361%, 74.674988%)" offset="0.421875"/><stop stop-opacity="1" stop-color="rgb(59.733582%, 39.628601%, 74.803162%)" offset="0.425781"/><stop stop-opacity="1" stop-color="rgb(59.335327%, 39.524841%, 74.932861%)" offset="0.429688"/><stop stop-opacity="1" stop-color="rgb(58.937073%, 39.419556%, 75.061035%)" offset="0.433594"/><stop stop-opacity="1" stop-color="rgb(58.538818%, 39.315796%, 75.189209%)" offset="0.4375"/><stop stop-opacity="1" stop-color="rgb(58.140564%, 39.212036%, 75.317383%)" offset="0.441406"/><stop stop-opacity="1" stop-color="rgb(57.74231%, 39.108276%, 75.447083%)" offset="0.445313"/><stop stop-opacity="1" stop-color="rgb(57.344055%, 39.002991%, 75.575256%)" offset="0.449219"/><stop stop-opacity="1" stop-color="rgb(56.945801%, 38.899231%, 75.70343%)" offset="0.453125"/><stop stop-opacity="1" stop-color="rgb(56.547546%, 38.795471%, 75.831604%)" offset="0.457031"/><stop stop-opacity="1" stop-color="rgb(56.149292%, 38.691711%, 75.961304%)" offset="0.460938"/><stop stop-opacity="1" stop-color="rgb(55.751038%, 38.587952%, 76.089478%)" offset="0.464844"/><stop stop-opacity="1" stop-color="rgb(55.352783%, 38.484192%, 76.217651%)" offset="0.46875"/><stop stop-opacity="1" stop-color="rgb(54.954529%, 38.378906%, 76.345825%)" offset="0.472656"/><stop stop-opacity="1" stop-color="rgb(54.556274%, 38.275146%, 76.475525%)" offset="0.476563"/><stop stop-opacity="1" stop-color="rgb(54.15802%, 38.171387%, 76.603699%)" offset="0.480469"/><stop stop-opacity="1" stop-color="rgb(53.759766%, 38.067627%, 76.731873%)" offset="0.484375"/><stop stop-opacity="1" stop-color="rgb(53.361511%, 37.963867%, 76.860046%)" offset="0.488281"/><stop stop-opacity="1" stop-color="rgb(52.963257%, 37.860107%, 76.989746%)" offset="0.492188"/><stop stop-opacity="1" stop-color="rgb(52.565002%, 37.754822%, 77.11792%)" offset="0.496094"/><stop stop-opacity="1" stop-color="rgb(52.166748%, 37.651062%, 77.246094%)" offset="0.5"/><stop stop-opacity="1" stop-color="rgb(51.664734%, 37.734985%, 77.308655%)" offset="0.503906"/><stop stop-opacity="1" stop-color="rgb(51.164246%, 37.818909%, 77.371216%)" offset="0.507812"/><stop stop-opacity="1" stop-color="rgb(50.660706%, 37.904358%, 77.432251%)" offset="0.511719"/><stop stop-opacity="1" stop-color="rgb(50.158691%, 37.991333%, 77.493286%)" offset="0.515625"/><stop stop-opacity="1" stop-color="rgb(49.656677%, 38.076782%, 77.554321%)" offset="0.519531"/><stop stop-opacity="1" stop-color="rgb(49.154663%, 38.162231%, 77.616882%)" offset="0.523438"/><stop stop-opacity="1" stop-color="rgb(48.651123%, 38.247681%, 77.677917%)" offset="0.527344"/><stop stop-opacity="1" stop-color="rgb(48.149109%, 38.33313%, 77.738953%)" offset="0.53125"/><stop stop-opacity="1" stop-color="rgb(47.647095%, 38.418579%, 77.799988%)" offset="0.535156"/><stop stop-opacity="1" stop-color="rgb(47.145081%, 38.505554%, 77.862549%)" offset="0.539062"/><stop stop-opacity="1" stop-color="rgb(46.641541%, 38.591003%, 77.923584%)" offset="0.542969"/><stop stop-opacity="1" stop-color="rgb(46.139526%, 38.676453%, 77.984619%)" offset="0.546875"/><stop stop-opacity="1" stop-color="rgb(45.637512%, 38.761902%, 78.045654%)" offset="0.550781"/><stop stop-opacity="1" stop-color="rgb(45.135498%, 38.848877%, 78.108215%)" offset="0.554688"/><stop stop-opacity="1" stop-color="rgb(44.631958%, 38.934326%, 78.16925%)" offset="0.558594"/><stop stop-opacity="1" stop-color="rgb(44.129944%, 39.019775%, 78.230286%)" offset="0.5625"/><stop stop-opacity="1" stop-color="rgb(43.62793%, 39.105225%, 78.291321%)" offset="0.566406"/><stop stop-opacity="1" stop-color="rgb(43.125916%, 39.190674%, 78.353882%)" offset="0.570312"/><stop stop-opacity="1" stop-color="rgb(42.622375%, 39.276123%, 78.414917%)" offset="0.574219"/><stop stop-opacity="1" stop-color="rgb(42.120361%, 39.363098%, 78.475952%)" offset="0.578125"/><stop stop-opacity="1" stop-color="rgb(41.618347%, 39.448547%, 78.536987%)" offset="0.582031"/><stop stop-opacity="1" stop-color="rgb(41.116333%, 39.533997%, 78.598022%)" offset="0.585938"/><stop stop-opacity="1" stop-color="rgb(40.612793%, 39.619446%, 78.659058%)" offset="0.589844"/><stop stop-opacity="1" stop-color="rgb(40.110779%, 39.706421%, 78.721619%)" offset="0.59375"/><stop stop-opacity="1" stop-color="rgb(39.607239%, 39.79187%, 78.782654%)" offset="0.597656"/><stop stop-opacity="1" stop-color="rgb(39.105225%, 39.877319%, 78.843689%)" offset="0.601562"/><stop stop-opacity="1" stop-color="rgb(38.60321%, 39.962769%, 78.904724%)" offset="0.605469"/><stop stop-opacity="1" stop-color="rgb(38.101196%, 40.049744%, 78.967285%)" offset="0.609375"/><stop stop-opacity="1" stop-color="rgb(37.597656%, 40.135193%, 79.02832%)" offset="0.613281"/><stop stop-opacity="1" stop-color="rgb(37.095642%, 40.220642%, 79.089355%)" offset="0.617188"/><stop stop-opacity="1" stop-color="rgb(36.593628%, 40.306091%, 79.150391%)" offset="0.621094"/><stop stop-opacity="1" stop-color="rgb(36.091614%, 40.391541%, 79.212952%)" offset="0.625"/><stop stop-opacity="1" stop-color="rgb(35.588074%, 40.47699%, 79.273987%)" offset="0.628906"/><stop stop-opacity="1" stop-color="rgb(35.08606%, 40.563965%, 79.335022%)" offset="0.632813"/><stop stop-opacity="1" stop-color="rgb(34.584045%, 40.649414%, 79.396057%)" offset="0.636719"/><stop stop-opacity="1" stop-color="rgb(34.082031%, 40.734863%, 79.458618%)" offset="0.640625"/><stop stop-opacity="1" stop-color="rgb(33.578491%, 40.820312%, 79.519653%)" offset="0.644531"/><stop stop-opacity="1" stop-color="rgb(33.076477%, 40.907288%, 79.580688%)" offset="0.648438"/><stop stop-opacity="1" stop-color="rgb(32.574463%, 40.992737%, 79.641724%)" offset="0.652344"/><stop stop-opacity="1" stop-color="rgb(32.072449%, 41.078186%, 79.704285%)" offset="0.65625"/><stop stop-opacity="1" stop-color="rgb(31.568909%, 41.163635%, 79.76532%)" offset="0.660156"/><stop stop-opacity="1" stop-color="rgb(31.066895%, 41.249084%, 79.826355%)" offset="0.664062"/><stop stop-opacity="1" stop-color="rgb(30.56488%, 41.334534%, 79.88739%)" offset="0.667969"/><stop stop-opacity="1" stop-color="rgb(30.062866%, 41.421509%, 79.949951%)" offset="0.671875"/><stop stop-opacity="1" stop-color="rgb(29.559326%, 41.506958%, 80.010986%)" offset="0.675781"/><stop stop-opacity="1" stop-color="rgb(29.057312%, 41.592407%, 80.072021%)" offset="0.679688"/><stop stop-opacity="1" stop-color="rgb(28.555298%, 41.677856%, 80.133057%)" offset="0.683594"/><stop stop-opacity="1" stop-color="rgb(28.053284%, 41.764832%, 80.195618%)" offset="0.6875"/><stop stop-opacity="1" stop-color="rgb(27.549744%, 41.850281%, 80.256653%)" offset="0.691406"/><stop stop-opacity="1" stop-color="rgb(27.047729%, 41.93573%, 80.317688%)" offset="0.695312"/><stop stop-opacity="1" stop-color="rgb(26.544189%, 42.021179%, 80.378723%)" offset="0.699219"/><stop stop-opacity="1" stop-color="rgb(26.042175%, 42.108154%, 80.441284%)" offset="0.703125"/><stop stop-opacity="1" stop-color="rgb(25.540161%, 42.193604%, 80.502319%)" offset="0.707031"/><stop stop-opacity="1" stop-color="rgb(25.038147%, 42.279053%, 80.563354%)" offset="0.710938"/><stop stop-opacity="1" stop-color="rgb(24.534607%, 42.364502%, 80.62439%)" offset="0.714844"/><stop stop-opacity="1" stop-color="rgb(24.032593%, 42.449951%, 80.686951%)" offset="0.71875"/><stop stop-opacity="1" stop-color="rgb(23.530579%, 42.5354%, 80.747986%)" offset="0.722656"/><stop stop-opacity="1" stop-color="rgb(23.028564%, 42.622375%, 80.809021%)" offset="0.726562"/><stop stop-opacity="1" stop-color="rgb(22.525024%, 42.707825%, 80.870056%)" offset="0.730469"/><stop stop-opacity="1" stop-color="rgb(22.02301%, 42.793274%, 80.932617%)" offset="0.734375"/><stop stop-opacity="1" stop-color="rgb(21.520996%, 42.878723%, 80.993652%)" offset="0.738281"/><stop stop-opacity="1" stop-color="rgb(21.018982%, 42.965698%, 81.054688%)" offset="0.742188"/><stop stop-opacity="1" stop-color="rgb(20.515442%, 43.051147%, 81.115723%)" offset="0.746094"/><stop stop-opacity="1" stop-color="rgb(20.013428%, 43.136597%, 81.176758%)" offset="0.75"/><stop stop-opacity="1" stop-color="rgb(19.703674%, 43.058777%, 81.056213%)" offset="0.753906"/><stop stop-opacity="1" stop-color="rgb(19.395447%, 42.982483%, 80.937195%)" offset="0.757813"/><stop stop-opacity="1" stop-color="rgb(19.088745%, 42.901611%, 80.813599%)" offset="0.761719"/><stop stop-opacity="1" stop-color="rgb(18.782043%, 42.822266%, 80.691528%)" offset="0.765625"/><stop stop-opacity="1" stop-color="rgb(18.475342%, 42.74292%, 80.569458%)" offset="0.769531"/><stop stop-opacity="1" stop-color="rgb(18.170166%, 42.663574%, 80.447388%)" offset="0.773438"/><stop stop-opacity="1" stop-color="rgb(17.863464%, 42.584229%, 80.323792%)" offset="0.777344"/><stop stop-opacity="1" stop-color="rgb(17.556763%, 42.504883%, 80.201721%)" offset="0.78125"/><stop stop-opacity="1" stop-color="rgb(17.250061%, 42.424011%, 80.078125%)" offset="0.785156"/><stop stop-opacity="1" stop-color="rgb(16.944885%, 42.344666%, 79.956055%)" offset="0.789063"/><stop stop-opacity="1" stop-color="rgb(16.638184%, 42.26532%, 79.832458%)" offset="0.792969"/><stop stop-opacity="1" stop-color="rgb(16.331482%, 42.185974%, 79.710388%)" offset="0.796875"/><stop stop-opacity="1" stop-color="rgb(16.02478%, 42.105103%, 79.588318%)" offset="0.800781"/><stop stop-opacity="1" stop-color="rgb(15.719604%, 42.025757%, 79.466248%)" offset="0.804688"/><stop stop-opacity="1" stop-color="rgb(15.412903%, 41.946411%, 79.342651%)" offset="0.808594"/><stop stop-opacity="1" stop-color="rgb(15.106201%, 41.867065%, 79.220581%)" offset="0.8125"/><stop stop-opacity="1" stop-color="rgb(14.7995%, 41.786194%, 79.096985%)" offset="0.816406"/><stop stop-opacity="1" stop-color="rgb(14.494324%, 41.706848%, 78.974915%)" offset="0.820312"/><stop stop-opacity="1" stop-color="rgb(14.187622%, 41.627502%, 78.852844%)" offset="0.824219"/><stop stop-opacity="1" stop-color="rgb(13.88092%, 41.548157%, 78.730774%)" offset="0.828125"/><stop stop-opacity="1" stop-color="rgb(13.574219%, 41.467285%, 78.607178%)" offset="0.832031"/><stop stop-opacity="1" stop-color="rgb(13.267517%, 41.387939%, 78.485107%)" offset="0.835938"/><stop stop-opacity="1" stop-color="rgb(12.960815%, 41.308594%, 78.361511%)" offset="0.839844"/><stop stop-opacity="1" stop-color="rgb(12.65564%, 41.229248%, 78.239441%)" offset="0.84375"/><stop stop-opacity="1" stop-color="rgb(12.348938%, 41.149902%, 78.115845%)" offset="0.847656"/><stop stop-opacity="1" stop-color="rgb(12.042236%, 41.070557%, 77.993774%)" offset="0.851562"/><stop stop-opacity="1" stop-color="rgb(11.735535%, 40.989685%, 77.871704%)" offset="0.855469"/><stop stop-opacity="1" stop-color="rgb(11.430359%, 40.910339%, 77.749634%)" offset="0.859375"/><stop stop-opacity="1" stop-color="rgb(11.123657%, 40.830994%, 77.626038%)" offset="0.863281"/><stop stop-opacity="1" stop-color="rgb(10.816956%, 40.751648%, 77.503967%)" offset="0.867188"/><stop stop-opacity="1" stop-color="rgb(10.510254%, 40.670776%, 77.380371%)" offset="0.871094"/><stop stop-opacity="1" stop-color="rgb(10.205078%, 40.591431%, 77.258301%)" offset="0.875"/><stop stop-opacity="1" stop-color="rgb(9.898376%, 40.512085%, 77.134705%)" offset="0.878906"/><stop stop-opacity="1" stop-color="rgb(9.591675%, 40.432739%, 77.012634%)" offset="0.882812"/><stop stop-opacity="1" stop-color="rgb(9.284973%, 40.351868%, 76.890564%)" offset="0.886719"/><stop stop-opacity="1" stop-color="rgb(8.979797%, 40.272522%, 76.768494%)" offset="0.890625"/><stop stop-opacity="1" stop-color="rgb(8.673096%, 40.193176%, 76.644897%)" offset="0.894531"/><stop stop-opacity="1" stop-color="rgb(8.366394%, 40.113831%, 76.522827%)" offset="0.898438"/><stop stop-opacity="1" stop-color="rgb(8.059692%, 40.034485%, 76.399231%)" offset="0.902344"/><stop stop-opacity="1" stop-color="rgb(7.752991%, 39.955139%, 76.277161%)" offset="0.90625"/><stop stop-opacity="1" stop-color="rgb(7.446289%, 39.874268%, 76.153564%)" offset="0.910156"/><stop stop-opacity="1" stop-color="rgb(7.141113%, 39.794922%, 76.031494%)" offset="0.914062"/><stop stop-opacity="1" stop-color="rgb(6.834412%, 39.715576%, 75.909424%)" offset="0.917969"/><stop stop-opacity="1" stop-color="rgb(6.52771%, 39.63623%, 75.787354%)" offset="0.921875"/><stop stop-opacity="1" stop-color="rgb(6.221008%, 39.555359%, 75.663757%)" offset="0.925781"/><stop stop-opacity="1" stop-color="rgb(5.915833%, 39.476013%, 75.541687%)" offset="0.929688"/><stop stop-opacity="1" stop-color="rgb(5.609131%, 39.396667%, 75.418091%)" offset="0.933594"/><stop stop-opacity="1" stop-color="rgb(5.302429%, 39.317322%, 75.296021%)" offset="0.9375"/><stop stop-opacity="1" stop-color="rgb(4.995728%, 39.23645%, 75.172424%)" offset="0.941406"/><stop stop-opacity="1" stop-color="rgb(4.690552%, 39.157104%, 75.050354%)" offset="0.945312"/><stop stop-opacity="1" stop-color="rgb(4.38385%, 39.077759%, 74.928284%)" offset="0.949219"/><stop stop-opacity="1" stop-color="rgb(4.077148%, 38.998413%, 74.806213%)" offset="0.953125"/><stop stop-opacity="1" stop-color="rgb(3.770447%, 38.919067%, 74.682617%)" offset="0.957031"/><stop stop-opacity="1" stop-color="rgb(3.465271%, 38.839722%, 74.560547%)" offset="0.960937"/><stop stop-opacity="1" stop-color="rgb(3.158569%, 38.75885%, 74.436951%)" offset="0.964844"/><stop stop-opacity="1" stop-color="rgb(2.851868%, 38.679504%, 74.31488%)" offset="0.96875"/><stop stop-opacity="1" stop-color="rgb(2.545166%, 38.600159%, 74.191284%)" offset="0.972656"/><stop stop-opacity="1" stop-color="rgb(2.23999%, 38.520813%, 74.069214%)" offset="0.976562"/><stop stop-opacity="1" stop-color="rgb(1.933289%, 38.439941%, 73.947144%)" offset="0.980469"/><stop stop-opacity="1" stop-color="rgb(1.626587%, 38.360596%, 73.825073%)" offset="0.984375"/><stop stop-opacity="1" stop-color="rgb(1.319885%, 38.28125%, 73.701477%)" offset="0.988281"/><stop stop-opacity="1" stop-color="rgb(1.013184%, 38.201904%, 73.579407%)" offset="0.992188"/><stop stop-opacity="1" stop-color="rgb(0.706482%, 38.121033%, 73.455811%)" offset="0.996094"/><stop stop-opacity="1" stop-color="rgb(0.401306%, 38.041687%, 73.33374%)" offset="1"/></linearGradient><clipPath id="def903d0d2"><path d="M 1099 790 L 1225.96875 790 L 1225.96875 959 L 1099 959 Z M 1099 790 " clip-rule="nonzero"/></clipPath><clipPath id="c700ce3c11"><path d="M 558.515625 790 L 686 790 L 686 959 L 558.515625 959 Z M 558.515625 790 " clip-rule="nonzero"/></clipPath></defs><g clip-path="url(#35b16c6f1d)"><g clip-path="url(#9678d90a6d)"><path stroke-linecap="butt" transform="matrix(0.74995, 0, 0, 0.74995, 388.706936, 388.767019)" fill="none" stroke-linejoin="miter" d="M 671.602596 -0.00185836 C 300.68702 -0.00185836 0.000126892 300.685035 0.000126892 671.600611 C 0.000126892 1042.516187 300.68702 1343.20308 671.602596 1343.20308 C 1042.518172 1343.20308 1343.205066 1042.516187 1343.205066 671.600611 C 1343.205066 300.685035 1042.518172 -0.00185836 671.602596 -0.00185836 Z M 671.602596 -0.00185836 " stroke="url(#81e39ddb10)" stroke-width="80" stroke-miterlimit="4"/></g></g><path fill="#ffffff" d="M 892.378906 1042.59375 C 856.3125 1042.59375 826.863281 1013.144531 826.863281 977.082031 C 826.863281 941.019531 856.3125 911.570312 892.378906 911.570312 C 928.441406 911.570312 957.890625 941.019531 957.890625 977.082031 C 957.890625 1013.144531 928.441406 1042.59375 892.378906 1042.59375 Z M 892.378906 930.46875 C 866.707031 930.46875 845.761719 951.414062 845.761719 977.082031 C 845.761719 1002.753906 866.707031 1023.699219 892.378906 1023.699219 C 918.046875 1023.699219 938.992188 1002.753906 938.992188 977.082031 C 938.992188 951.414062 918.046875 930.46875 892.378906 930.46875 Z M 892.378906 930.46875 " fill-opacity="1" fill-rule="nonzero"/><path fill="#ffffff" d="M 1000.566406 1204.800781 C 995.371094 1204.800781 991.121094 1200.550781 991.121094 1195.351562 L 991.121094 1112.515625 C 991.121094 1081.492188 965.765625 1056.140625 934.742188 1056.140625 L 892.378906 1056.140625 C 887.179688 1056.140625 882.929688 1051.886719 882.929688 1046.691406 C 882.929688 1041.492188 887.179688 1037.242188 892.378906 1037.242188 L 934.742188 1037.242188 C 976.316406 1037.242188 1010.015625 1070.941406 1010.015625 1112.515625 L 1010.015625 1195.351562 C 1010.015625 1200.550781 1005.765625 1204.800781 1000.566406 1204.800781 Z M 1000.566406 1204.800781 " fill-opacity="1" fill-rule="nonzero"/><path fill="#ffffff" d="M 948.757812 1199.921875 C 943.558594 1199.921875 939.308594 1195.667969 939.308594 1190.472656 L 939.308594 1110.3125 C 939.308594 1105.117188 943.558594 1100.863281 948.757812 1100.863281 C 953.953125 1100.863281 958.207031 1105.117188 958.207031 1110.3125 L 958.207031 1190.472656 C 958.207031 1195.667969 953.953125 1199.921875 948.757812 1199.921875 Z M 948.757812 1199.921875 " fill-opacity="1" fill-rule="nonzero"/><path fill="#ffffff" d="M 892.378906 1042.59375 C 856.3125 1042.59375 826.863281 1013.144531 826.863281 977.082031 C 826.863281 941.019531 856.3125 911.570312 892.378906 911.570312 C 928.441406 911.570312 957.890625 941.019531 957.890625 977.082031 C 957.890625 1013.144531 928.441406 1042.59375 892.378906 1042.59375 Z M 892.378906 930.46875 C 866.707031 930.46875 845.761719 951.414062 845.761719 977.082031 C 845.761719 1002.753906 866.707031 1023.699219 892.378906 1023.699219 C 918.046875 1023.699219 938.992188 1002.753906 938.992188 977.082031 C 938.992188 951.414062 918.046875 930.46875 892.378906 930.46875 Z M 892.378906 930.46875 " fill-opacity="1" fill-rule="nonzero"/><path fill="#ffffff" d="M 784.1875 1204.800781 C 778.992188 1204.800781 774.738281 1200.550781 774.738281 1195.351562 L 774.738281 1112.515625 C 774.738281 1070.941406 808.441406 1037.242188 850.015625 1037.242188 L 892.378906 1037.242188 C 897.574219 1037.242188 901.828125 1041.492188 901.828125 1046.691406 C 901.828125 1051.886719 897.574219 1056.140625 892.378906 1056.140625 L 850.015625 1056.140625 C 818.992188 1056.140625 793.636719 1081.492188 793.636719 1112.515625 L 793.636719 1195.351562 C 793.636719 1200.550781 789.382812 1204.800781 784.1875 1204.800781 Z M 784.1875 1204.800781 " fill-opacity="1" fill-rule="nonzero"/><path fill="#ffffff" d="M 836 1199.921875 C 830.800781 1199.921875 826.550781 1195.667969 826.550781 1190.472656 L 826.550781 1110.3125 C 826.550781 1105.117188 830.800781 1100.863281 836 1100.863281 C 841.195312 1100.863281 845.449219 1105.117188 845.449219 1110.3125 L 845.449219 1190.472656 C 845.449219 1195.667969 841.195312 1199.921875 836 1199.921875 Z M 836 1199.921875 " fill-opacity="1" fill-rule="nonzero"/><path fill="#ffffff" d="M 1108.601562 796.292969 C 1072.539062 796.292969 1043.089844 766.84375 1043.089844 730.78125 C 1043.089844 694.71875 1072.539062 665.269531 1108.601562 665.269531 C 1144.664062 665.269531 1174.113281 694.71875 1174.113281 730.78125 C 1174.113281 766.84375 1144.820312 796.292969 1108.601562 796.292969 Z M 1108.601562 684.164062 C 1082.929688 684.164062 1061.984375 705.109375 1061.984375 730.78125 C 1061.984375 756.449219 1082.929688 777.394531 1108.601562 777.394531 C 1134.269531 777.394531 1155.214844 756.449219 1155.214844 730.78125 C 1155.214844 704.953125 1134.429688 684.164062 1108.601562 684.164062 Z M 1108.601562 684.164062 " fill-opacity="1" fill-rule="nonzero"/><g clip-path="url(#def903d0d2)"><path fill="#ffffff" d="M 1216.792969 958.5 C 1211.59375 958.5 1207.34375 954.246094 1207.34375 949.050781 L 1207.34375 866.214844 C 1207.34375 835.191406 1181.988281 809.835938 1150.964844 809.835938 L 1108.601562 809.835938 C 1103.402344 809.835938 1099.152344 805.585938 1099.152344 800.386719 C 1099.152344 795.191406 1103.402344 790.9375 1108.601562 790.9375 L 1150.964844 790.9375 C 1192.539062 790.9375 1226.238281 824.640625 1226.238281 866.214844 L 1226.238281 949.050781 C 1226.238281 954.246094 1221.988281 958.5 1216.792969 958.5 Z M 1216.792969 958.5 " fill-opacity="1" fill-rule="nonzero"/></g><path fill="#ffffff" d="M 1164.980469 953.617188 C 1159.78125 953.617188 1155.53125 949.367188 1155.53125 944.167969 L 1155.53125 864.011719 C 1155.53125 858.8125 1159.78125 854.5625 1164.980469 854.5625 C 1170.175781 854.5625 1174.429688 858.8125 1174.429688 864.011719 L 1174.429688 944.167969 C 1174.429688 949.367188 1170.175781 953.617188 1164.980469 953.617188 Z M 1164.980469 953.617188 " fill-opacity="1" fill-rule="nonzero"/><path fill="#ffffff" d="M 1108.601562 796.292969 C 1072.539062 796.292969 1043.089844 766.84375 1043.089844 730.78125 C 1043.089844 694.71875 1072.539062 665.269531 1108.601562 665.269531 C 1144.664062 665.269531 1174.113281 694.71875 1174.113281 730.78125 C 1174.113281 766.84375 1144.820312 796.292969 1108.601562 796.292969 Z M 1108.601562 684.164062 C 1082.929688 684.164062 1061.984375 705.109375 1061.984375 730.78125 C 1061.984375 756.449219 1082.929688 777.394531 1108.601562 777.394531 C 1134.269531 777.394531 1155.214844 756.449219 1155.214844 730.78125 C 1155.214844 704.953125 1134.429688 684.164062 1108.601562 684.164062 Z M 1108.601562 684.164062 " fill-opacity="1" fill-rule="nonzero"/><path fill="#ffffff" d="M 1000.566406 958.5 C 995.371094 958.5 991.121094 954.246094 991.121094 949.050781 L 991.121094 866.214844 C 991.121094 824.640625 1024.820312 790.9375 1066.394531 790.9375 L 1108.757812 790.9375 C 1113.957031 790.9375 1118.207031 795.191406 1118.207031 800.386719 C 1118.207031 805.585938 1113.957031 809.835938 1108.757812 809.835938 L 1066.394531 809.835938 C 1035.371094 809.835938 1010.015625 835.191406 1010.015625 866.214844 L 1010.015625 949.050781 C 1010.015625 954.246094 1005.765625 958.5 1000.566406 958.5 Z M 1000.566406 958.5 " fill-opacity="1" fill-rule="nonzero"/><path fill="#ffffff" d="M 1052.378906 953.617188 C 1047.183594 953.617188 1042.929688 949.367188 1042.929688 944.167969 L 1042.929688 864.011719 C 1042.929688 858.8125 1047.183594 854.5625 1052.378906 854.5625 C 1057.578125 854.5625 1061.828125 858.8125 1061.828125 864.011719 L 1061.828125 944.167969 C 1061.828125 949.367188 1057.578125 953.617188 1052.378906 953.617188 Z M 1052.378906 953.617188 " fill-opacity="1" fill-rule="nonzero"/><path fill="#ffffff" d="M 892.378906 699.757812 C 859.464844 699.757812 832.535156 672.984375 832.535156 639.914062 C 832.535156 607 859.304688 580.070312 892.378906 580.070312 C 925.449219 580.070312 952.222656 606.84375 952.222656 639.914062 C 952.222656 672.984375 925.292969 699.757812 892.378906 699.757812 Z M 892.378906 599.125 C 869.859375 599.125 851.433594 617.394531 851.433594 640.070312 C 851.433594 662.589844 869.699219 681.015625 892.378906 681.015625 C 914.898438 681.015625 933.324219 662.75 933.324219 640.070312 C 933.324219 617.550781 914.898438 599.125 892.378906 599.125 Z M 892.378906 599.125 " fill-opacity="1" fill-rule="nonzero"/><path fill="#ffffff" d="M 989.542969 818.339844 C 984.347656 818.339844 980.09375 814.089844 980.09375 808.890625 L 980.09375 749.679688 C 980.09375 728.890625 957.890625 712.039062 930.488281 712.039062 L 892.378906 712.039062 C 887.179688 712.039062 882.929688 707.789062 882.929688 702.589844 C 882.929688 697.394531 887.179688 693.140625 892.378906 693.140625 L 930.332031 693.140625 C 968.125 693.140625 998.835938 718.496094 998.835938 749.679688 L 998.835938 808.890625 C 998.992188 814.089844 994.742188 818.339844 989.542969 818.339844 Z M 989.542969 818.339844 " fill-opacity="1" fill-rule="nonzero"/><path fill="#ffffff" d="M 942.929688 814.875 C 937.734375 814.875 933.480469 810.625 933.480469 805.425781 L 933.480469 748.101562 C 933.480469 742.90625 937.734375 738.65625 942.929688 738.65625 C 948.125 738.65625 952.378906 742.90625 952.378906 748.101562 L 952.378906 805.425781 C 952.378906 810.625 948.125 814.875 942.929688 814.875 Z M 942.929688 814.875 " fill-opacity="1" fill-rule="nonzero"/><path fill="#ffffff" d="M 892.378906 699.757812 C 859.464844 699.757812 832.535156 672.984375 832.535156 639.914062 C 832.535156 607 859.304688 580.070312 892.378906 580.070312 C 925.449219 580.070312 952.222656 606.84375 952.222656 639.914062 C 952.222656 672.984375 925.292969 699.757812 892.378906 699.757812 Z M 892.378906 599.125 C 869.859375 599.125 851.433594 617.394531 851.433594 640.070312 C 851.433594 662.589844 869.699219 681.015625 892.378906 681.015625 C 914.898438 681.015625 933.324219 662.75 933.324219 640.070312 C 933.324219 617.550781 914.898438 599.125 892.378906 599.125 Z M 892.378906 599.125 " fill-opacity="1" fill-rule="nonzero"/><path fill="#ffffff" d="M 795.210938 818.339844 C 790.015625 818.339844 785.761719 814.089844 785.761719 808.890625 L 785.761719 749.679688 C 785.761719 718.496094 816.472656 693.140625 854.265625 693.140625 L 892.378906 693.140625 C 897.574219 693.140625 901.828125 697.394531 901.828125 702.589844 C 901.828125 707.789062 897.574219 712.039062 892.378906 712.039062 L 854.425781 712.039062 C 827.023438 712.039062 804.816406 728.890625 804.816406 749.679688 L 804.816406 808.890625 C 804.660156 814.089844 800.566406 818.339844 795.210938 818.339844 Z M 795.210938 818.339844 " fill-opacity="1" fill-rule="nonzero"/><path fill="#ffffff" d="M 841.824219 814.875 C 836.628906 814.875 832.378906 810.625 832.378906 805.425781 L 832.378906 748.101562 C 832.378906 742.90625 836.628906 738.65625 841.824219 738.65625 C 847.023438 738.65625 851.273438 742.90625 851.273438 748.101562 L 851.273438 805.425781 C 851.273438 810.625 847.023438 814.875 841.824219 814.875 Z M 841.824219 814.875 " fill-opacity="1" fill-rule="nonzero"/><path fill="#ffffff" d="M 1031.90625 1070.628906 C 1028.441406 1070.628906 1025.292969 1068.738281 1023.558594 1065.585938 C 1021.039062 1061.019531 1022.929688 1055.195312 1027.496094 1052.832031 C 1049.386719 1041.335938 1078.835938 1019.761719 1095.53125 982.59375 C 1100.410156 971.570312 1103.875 959.757812 1105.921875 947.632812 C 1106.710938 942.4375 1111.59375 938.972656 1116.789062 939.757812 C 1121.988281 940.546875 1125.453125 945.429688 1124.664062 950.625 C 1122.460938 964.484375 1118.523438 977.871094 1112.851562 990.46875 C 1093.953125 1032.515625 1060.882812 1056.769531 1036.472656 1069.683594 C 1034.898438 1070.15625 1033.480469 1070.628906 1031.90625 1070.628906 Z M 1031.90625 1070.628906 " fill-opacity="1" fill-rule="nonzero"/><path fill="#ffffff" d="M 1000.566406 892.199219 C 997.574219 892.199219 994.582031 890.78125 992.695312 887.949219 C 982.929688 873.144531 944.191406 851.410156 892.378906 851.410156 C 887.179688 851.410156 882.929688 847.160156 882.929688 841.964844 C 882.929688 836.765625 887.179688 832.515625 892.378906 832.515625 C 946.238281 832.515625 993.640625 855.347656 1008.441406 877.554688 C 1011.277344 881.964844 1010.175781 887.789062 1005.765625 890.625 C 1004.191406 891.726562 1002.300781 892.199219 1000.566406 892.199219 Z M 1000.566406 892.199219 " fill-opacity="1" fill-rule="nonzero"/><path fill="#ffffff" d="M 892.378906 1042.59375 C 856.3125 1042.59375 826.863281 1013.144531 826.863281 977.082031 C 826.863281 941.019531 856.3125 911.570312 892.378906 911.570312 C 928.441406 911.570312 957.890625 941.019531 957.890625 977.082031 C 957.890625 1013.144531 928.441406 1042.59375 892.378906 1042.59375 Z M 892.378906 930.46875 C 866.707031 930.46875 845.761719 951.414062 845.761719 977.082031 C 845.761719 1002.753906 866.707031 1023.699219 892.378906 1023.699219 C 918.046875 1023.699219 938.992188 1002.753906 938.992188 977.082031 C 938.992188 951.414062 918.046875 930.46875 892.378906 930.46875 Z M 892.378906 930.46875 " fill-opacity="1" fill-rule="nonzero"/><path fill="#ffffff" d="M 784.1875 1204.800781 C 778.992188 1204.800781 774.738281 1200.550781 774.738281 1195.351562 L 774.738281 1112.515625 C 774.738281 1070.941406 808.441406 1037.242188 850.015625 1037.242188 L 892.378906 1037.242188 C 897.574219 1037.242188 901.828125 1041.492188 901.828125 1046.691406 C 901.828125 1051.886719 897.574219 1056.140625 892.378906 1056.140625 L 850.015625 1056.140625 C 818.992188 1056.140625 793.636719 1081.492188 793.636719 1112.515625 L 793.636719 1195.351562 C 793.636719 1200.550781 789.382812 1204.800781 784.1875 1204.800781 Z M 784.1875 1204.800781 " fill-opacity="1" fill-rule="nonzero"/><path fill="#ffffff" d="M 836 1199.921875 C 830.800781 1199.921875 826.550781 1195.667969 826.550781 1190.472656 L 826.550781 1110.3125 C 826.550781 1105.117188 830.800781 1100.863281 836 1100.863281 C 841.195312 1100.863281 845.449219 1105.117188 845.449219 1110.3125 L 845.449219 1190.472656 C 845.449219 1195.667969 841.195312 1199.921875 836 1199.921875 Z M 836 1199.921875 " fill-opacity="1" fill-rule="nonzero"/><path fill="#ffffff" d="M 892.378906 1042.59375 C 856.3125 1042.59375 826.863281 1013.144531 826.863281 977.082031 C 826.863281 941.019531 856.3125 911.570312 892.378906 911.570312 C 928.441406 911.570312 957.890625 941.019531 957.890625 977.082031 C 957.890625 1013.144531 928.441406 1042.59375 892.378906 1042.59375 Z M 892.378906 930.46875 C 866.707031 930.46875 845.761719 951.414062 845.761719 977.082031 C 845.761719 1002.753906 866.707031 1023.699219 892.378906 1023.699219 C 918.046875 1023.699219 938.992188 1002.753906 938.992188 977.082031 C 938.992188 951.414062 918.046875 930.46875 892.378906 930.46875 Z M 892.378906 930.46875 " fill-opacity="1" fill-rule="nonzero"/><path fill="#ffffff" d="M 1000.566406 1204.800781 C 995.371094 1204.800781 991.121094 1200.550781 991.121094 1195.351562 L 991.121094 1112.515625 C 991.121094 1081.492188 965.765625 1056.140625 934.742188 1056.140625 L 892.378906 1056.140625 C 887.179688 1056.140625 882.929688 1051.886719 882.929688 1046.691406 C 882.929688 1041.492188 887.179688 1037.242188 892.378906 1037.242188 L 934.742188 1037.242188 C 976.316406 1037.242188 1010.015625 1070.941406 1010.015625 1112.515625 L 1010.015625 1195.351562 C 1010.015625 1200.550781 1005.765625 1204.800781 1000.566406 1204.800781 Z M 1000.566406 1204.800781 " fill-opacity="1" fill-rule="nonzero"/><path fill="#ffffff" d="M 948.757812 1199.921875 C 943.558594 1199.921875 939.308594 1195.667969 939.308594 1190.472656 L 939.308594 1110.3125 C 939.308594 1105.117188 943.558594 1100.863281 948.757812 1100.863281 C 953.953125 1100.863281 958.207031 1105.117188 958.207031 1110.3125 L 958.207031 1190.472656 C 958.207031 1195.667969 953.953125 1199.921875 948.757812 1199.921875 Z M 948.757812 1199.921875 " fill-opacity="1" fill-rule="nonzero"/><path fill="#ffffff" d="M 676.15625 796.292969 C 640.089844 796.292969 610.640625 766.84375 610.640625 730.78125 C 610.640625 694.71875 640.089844 665.269531 676.15625 665.269531 C 712.21875 665.269531 741.667969 694.71875 741.667969 730.78125 C 741.667969 766.84375 712.21875 796.292969 676.15625 796.292969 Z M 676.15625 684.164062 C 650.484375 684.164062 629.539062 705.109375 629.539062 730.78125 C 629.539062 756.449219 650.484375 777.394531 676.15625 777.394531 C 701.824219 777.394531 722.769531 756.449219 722.769531 730.78125 C 722.769531 704.953125 701.824219 684.164062 676.15625 684.164062 Z M 676.15625 684.164062 " fill-opacity="1" fill-rule="nonzero"/><g clip-path="url(#c700ce3c11)"><path fill="#ffffff" d="M 567.964844 958.5 C 562.765625 958.5 558.515625 954.246094 558.515625 949.050781 L 558.515625 866.214844 C 558.515625 824.640625 592.214844 790.9375 633.792969 790.9375 L 676.15625 790.9375 C 681.351562 790.9375 685.605469 795.191406 685.605469 800.386719 C 685.605469 805.585938 681.351562 809.835938 676.15625 809.835938 L 633.792969 809.835938 C 602.609375 809.835938 577.414062 835.035156 577.414062 866.214844 L 577.414062 949.050781 C 577.414062 954.246094 573.160156 958.5 567.964844 958.5 Z M 567.964844 958.5 " fill-opacity="1" fill-rule="nonzero"/></g><path fill="#ffffff" d="M 619.777344 953.617188 C 614.578125 953.617188 610.328125 949.367188 610.328125 944.167969 L 610.328125 864.011719 C 610.328125 858.8125 614.578125 854.5625 619.777344 854.5625 C 624.972656 854.5625 629.226562 858.8125 629.226562 864.011719 L 629.226562 944.167969 C 629.226562 949.367188 624.972656 953.617188 619.777344 953.617188 Z M 619.777344 953.617188 " fill-opacity="1" fill-rule="nonzero"/><path fill="#ffffff" d="M 676.15625 796.292969 C 640.089844 796.292969 610.640625 766.84375 610.640625 730.78125 C 610.640625 694.71875 640.089844 665.269531 676.15625 665.269531 C 712.21875 665.269531 741.667969 694.71875 741.667969 730.78125 C 741.667969 766.84375 712.21875 796.292969 676.15625 796.292969 Z M 676.15625 684.164062 C 650.484375 684.164062 629.539062 705.109375 629.539062 730.78125 C 629.539062 756.449219 650.484375 777.394531 676.15625 777.394531 C 701.824219 777.394531 722.769531 756.449219 722.769531 730.78125 C 722.769531 704.953125 701.824219 684.164062 676.15625 684.164062 Z M 676.15625 684.164062 " fill-opacity="1" fill-rule="nonzero"/><path fill="#ffffff" d="M 784.1875 958.5 C 778.992188 958.5 774.738281 954.246094 774.738281 949.050781 L 774.738281 866.214844 C 774.738281 835.191406 749.382812 809.835938 718.359375 809.835938 L 675.996094 809.835938 C 670.800781 809.835938 666.546875 805.585938 666.546875 800.386719 C 666.546875 795.191406 670.800781 790.9375 675.996094 790.9375 L 718.359375 790.9375 C 759.933594 790.9375 793.636719 824.640625 793.636719 866.214844 L 793.636719 949.050781 C 793.636719 954.246094 789.382812 958.5 784.1875 958.5 Z M 784.1875 958.5 " fill-opacity="1" fill-rule="nonzero"/><path fill="#ffffff" d="M 732.375 953.617188 C 727.179688 953.617188 722.925781 949.367188 722.925781 944.167969 L 722.925781 864.011719 C 722.925781 858.8125 727.179688 854.5625 732.375 854.5625 C 737.574219 854.5625 741.824219 858.8125 741.824219 864.011719 L 741.824219 944.167969 C 741.824219 949.367188 737.574219 953.617188 732.375 953.617188 Z M 732.375 953.617188 " fill-opacity="1" fill-rule="nonzero"/><path fill="#ffffff" d="M 892.378906 699.757812 C 859.464844 699.757812 832.535156 672.984375 832.535156 639.914062 C 832.535156 607 859.304688 580.070312 892.378906 580.070312 C 925.449219 580.070312 952.222656 606.84375 952.222656 639.914062 C 952.222656 672.984375 925.292969 699.757812 892.378906 699.757812 Z M 892.378906 599.125 C 869.859375 599.125 851.433594 617.394531 851.433594 640.070312 C 851.433594 662.589844 869.699219 681.015625 892.378906 681.015625 C 914.898438 681.015625 933.324219 662.75 933.324219 640.070312 C 933.324219 617.550781 914.898438 599.125 892.378906 599.125 Z M 892.378906 599.125 " fill-opacity="1" fill-rule="nonzero"/><path fill="#ffffff" d="M 795.210938 818.339844 C 790.015625 818.339844 785.761719 814.089844 785.761719 808.890625 L 785.761719 749.679688 C 785.761719 718.496094 816.472656 693.140625 854.265625 693.140625 L 892.378906 693.140625 C 897.574219 693.140625 901.828125 697.394531 901.828125 702.589844 C 901.828125 707.789062 897.574219 712.039062 892.378906 712.039062 L 854.425781 712.039062 C 827.023438 712.039062 804.816406 728.890625 804.816406 749.679688 L 804.816406 808.890625 C 804.660156 814.089844 800.566406 818.339844 795.210938 818.339844 Z M 795.210938 818.339844 " fill-opacity="1" fill-rule="nonzero"/><path fill="#ffffff" d="M 841.824219 814.875 C 836.628906 814.875 832.378906 810.625 832.378906 805.425781 L 832.378906 748.101562 C 832.378906 742.90625 836.628906 738.65625 841.824219 738.65625 C 847.023438 738.65625 851.273438 742.90625 851.273438 748.101562 L 851.273438 805.425781 C 851.273438 810.625 847.023438 814.875 841.824219 814.875 Z M 841.824219 814.875 " fill-opacity="1" fill-rule="nonzero"/><path fill="#ffffff" d="M 892.378906 699.757812 C 859.464844 699.757812 832.535156 672.984375 832.535156 639.914062 C 832.535156 607 859.304688 580.070312 892.378906 580.070312 C 925.449219 580.070312 952.222656 606.84375 952.222656 639.914062 C 952.222656 672.984375 925.292969 699.757812 892.378906 699.757812 Z M 892.378906 599.125 C 869.859375 599.125 851.433594 617.394531 851.433594 640.070312 C 851.433594 662.589844 869.699219 681.015625 892.378906 681.015625 C 914.898438 681.015625 933.324219 662.75 933.324219 640.070312 C 933.324219 617.550781 914.898438 599.125 892.378906 599.125 Z M 892.378906 599.125 " fill-opacity="1" fill-rule="nonzero"/><path fill="#ffffff" d="M 989.542969 818.339844 C 984.347656 818.339844 980.09375 814.089844 980.09375 808.890625 L 980.09375 749.679688 C 980.09375 728.890625 957.890625 712.039062 930.488281 712.039062 L 892.378906 712.039062 C 887.179688 712.039062 882.929688 707.789062 882.929688 702.589844 C 882.929688 697.394531 887.179688 693.140625 892.378906 693.140625 L 930.332031 693.140625 C 968.125 693.140625 998.835938 718.496094 998.835938 749.679688 L 998.835938 808.890625 C 998.992188 814.089844 994.742188 818.339844 989.542969 818.339844 Z M 989.542969 818.339844 " fill-opacity="1" fill-rule="nonzero"/><path fill="#ffffff" d="M 942.929688 814.875 C 937.734375 814.875 933.480469 810.625 933.480469 805.425781 L 933.480469 748.101562 C 933.480469 742.90625 937.734375 738.65625 942.929688 738.65625 C 948.125 738.65625 952.378906 742.90625 952.378906 748.101562 L 952.378906 805.425781 C 952.378906 810.625 948.125 814.875 942.929688 814.875 Z M 942.929688 814.875 " fill-opacity="1" fill-rule="nonzero"/><path fill="#ffffff" d="M 752.847656 1070.628906 C 751.429688 1070.628906 749.855469 1070.3125 748.4375 1069.523438 C 724.027344 1056.609375 690.800781 1032.359375 672.058594 990.3125 C 666.390625 977.710938 662.453125 964.328125 660.25 950.46875 C 659.460938 945.269531 662.925781 940.546875 668.125 939.601562 C 673.320312 938.816406 678.042969 942.277344 678.988281 947.476562 C 680.878906 959.601562 684.34375 971.414062 689.382812 982.4375 C 706.078125 1019.601562 735.527344 1041.179688 757.414062 1052.675781 C 761.984375 1055.195312 763.714844 1060.863281 761.351562 1065.429688 C 759.460938 1068.738281 756.15625 1070.628906 752.847656 1070.628906 Z M 752.847656 1070.628906 " fill-opacity="1" fill-rule="nonzero"/><path fill="#ffffff" d="M 784.1875 892.199219 C 782.457031 892.199219 780.566406 891.726562 778.992188 890.625 C 774.582031 887.789062 773.480469 881.804688 776.3125 877.554688 C 791.117188 855.507812 838.519531 832.515625 892.378906 832.515625 C 897.574219 832.515625 901.828125 836.765625 901.828125 841.964844 C 901.828125 847.160156 897.574219 851.410156 892.378906 851.410156 C 840.566406 851.410156 801.984375 873.300781 792.0625 887.949219 C 790.328125 890.78125 787.335938 892.199219 784.1875 892.199219 Z M 784.1875 892.199219 " fill-opacity="1" fill-rule="nonzero"/></svg>