<svg xmlns="http://www.w3.org/2000/svg" xmlns:xlink="http://www.w3.org/1999/xlink" width="2380" zoomAndPan="magnify" viewBox="0 0 1784.88 1784.99993" height="2380" preserveAspectRatio="xMidYMid meet" version="1.0"><defs><clipPath id="18ff40ab83"><path d="M 388.707031 388.765625 L 1395.890625 388.765625 L 1395.890625 1395.949219 L 388.707031 1395.949219 Z M 388.707031 388.765625 " clip-rule="nonzero"/></clipPath><clipPath id="ac6325dd18"><path d="M 892.375 388.765625 C 614.207031 388.765625 388.707031 614.265625 388.707031 892.433594 C 388.707031 1170.601562 614.207031 1396.101562 892.375 1396.101562 C 1170.542969 1396.101562 1396.042969 1170.601562 1396.042969 892.433594 C 1396.042969 614.265625 1170.542969 388.765625 892.375 388.765625 Z M 892.375 388.765625 " clip-rule="nonzero"/></clipPath><linearGradient x1="0.00000186795" gradientTransform="matrix(20.98755, 0, 0, 20.98755, -0.0000125371, -0.0000658704)" y1="0.00000186795" x2="63.990321" gradientUnits="userSpaceOnUse" y2="63.990321" id="18a50161ac"><stop stop-opacity="1" stop-color="rgb(89.019775%, 57.649231%, 59.21936%)" offset="0"/><stop stop-opacity="1" stop-color="rgb(88.841248%, 57.440186%, 59.371948%)" offset="0.00390625"/><stop stop-opacity="1" stop-color="rgb(88.664246%, 57.232666%, 59.526062%)" offset="0.0078125"/><stop stop-opacity="1" stop-color="rgb(88.485718%, 57.023621%, 59.67865%)" offset="0.0117188"/><stop stop-opacity="1" stop-color="rgb(88.308716%, 56.816101%, 59.831238%)" offset="0.015625"/><stop stop-opacity="1" stop-color="rgb(88.130188%, 56.607056%, 59.983826%)" offset="0.0195313"/><stop stop-opacity="1" stop-color="rgb(87.953186%, 56.399536%, 60.137939%)" offset="0.0234375"/><stop stop-opacity="1" stop-color="rgb(87.774658%, 56.190491%, 60.290527%)" offset="0.0273438"/><stop stop-opacity="1" stop-color="rgb(87.597656%, 55.981445%, 60.444641%)" offset="0.03125"/><stop stop-opacity="1" stop-color="rgb(87.420654%, 55.7724%, 60.597229%)" offset="0.0351563"/><stop stop-opacity="1" stop-color="rgb(87.243652%, 55.56488%, 60.749817%)" offset="0.0390625"/><stop stop-opacity="1" stop-color="rgb(87.065125%, 55.355835%, 60.902405%)" offset="0.0429688"/><stop stop-opacity="1" stop-color="rgb(86.888123%, 55.148315%, 61.056519%)" offset="0.046875"/><stop stop-opacity="1" stop-color="rgb(86.709595%, 54.93927%, 61.209106%)" offset="0.0507813"/><stop stop-opacity="1" stop-color="rgb(86.532593%, 54.73175%, 61.36322%)" offset="0.0546875"/><stop stop-opacity="1" stop-color="rgb(86.354065%, 54.522705%, 61.515808%)" offset="0.0585938"/><stop stop-opacity="1" stop-color="rgb(86.177063%, 54.315186%, 61.668396%)" offset="0.0625"/><stop stop-opacity="1" stop-color="rgb(85.998535%, 54.10614%, 61.820984%)" offset="0.0664062"/><stop stop-opacity="1" stop-color="rgb(85.821533%, 53.898621%, 61.975098%)" offset="0.0703125"/><stop stop-opacity="1" stop-color="rgb(85.643005%, 53.689575%, 62.127686%)" offset="0.0742188"/><stop stop-opacity="1" stop-color="rgb(85.466003%, 53.48053%, 62.281799%)" offset="0.078125"/><stop stop-opacity="1" stop-color="rgb(85.289001%, 53.271484%, 62.434387%)" offset="0.0820313"/><stop stop-opacity="1" stop-color="rgb(85.112%, 53.063965%, 62.586975%)" offset="0.0859375"/><stop stop-opacity="1" stop-color="rgb(84.933472%, 52.854919%, 62.739563%)" offset="0.0898438"/><stop stop-opacity="1" stop-color="rgb(84.75647%, 52.6474%, 62.893677%)" offset="0.09375"/><stop stop-opacity="1" stop-color="rgb(84.577942%, 52.438354%, 63.046265%)" offset="0.0976563"/><stop stop-opacity="1" stop-color="rgb(84.40094%, 52.230835%, 63.200378%)" offset="0.101563"/><stop stop-opacity="1" stop-color="rgb(84.222412%, 52.02179%, 63.352966%)" offset="0.105469"/><stop stop-opacity="1" stop-color="rgb(84.04541%, 51.81427%, 63.505554%)" offset="0.109375"/><stop stop-opacity="1" stop-color="rgb(83.866882%, 51.605225%, 63.658142%)" offset="0.113281"/><stop stop-opacity="1" stop-color="rgb(83.68988%, 51.397705%, 63.812256%)" offset="0.117188"/><stop stop-opacity="1" stop-color="rgb(83.511353%, 51.18866%, 63.964844%)" offset="0.121094"/><stop stop-opacity="1" stop-color="rgb(83.334351%, 50.979614%, 64.118958%)" offset="0.125"/><stop stop-opacity="1" stop-color="rgb(83.157349%, 50.770569%, 64.271545%)" offset="0.128906"/><stop stop-opacity="1" stop-color="rgb(82.980347%, 50.563049%, 64.424133%)" offset="0.132812"/><stop stop-opacity="1" stop-color="rgb(82.801819%, 50.354004%, 64.576721%)" offset="0.136719"/><stop stop-opacity="1" stop-color="rgb(82.624817%, 50.146484%, 64.730835%)" offset="0.140625"/><stop stop-opacity="1" stop-color="rgb(82.446289%, 49.937439%, 64.883423%)" offset="0.144531"/><stop stop-opacity="1" stop-color="rgb(82.269287%, 49.729919%, 65.037537%)" offset="0.148438"/><stop stop-opacity="1" stop-color="rgb(82.090759%, 49.520874%, 65.190125%)" offset="0.152344"/><stop stop-opacity="1" stop-color="rgb(81.913757%, 49.313354%, 65.342712%)" offset="0.15625"/><stop stop-opacity="1" stop-color="rgb(81.735229%, 49.104309%, 65.4953%)" offset="0.160156"/><stop stop-opacity="1" stop-color="rgb(81.558228%, 48.89679%, 65.649414%)" offset="0.164063"/><stop stop-opacity="1" stop-color="rgb(81.381226%, 48.687744%, 65.802002%)" offset="0.167969"/><stop stop-opacity="1" stop-color="rgb(81.204224%, 48.478699%, 65.956116%)" offset="0.171875"/><stop stop-opacity="1" stop-color="rgb(81.025696%, 48.269653%, 66.108704%)" offset="0.175781"/><stop stop-opacity="1" stop-color="rgb(80.848694%, 48.062134%, 66.261292%)" offset="0.179688"/><stop stop-opacity="1" stop-color="rgb(80.670166%, 47.853088%, 66.413879%)" offset="0.183594"/><stop stop-opacity="1" stop-color="rgb(80.493164%, 47.645569%, 66.567993%)" offset="0.1875"/><stop stop-opacity="1" stop-color="rgb(80.314636%, 47.436523%, 66.720581%)" offset="0.191406"/><stop stop-opacity="1" stop-color="rgb(80.137634%, 47.229004%, 66.874695%)" offset="0.195313"/><stop stop-opacity="1" stop-color="rgb(79.959106%, 47.019958%, 67.027283%)" offset="0.199219"/><stop stop-opacity="1" stop-color="rgb(79.782104%, 46.812439%, 67.179871%)" offset="0.203125"/><stop stop-opacity="1" stop-color="rgb(79.603577%, 46.603394%, 67.332458%)" offset="0.207031"/><stop stop-opacity="1" stop-color="rgb(79.426575%, 46.395874%, 67.486572%)" offset="0.210938"/><stop stop-opacity="1" stop-color="rgb(79.249573%, 46.186829%, 67.63916%)" offset="0.214844"/><stop stop-opacity="1" stop-color="rgb(79.072571%, 45.977783%, 67.793274%)" offset="0.21875"/><stop stop-opacity="1" stop-color="rgb(78.894043%, 45.768738%, 67.945862%)" offset="0.222656"/><stop stop-opacity="1" stop-color="rgb(78.717041%, 45.561218%, 68.09845%)" offset="0.226563"/><stop stop-opacity="1" stop-color="rgb(78.538513%, 45.352173%, 68.251038%)" offset="0.230469"/><stop stop-opacity="1" stop-color="rgb(78.361511%, 45.144653%, 68.405151%)" offset="0.234375"/><stop stop-opacity="1" stop-color="rgb(78.182983%, 44.935608%, 68.557739%)" offset="0.238281"/><stop stop-opacity="1" stop-color="rgb(78.005981%, 44.728088%, 68.711853%)" offset="0.242188"/><stop stop-opacity="1" stop-color="rgb(77.827454%, 44.519043%, 68.864441%)" offset="0.246094"/><stop stop-opacity="1" stop-color="rgb(77.650452%, 44.311523%, 69.017029%)" offset="0.25"/><stop stop-opacity="1" stop-color="rgb(77.253723%, 44.206238%, 69.145203%)" offset="0.253906"/><stop stop-opacity="1" stop-color="rgb(76.856995%, 44.102478%, 69.274902%)" offset="0.257813"/><stop stop-opacity="1" stop-color="rgb(76.45874%, 43.997192%, 69.403076%)" offset="0.261719"/><stop stop-opacity="1" stop-color="rgb(76.060486%, 43.893433%, 69.532776%)" offset="0.265625"/><stop stop-opacity="1" stop-color="rgb(75.662231%, 43.789673%, 69.66095%)" offset="0.269531"/><stop stop-opacity="1" stop-color="rgb(75.263977%, 43.685913%, 69.789124%)" offset="0.273438"/><stop stop-opacity="1" stop-color="rgb(74.865723%, 43.582153%, 69.917297%)" offset="0.277344"/><stop stop-opacity="1" stop-color="rgb(74.467468%, 43.478394%, 70.046997%)" offset="0.28125"/><stop stop-opacity="1" stop-color="rgb(74.069214%, 43.373108%, 70.175171%)" offset="0.285156"/><stop stop-opacity="1" stop-color="rgb(73.670959%, 43.269348%, 70.303345%)" offset="0.289063"/><stop stop-opacity="1" stop-color="rgb(73.272705%, 43.165588%, 70.431519%)" offset="0.292969"/><stop stop-opacity="1" stop-color="rgb(72.874451%, 43.061829%, 70.561218%)" offset="0.296875"/><stop stop-opacity="1" stop-color="rgb(72.476196%, 42.958069%, 70.689392%)" offset="0.300781"/><stop stop-opacity="1" stop-color="rgb(72.077942%, 42.854309%, 70.817566%)" offset="0.304688"/><stop stop-opacity="1" stop-color="rgb(71.679688%, 42.749023%, 70.94574%)" offset="0.308594"/><stop stop-opacity="1" stop-color="rgb(71.281433%, 42.645264%, 71.075439%)" offset="0.3125"/><stop stop-opacity="1" stop-color="rgb(70.883179%, 42.541504%, 71.203613%)" offset="0.316406"/><stop stop-opacity="1" stop-color="rgb(70.484924%, 42.437744%, 71.331787%)" offset="0.320312"/><stop stop-opacity="1" stop-color="rgb(70.08667%, 42.332458%, 71.459961%)" offset="0.324219"/><stop stop-opacity="1" stop-color="rgb(69.688416%, 42.228699%, 71.589661%)" offset="0.328125"/><stop stop-opacity="1" stop-color="rgb(69.290161%, 42.124939%, 71.717834%)" offset="0.332031"/><stop stop-opacity="1" stop-color="rgb(68.891907%, 42.021179%, 71.846008%)" offset="0.335938"/><stop stop-opacity="1" stop-color="rgb(68.493652%, 41.917419%, 71.974182%)" offset="0.339844"/><stop stop-opacity="1" stop-color="rgb(68.095398%, 41.81366%, 72.103882%)" offset="0.34375"/><stop stop-opacity="1" stop-color="rgb(67.697144%, 41.708374%, 72.232056%)" offset="0.347656"/><stop stop-opacity="1" stop-color="rgb(67.298889%, 41.604614%, 72.360229%)" offset="0.351562"/><stop stop-opacity="1" stop-color="rgb(66.900635%, 41.500854%, 72.488403%)" offset="0.355469"/><stop stop-opacity="1" stop-color="rgb(66.50238%, 41.397095%, 72.618103%)" offset="0.359375"/><stop stop-opacity="1" stop-color="rgb(66.104126%, 41.293335%, 72.746277%)" offset="0.363281"/><stop stop-opacity="1" stop-color="rgb(65.705872%, 41.189575%, 72.875977%)" offset="0.367187"/><stop stop-opacity="1" stop-color="rgb(65.307617%, 41.08429%, 73.00415%)" offset="0.371094"/><stop stop-opacity="1" stop-color="rgb(64.909363%, 40.98053%, 73.132324%)" offset="0.375"/><stop stop-opacity="1" stop-color="rgb(64.511108%, 40.87677%, 73.260498%)" offset="0.378906"/><stop stop-opacity="1" stop-color="rgb(64.112854%, 40.77301%, 73.390198%)" offset="0.382813"/><stop stop-opacity="1" stop-color="rgb(63.7146%, 40.667725%, 73.518372%)" offset="0.386719"/><stop stop-opacity="1" stop-color="rgb(63.317871%, 40.563965%, 73.646545%)" offset="0.390625"/><stop stop-opacity="1" stop-color="rgb(62.919617%, 40.460205%, 73.774719%)" offset="0.394531"/><stop stop-opacity="1" stop-color="rgb(62.521362%, 40.356445%, 73.904419%)" offset="0.398438"/><stop stop-opacity="1" stop-color="rgb(62.123108%, 40.252686%, 74.032593%)" offset="0.402344"/><stop stop-opacity="1" stop-color="rgb(61.724854%, 40.148926%, 74.160767%)" offset="0.40625"/><stop stop-opacity="1" stop-color="rgb(61.326599%, 40.04364%, 74.28894%)" offset="0.410156"/><stop stop-opacity="1" stop-color="rgb(60.928345%, 39.93988%, 74.41864%)" offset="0.414063"/><stop stop-opacity="1" stop-color="rgb(60.53009%, 39.836121%, 74.546814%)" offset="0.417969"/><stop stop-opacity="1" stop-color="rgb(60.131836%, 39.732361%, 74.674988%)" offset="0.421875"/><stop stop-opacity="1" stop-color="rgb(59.733582%, 39.628601%, 74.803162%)" offset="0.425781"/><stop stop-opacity="1" stop-color="rgb(59.335327%, 39.524841%, 74.932861%)" offset="0.429688"/><stop stop-opacity="1" stop-color="rgb(58.937073%, 39.419556%, 75.061035%)" offset="0.433594"/><stop stop-opacity="1" stop-color="rgb(58.538818%, 39.315796%, 75.189209%)" offset="0.4375"/><stop stop-opacity="1" stop-color="rgb(58.140564%, 39.212036%, 75.317383%)" offset="0.441406"/><stop stop-opacity="1" stop-color="rgb(57.74231%, 39.108276%, 75.447083%)" offset="0.445312"/><stop stop-opacity="1" stop-color="rgb(57.344055%, 39.002991%, 75.575256%)" offset="0.449219"/><stop stop-opacity="1" stop-color="rgb(56.945801%, 38.899231%, 75.70343%)" offset="0.453125"/><stop stop-opacity="1" stop-color="rgb(56.547546%, 38.795471%, 75.831604%)" offset="0.457031"/><stop stop-opacity="1" stop-color="rgb(56.149292%, 38.691711%, 75.961304%)" offset="0.460938"/><stop stop-opacity="1" stop-color="rgb(55.751038%, 38.587952%, 76.089478%)" offset="0.464844"/><stop stop-opacity="1" stop-color="rgb(55.352783%, 38.484192%, 76.217651%)" offset="0.46875"/><stop stop-opacity="1" stop-color="rgb(54.954529%, 38.378906%, 76.345825%)" offset="0.472656"/><stop stop-opacity="1" stop-color="rgb(54.556274%, 38.275146%, 76.475525%)" offset="0.476562"/><stop stop-opacity="1" stop-color="rgb(54.15802%, 38.171387%, 76.603699%)" offset="0.480469"/><stop stop-opacity="1" stop-color="rgb(53.759766%, 38.067627%, 76.731873%)" offset="0.484375"/><stop stop-opacity="1" stop-color="rgb(53.361511%, 37.963867%, 76.860046%)" offset="0.488281"/><stop stop-opacity="1" stop-color="rgb(52.963257%, 37.860107%, 76.989746%)" offset="0.492187"/><stop stop-opacity="1" stop-color="rgb(52.565002%, 37.754822%, 77.11792%)" offset="0.496094"/><stop stop-opacity="1" stop-color="rgb(52.166748%, 37.651062%, 77.246094%)" offset="0.5"/><stop stop-opacity="1" stop-color="rgb(51.664734%, 37.734985%, 77.308655%)" offset="0.503906"/><stop stop-opacity="1" stop-color="rgb(51.164246%, 37.818909%, 77.371216%)" offset="0.507812"/><stop stop-opacity="1" stop-color="rgb(50.660706%, 37.904358%, 77.432251%)" offset="0.511719"/><stop stop-opacity="1" stop-color="rgb(50.158691%, 37.991333%, 77.493286%)" offset="0.515625"/><stop stop-opacity="1" stop-color="rgb(49.656677%, 38.076782%, 77.554321%)" offset="0.519531"/><stop stop-opacity="1" stop-color="rgb(49.154663%, 38.162231%, 77.616882%)" offset="0.523438"/><stop stop-opacity="1" stop-color="rgb(48.651123%, 38.247681%, 77.677917%)" offset="0.527344"/><stop stop-opacity="1" stop-color="rgb(48.149109%, 38.33313%, 77.738953%)" offset="0.53125"/><stop stop-opacity="1" stop-color="rgb(47.647095%, 38.418579%, 77.799988%)" offset="0.535156"/><stop stop-opacity="1" stop-color="rgb(47.145081%, 38.505554%, 77.862549%)" offset="0.539063"/><stop stop-opacity="1" stop-color="rgb(46.641541%, 38.591003%, 77.923584%)" offset="0.542969"/><stop stop-opacity="1" stop-color="rgb(46.139526%, 38.676453%, 77.984619%)" offset="0.546875"/><stop stop-opacity="1" stop-color="rgb(45.637512%, 38.761902%, 78.045654%)" offset="0.550781"/><stop stop-opacity="1" stop-color="rgb(45.135498%, 38.848877%, 78.108215%)" offset="0.554688"/><stop stop-opacity="1" stop-color="rgb(44.631958%, 38.934326%, 78.16925%)" offset="0.558594"/><stop stop-opacity="1" stop-color="rgb(44.129944%, 39.019775%, 78.230286%)" offset="0.5625"/><stop stop-opacity="1" stop-color="rgb(43.62793%, 39.105225%, 78.291321%)" offset="0.566406"/><stop stop-opacity="1" stop-color="rgb(43.125916%, 39.190674%, 78.353882%)" offset="0.570312"/><stop stop-opacity="1" stop-color="rgb(42.622375%, 39.276123%, 78.414917%)" offset="0.574219"/><stop stop-opacity="1" stop-color="rgb(42.120361%, 39.363098%, 78.475952%)" offset="0.578125"/><stop stop-opacity="1" stop-color="rgb(41.618347%, 39.448547%, 78.536987%)" offset="0.582031"/><stop stop-opacity="1" stop-color="rgb(41.116333%, 39.533997%, 78.598022%)" offset="0.585938"/><stop stop-opacity="1" stop-color="rgb(40.612793%, 39.619446%, 78.659058%)" offset="0.589844"/><stop stop-opacity="1" stop-color="rgb(40.110779%, 39.706421%, 78.721619%)" offset="0.59375"/><stop stop-opacity="1" stop-color="rgb(39.607239%, 39.79187%, 78.782654%)" offset="0.597656"/><stop stop-opacity="1" stop-color="rgb(39.105225%, 39.877319%, 78.843689%)" offset="0.601562"/><stop stop-opacity="1" stop-color="rgb(38.60321%, 39.962769%, 78.904724%)" offset="0.605469"/><stop stop-opacity="1" stop-color="rgb(38.101196%, 40.049744%, 78.967285%)" offset="0.609375"/><stop stop-opacity="1" stop-color="rgb(37.597656%, 40.135193%, 79.02832%)" offset="0.613281"/><stop stop-opacity="1" stop-color="rgb(37.095642%, 40.220642%, 79.089355%)" offset="0.617188"/><stop stop-opacity="1" stop-color="rgb(36.593628%, 40.306091%, 79.150391%)" offset="0.621094"/><stop stop-opacity="1" stop-color="rgb(36.091614%, 40.391541%, 79.212952%)" offset="0.625"/><stop stop-opacity="1" stop-color="rgb(35.588074%, 40.47699%, 79.273987%)" offset="0.628906"/><stop stop-opacity="1" stop-color="rgb(35.08606%, 40.563965%, 79.335022%)" offset="0.632812"/><stop stop-opacity="1" stop-color="rgb(34.584045%, 40.649414%, 79.396057%)" offset="0.636719"/><stop stop-opacity="1" stop-color="rgb(34.082031%, 40.734863%, 79.458618%)" offset="0.640625"/><stop stop-opacity="1" stop-color="rgb(33.578491%, 40.820312%, 79.519653%)" offset="0.644531"/><stop stop-opacity="1" stop-color="rgb(33.076477%, 40.907288%, 79.580688%)" offset="0.648438"/><stop stop-opacity="1" stop-color="rgb(32.574463%, 40.992737%, 79.641724%)" offset="0.652344"/><stop stop-opacity="1" stop-color="rgb(32.072449%, 41.078186%, 79.704285%)" offset="0.65625"/><stop stop-opacity="1" stop-color="rgb(31.568909%, 41.163635%, 79.76532%)" offset="0.660156"/><stop stop-opacity="1" stop-color="rgb(31.066895%, 41.249084%, 79.826355%)" offset="0.664062"/><stop stop-opacity="1" stop-color="rgb(30.56488%, 41.334534%, 79.88739%)" offset="0.667969"/><stop stop-opacity="1" stop-color="rgb(30.062866%, 41.421509%, 79.949951%)" offset="0.671875"/><stop stop-opacity="1" stop-color="rgb(29.559326%, 41.506958%, 80.010986%)" offset="0.675781"/><stop stop-opacity="1" stop-color="rgb(29.057312%, 41.592407%, 80.072021%)" offset="0.679688"/><stop stop-opacity="1" stop-color="rgb(28.555298%, 41.677856%, 80.133057%)" offset="0.683594"/><stop stop-opacity="1" stop-color="rgb(28.053284%, 41.764832%, 80.195618%)" offset="0.6875"/><stop stop-opacity="1" stop-color="rgb(27.549744%, 41.850281%, 80.256653%)" offset="0.691406"/><stop stop-opacity="1" stop-color="rgb(27.047729%, 41.93573%, 80.317688%)" offset="0.695312"/><stop stop-opacity="1" stop-color="rgb(26.544189%, 42.021179%, 80.378723%)" offset="0.699219"/><stop stop-opacity="1" stop-color="rgb(26.042175%, 42.108154%, 80.441284%)" offset="0.703125"/><stop stop-opacity="1" stop-color="rgb(25.540161%, 42.193604%, 80.502319%)" offset="0.707031"/><stop stop-opacity="1" stop-color="rgb(25.038147%, 42.279053%, 80.563354%)" offset="0.710937"/><stop stop-opacity="1" stop-color="rgb(24.534607%, 42.364502%, 80.62439%)" offset="0.714844"/><stop stop-opacity="1" stop-color="rgb(24.032593%, 42.449951%, 80.686951%)" offset="0.71875"/><stop stop-opacity="1" stop-color="rgb(23.530579%, 42.5354%, 80.747986%)" offset="0.722656"/><stop stop-opacity="1" stop-color="rgb(23.028564%, 42.622375%, 80.809021%)" offset="0.726562"/><stop stop-opacity="1" stop-color="rgb(22.525024%, 42.707825%, 80.870056%)" offset="0.730469"/><stop stop-opacity="1" stop-color="rgb(22.02301%, 42.793274%, 80.932617%)" offset="0.734375"/><stop stop-opacity="1" stop-color="rgb(21.520996%, 42.878723%, 80.993652%)" offset="0.738281"/><stop stop-opacity="1" stop-color="rgb(21.018982%, 42.965698%, 81.054688%)" offset="0.742188"/><stop stop-opacity="1" stop-color="rgb(20.515442%, 43.051147%, 81.115723%)" offset="0.746094"/><stop stop-opacity="1" stop-color="rgb(20.013428%, 43.136597%, 81.176758%)" offset="0.75"/><stop stop-opacity="1" stop-color="rgb(19.703674%, 43.058777%, 81.056213%)" offset="0.753906"/><stop stop-opacity="1" stop-color="rgb(19.395447%, 42.982483%, 80.937195%)" offset="0.757812"/><stop stop-opacity="1" stop-color="rgb(19.088745%, 42.901611%, 80.813599%)" offset="0.761719"/><stop stop-opacity="1" stop-color="rgb(18.782043%, 42.822266%, 80.691528%)" offset="0.765625"/><stop stop-opacity="1" stop-color="rgb(18.475342%, 42.74292%, 80.569458%)" offset="0.769531"/><stop stop-opacity="1" stop-color="rgb(18.170166%, 42.663574%, 80.447388%)" offset="0.773438"/><stop stop-opacity="1" stop-color="rgb(17.863464%, 42.584229%, 80.323792%)" offset="0.777344"/><stop stop-opacity="1" stop-color="rgb(17.556763%, 42.504883%, 80.201721%)" offset="0.78125"/><stop stop-opacity="1" stop-color="rgb(17.250061%, 42.424011%, 80.078125%)" offset="0.785156"/><stop stop-opacity="1" stop-color="rgb(16.944885%, 42.344666%, 79.956055%)" offset="0.789063"/><stop stop-opacity="1" stop-color="rgb(16.638184%, 42.26532%, 79.832458%)" offset="0.792969"/><stop stop-opacity="1" stop-color="rgb(16.331482%, 42.185974%, 79.710388%)" offset="0.796875"/><stop stop-opacity="1" stop-color="rgb(16.02478%, 42.105103%, 79.588318%)" offset="0.800781"/><stop stop-opacity="1" stop-color="rgb(15.719604%, 42.025757%, 79.466248%)" offset="0.804688"/><stop stop-opacity="1" stop-color="rgb(15.412903%, 41.946411%, 79.342651%)" offset="0.808594"/><stop stop-opacity="1" stop-color="rgb(15.106201%, 41.867065%, 79.220581%)" offset="0.8125"/><stop stop-opacity="1" stop-color="rgb(14.7995%, 41.786194%, 79.096985%)" offset="0.816406"/><stop stop-opacity="1" stop-color="rgb(14.494324%, 41.706848%, 78.974915%)" offset="0.820312"/><stop stop-opacity="1" stop-color="rgb(14.187622%, 41.627502%, 78.852844%)" offset="0.824219"/><stop stop-opacity="1" stop-color="rgb(13.88092%, 41.548157%, 78.730774%)" offset="0.828125"/><stop stop-opacity="1" stop-color="rgb(13.574219%, 41.467285%, 78.607178%)" offset="0.832031"/><stop stop-opacity="1" stop-color="rgb(13.267517%, 41.387939%, 78.485107%)" offset="0.835938"/><stop stop-opacity="1" stop-color="rgb(12.960815%, 41.308594%, 78.361511%)" offset="0.839844"/><stop stop-opacity="1" stop-color="rgb(12.65564%, 41.229248%, 78.239441%)" offset="0.84375"/><stop stop-opacity="1" stop-color="rgb(12.348938%, 41.149902%, 78.115845%)" offset="0.847656"/><stop stop-opacity="1" stop-color="rgb(12.042236%, 41.070557%, 77.993774%)" offset="0.851562"/><stop stop-opacity="1" stop-color="rgb(11.735535%, 40.989685%, 77.871704%)" offset="0.855469"/><stop stop-opacity="1" stop-color="rgb(11.430359%, 40.910339%, 77.749634%)" offset="0.859375"/><stop stop-opacity="1" stop-color="rgb(11.123657%, 40.830994%, 77.626038%)" offset="0.863281"/><stop stop-opacity="1" stop-color="rgb(10.816956%, 40.751648%, 77.503967%)" offset="0.867188"/><stop stop-opacity="1" stop-color="rgb(10.510254%, 40.670776%, 77.380371%)" offset="0.871094"/><stop stop-opacity="1" stop-color="rgb(10.205078%, 40.591431%, 77.258301%)" offset="0.875"/><stop stop-opacity="1" stop-color="rgb(9.898376%, 40.512085%, 77.134705%)" offset="0.878906"/><stop stop-opacity="1" stop-color="rgb(9.591675%, 40.432739%, 77.012634%)" offset="0.882812"/><stop stop-opacity="1" stop-color="rgb(9.284973%, 40.351868%, 76.890564%)" offset="0.886719"/><stop stop-opacity="1" stop-color="rgb(8.979797%, 40.272522%, 76.768494%)" offset="0.890625"/><stop stop-opacity="1" stop-color="rgb(8.673096%, 40.193176%, 76.644897%)" offset="0.894531"/><stop stop-opacity="1" stop-color="rgb(8.366394%, 40.113831%, 76.522827%)" offset="0.898438"/><stop stop-opacity="1" stop-color="rgb(8.059692%, 40.034485%, 76.399231%)" offset="0.902344"/><stop stop-opacity="1" stop-color="rgb(7.752991%, 39.955139%, 76.277161%)" offset="0.90625"/><stop stop-opacity="1" stop-color="rgb(7.446289%, 39.874268%, 76.153564%)" offset="0.910156"/><stop stop-opacity="1" stop-color="rgb(7.141113%, 39.794922%, 76.031494%)" offset="0.914062"/><stop stop-opacity="1" stop-color="rgb(6.834412%, 39.715576%, 75.909424%)" offset="0.917969"/><stop stop-opacity="1" stop-color="rgb(6.52771%, 39.63623%, 75.787354%)" offset="0.921875"/><stop stop-opacity="1" stop-color="rgb(6.221008%, 39.555359%, 75.663757%)" offset="0.925781"/><stop stop-opacity="1" stop-color="rgb(5.915833%, 39.476013%, 75.541687%)" offset="0.929688"/><stop stop-opacity="1" stop-color="rgb(5.609131%, 39.396667%, 75.418091%)" offset="0.933594"/><stop stop-opacity="1" stop-color="rgb(5.302429%, 39.317322%, 75.296021%)" offset="0.9375"/><stop stop-opacity="1" stop-color="rgb(4.995728%, 39.23645%, 75.172424%)" offset="0.941406"/><stop stop-opacity="1" stop-color="rgb(4.690552%, 39.157104%, 75.050354%)" offset="0.945312"/><stop stop-opacity="1" stop-color="rgb(4.38385%, 39.077759%, 74.928284%)" offset="0.949219"/><stop stop-opacity="1" stop-color="rgb(4.077148%, 38.998413%, 74.806213%)" offset="0.953125"/><stop stop-opacity="1" stop-color="rgb(3.770447%, 38.919067%, 74.682617%)" offset="0.957031"/><stop stop-opacity="1" stop-color="rgb(3.465271%, 38.839722%, 74.560547%)" offset="0.960937"/><stop stop-opacity="1" stop-color="rgb(3.158569%, 38.75885%, 74.436951%)" offset="0.964844"/><stop stop-opacity="1" stop-color="rgb(2.851868%, 38.679504%, 74.31488%)" offset="0.96875"/><stop stop-opacity="1" stop-color="rgb(2.545166%, 38.600159%, 74.191284%)" offset="0.972656"/><stop stop-opacity="1" stop-color="rgb(2.23999%, 38.520813%, 74.069214%)" offset="0.976562"/><stop stop-opacity="1" stop-color="rgb(1.933289%, 38.439941%, 73.947144%)" offset="0.980469"/><stop stop-opacity="1" stop-color="rgb(1.626587%, 38.360596%, 73.825073%)" offset="0.984375"/><stop stop-opacity="1" stop-color="rgb(1.319885%, 38.28125%, 73.701477%)" offset="0.988281"/><stop stop-opacity="1" stop-color="rgb(1.013184%, 38.201904%, 73.579407%)" offset="0.992188"/><stop stop-opacity="1" stop-color="rgb(0.706482%, 38.121033%, 73.455811%)" offset="0.996094"/><stop stop-opacity="1" stop-color="rgb(0.401306%, 38.041687%, 73.33374%)" offset="1"/></linearGradient><clipPath id="2b5ae24242"><path d="M 558.195312 896 L 928 896 L 928 1172.023438 L 558.195312 1172.023438 Z M 558.195312 896 " clip-rule="nonzero"/></clipPath><clipPath id="3285ce2073"><path d="M 694 1131 L 710 1131 L 710 1172.023438 L 694 1172.023438 Z M 694 1131 " clip-rule="nonzero"/></clipPath><clipPath id="19b471338a"><path d="M 673 612.558594 L 1226.398438 612.558594 L 1226.398438 1016 L 673 1016 Z M 673 612.558594 " clip-rule="nonzero"/></clipPath></defs><g clip-path="url(#18ff40ab83)"><g clip-path="url(#ac6325dd18)"><path stroke-linecap="butt" transform="matrix(0.74995, 0, 0, 0.74995, 388.706936, 388.766901)" fill="none" stroke-linejoin="miter" d="M 671.602596 -0.00170156 C 300.68702 -0.00170156 0.000126892 300.685192 0.000126892 671.600768 C 0.000126892 1042.516344 300.68702 1343.203237 671.602596 1343.203237 C 1042.518172 1343.203237 1343.205066 1042.516344 1343.205066 671.600768 C 1343.205066 300.685192 1042.518172 -0.00170156 671.602596 -0.00170156 Z M 671.602596 -0.00170156 " stroke="url(#18a50161ac)" stroke-width="80" stroke-miterlimit="4"/></g></g><path fill="#ffffff" d="M 633.78125 946.011719 C 674.246094 946.011719 707.164062 913.09375 707.164062 872.628906 C 707.164062 832.167969 674.246094 799.25 633.78125 799.25 C 593.320312 799.25 560.402344 832.167969 560.402344 872.628906 C 560.402344 913.09375 593.320312 946.011719 633.78125 946.011719 Z M 633.78125 814.390625 C 665.886719 814.390625 692.011719 840.515625 692.011719 872.628906 C 692.011719 904.738281 665.890625 930.863281 633.78125 930.863281 C 601.671875 930.863281 575.546875 904.738281 575.546875 872.628906 C 575.542969 840.515625 601.671875 814.390625 633.78125 814.390625 Z M 633.78125 814.390625 " fill-opacity="1" fill-rule="nonzero"/><g clip-path="url(#2b5ae24242)"><path fill="#ffffff" d="M 825.59375 1020.492188 L 925.371094 909.570312 C 926.726562 908.0625 927.414062 906.125 927.304688 904.101562 C 927.199219 902.082031 926.3125 900.226562 924.808594 898.878906 C 923.304688 897.519531 921.371094 896.832031 919.347656 896.9375 C 917.324219 897.042969 915.464844 897.929688 914.105469 899.441406 L 816.335938 1008.128906 L 813.339844 1006.003906 C 807.058594 1001.546875 799.671875 999.191406 791.976562 999.191406 C 788.078125 999.191406 784.226562 999.796875 780.511719 1001.003906 C 780.417969 1001.039062 780.324219 1001.070312 780.207031 1001.101562 L 708.765625 1024.753906 L 707.847656 1020.195312 C 704.921875 1005.699219 697.753906 992.550781 687.121094 982.179688 C 672.9375 968.328125 653.992188 960.703125 633.78125 960.703125 C 592.132812 960.703125 558.253906 994.585938 558.253906 1036.230469 L 558.253906 1164.546875 C 558.253906 1168.726562 561.648438 1172.125 565.828125 1172.125 C 570 1172.125 573.398438 1168.726562 573.398438 1164.546875 L 573.398438 1036.230469 C 573.398438 1002.9375 600.488281 975.847656 633.78125 975.847656 C 664.109375 975.847656 689.226562 997.03125 693.507812 1026.214844 L 694.011719 1029.640625 L 681.226562 1033.863281 C 677.269531 1035.183594 675.109375 1039.484375 676.417969 1043.449219 C 677.445312 1046.550781 680.332031 1048.636719 683.613281 1048.636719 C 684.417969 1048.636719 685.214844 1048.507812 685.984375 1048.25 L 703.933594 1042.3125 C 703.984375 1042.289062 704.042969 1042.269531 704.101562 1042.253906 L 785.800781 1015.210938 L 785.867188 1015.210938 L 785.933594 1015.191406 C 787.871094 1014.628906 789.902344 1014.347656 791.976562 1014.347656 C 804.039062 1014.347656 813.851562 1024.164062 813.851562 1036.230469 C 813.851562 1045.007812 808.644531 1052.902344 800.597656 1056.347656 L 800.292969 1056.523438 L 693.992188 1091.46875 L 693.933594 1091.484375 C 691.882812 1092.097656 689.757812 1092.410156 687.621094 1092.410156 C 682.238281 1092.410156 677.054688 1090.429688 673.035156 1086.839844 L 629.691406 1047.164062 C 626.613281 1044.347656 621.804688 1044.5625 618.972656 1047.640625 C 616.164062 1050.722656 616.382812 1055.523438 619.460938 1058.335938 L 662.566406 1097.804688 L 662.59375 1097.828125 C 662.695312 1097.90625 662.792969 1097.992188 662.886719 1098.078125 L 662.996094 1098.179688 C 663.082031 1098.246094 663.160156 1098.3125 663.25 1098.398438 C 670 1104.300781 678.652344 1107.550781 687.617188 1107.550781 C 691.257812 1107.550781 694.820312 1107.03125 698.203125 1106.011719 L 698.832031 1105.707031 L 699.1875 1105.707031 L 804.566406 1071.0625 C 804.84375 1070.964844 805.128906 1070.847656 805.441406 1070.707031 L 805.632812 1070.621094 L 805.832031 1070.550781 C 806.027344 1070.488281 806.226562 1070.414062 806.429688 1070.335938 C 820.140625 1064.507812 829 1051.121094 829 1036.230469 C 829 1031.628906 828.160156 1027.128906 826.503906 1022.855469 Z M 825.59375 1020.492188 " fill-opacity="1" fill-rule="nonzero"/></g><g clip-path="url(#3285ce2073)"><path fill="#ffffff" d="M 701.726562 1131.304688 C 697.550781 1131.304688 694.15625 1134.703125 694.15625 1138.882812 L 694.15625 1164.722656 C 694.15625 1168.898438 697.550781 1172.300781 701.726562 1172.300781 C 705.90625 1172.300781 709.3125 1168.898438 709.3125 1164.722656 L 709.3125 1138.882812 C 709.3125 1134.703125 705.910156 1131.304688 701.726562 1131.304688 Z M 701.726562 1131.304688 " fill-opacity="1" fill-rule="nonzero"/></g><g clip-path="url(#19b471338a)"><path fill="#ffffff" d="M 1218.929688 612.550781 L 681.347656 612.550781 C 677.167969 612.550781 673.769531 615.945312 673.769531 620.128906 L 673.769531 769.511719 C 673.769531 773.691406 677.167969 777.089844 681.347656 777.089844 C 685.527344 777.089844 688.921875 773.691406 688.921875 769.511719 L 688.921875 627.703125 L 1211.351562 627.703125 L 1211.351562 1000.078125 L 898.378906 1000.078125 C 894.203125 1000.078125 890.800781 1003.476562 890.800781 1007.65625 C 890.800781 1011.835938 894.199219 1015.234375 898.378906 1015.234375 L 1218.929688 1015.234375 C 1223.105469 1015.234375 1226.503906 1011.835938 1226.503906 1007.65625 C 1226.503906 1007.65625 1226.503906 621.207031 1226.503906 620.128906 C 1226.503906 615.945312 1223.109375 612.550781 1218.929688 612.550781 Z M 1218.929688 612.550781 " fill-opacity="1" fill-rule="nonzero"/></g><path fill="#ffffff" d="M 785.839844 780.386719 C 783.519531 777.8125 782.265625 774.78125 782.210938 771.625 C 782.132812 767.226562 778.484375 763.648438 774.058594 763.648438 L 773.957031 763.648438 C 771.789062 763.683594 769.761719 764.5625 768.257812 766.125 C 766.75 767.683594 765.941406 769.734375 765.980469 771.902344 C 766.058594 776.394531 767.164062 780.71875 769.273438 784.761719 C 771.253906 788.558594 774.023438 791.921875 777.503906 794.765625 C 781.769531 798.253906 786.9375 800.78125 792.523438 802.121094 L 792.628906 808.039062 C 792.703125 812.4375 796.34375 816.015625 800.75 816.015625 L 800.765625 816.015625 L 800.882812 816.011719 C 803.050781 815.976562 805.074219 815.097656 806.582031 813.535156 C 808.085938 811.976562 808.898438 809.925781 808.859375 807.753906 L 808.773438 802.707031 C 816.007812 801.539062 822.570312 798.515625 827.835938 793.902344 C 831.21875 790.9375 833.867188 787.480469 835.714844 783.617188 C 837.683594 779.507812 838.640625 775.148438 838.566406 770.65625 C 838.378906 759.867188 832.113281 749.992188 821.808594 744.246094 C 820.894531 743.734375 816.175781 741.234375 808.746094 739.582031 L 808.746094 714.238281 C 810.648438 714.929688 812.394531 715.910156 813.875 717.117188 C 816.8125 719.519531 818.460938 722.628906 818.515625 725.882812 C 818.589844 730.28125 822.242188 733.859375 826.671875 733.859375 L 826.769531 733.859375 C 831.246094 733.78125 834.820312 730.078125 834.746094 725.605469 C 834.605469 717.496094 830.84375 710.019531 824.148438 704.546875 C 819.898438 701.074219 814.730469 698.664062 809.125 697.53125 L 809.027344 692.03125 C 808.953125 687.628906 805.304688 684.050781 800.875 684.050781 L 800.773438 684.050781 C 796.300781 684.128906 792.722656 687.832031 792.796875 692.308594 L 792.890625 697.804688 C 787.328125 699.132812 782.246094 701.71875 778.121094 705.332031 C 771.617188 711.03125 768.109375 718.632812 768.25 726.742188 C 768.382812 734.65625 771.992188 742.003906 778.398438 747.421875 L 778.496094 747.503906 C 782.085938 750.484375 786.695312 752.433594 792.917969 753.597656 L 792.917969 785.246094 C 790.113281 784.101562 787.691406 782.445312 785.839844 780.386719 Z M 784.480469 726.464844 C 784.425781 723.210938 785.964844 720.046875 788.816406 717.546875 C 790.03125 716.484375 791.402344 715.59375 792.917969 714.890625 L 792.917969 736.9375 C 791.136719 736.414062 789.785156 735.777344 788.878906 735.027344 L 788.867188 735.019531 C 786.089844 732.652344 784.53125 729.617188 784.480469 726.464844 Z M 813.898438 758.421875 C 819.09375 761.320312 822.246094 766 822.328125 770.9375 C 822.445312 777.753906 816.839844 783.894531 808.742188 786.121094 L 808.742188 756.363281 C 811.996094 757.375 813.808594 758.375 813.898438 758.421875 Z M 813.898438 758.421875 " fill-opacity="1" fill-rule="nonzero"/><path fill="#ffffff" d="M 761.273438 951.578125 C 761.253906 953.550781 762 955.410156 763.378906 956.816406 C 764.777344 958.246094 766.652344 959.03125 768.652344 959.03125 C 770.59375 959.03125 772.429688 958.285156 773.816406 956.925781 L 906.199219 827.28125 L 940.335938 862.550781 C 941.710938 863.972656 943.554688 864.769531 945.527344 864.796875 C 945.570312 864.796875 945.605469 864.796875 945.644531 864.796875 C 947.578125 864.796875 949.398438 864.054688 950.789062 862.703125 L 1082.859375 734.152344 C 1085.75 731.292969 1085.773438 726.609375 1082.910156 723.71875 L 1060.230469 700.8125 L 1121.511719 686.136719 L 1103.042969 759.984375 C 1102.058594 763.933594 1104.464844 767.945312 1108.414062 768.933594 C 1109.003906 769.082031 1109.605469 769.15625 1110.207031 769.15625 C 1113.597656 769.15625 1116.539062 766.859375 1117.363281 763.566406 L 1138.777344 677.917969 C 1139.402344 675.429688 1138.667969 672.753906 1136.863281 670.933594 C 1135.058594 669.113281 1132.390625 668.351562 1129.898438 668.949219 L 1044.042969 689.515625 C 1041.453125 690.132812 1039.390625 692.109375 1038.664062 694.667969 C 1037.933594 697.226562 1038.640625 699.992188 1040.515625 701.882812 L 1067.125 728.757812 L 945.789062 846.96875 L 911.636719 811.6875 C 910.28125 810.285156 908.386719 809.464844 906.433594 809.4375 C 904.492188 809.414062 902.566406 810.179688 901.171875 811.542969 L 763.488281 946.382812 C 762.078125 947.761719 761.292969 949.605469 761.273438 951.578125 Z M 761.273438 951.578125 " fill-opacity="1" fill-rule="nonzero"/><path fill="#ffffff" d="M 995.300781 961.664062 C 999.371094 961.664062 1002.679688 958.355469 1002.679688 954.300781 L 1002.925781 925.0625 C 1002.925781 920.992188 999.617188 917.683594 995.546875 917.683594 L 950.628906 917.683594 C 946.558594 917.683594 943.246094 920.992188 943.246094 925.046875 L 943.003906 954.28125 C 943.003906 958.351562 946.3125 961.660156 950.382812 961.660156 C 954.453125 961.660156 957.761719 958.351562 957.761719 954.304688 L 957.984375 932.441406 L 988.144531 932.441406 L 987.921875 954.285156 C 987.921875 958.355469 991.230469 961.664062 995.300781 961.664062 Z M 995.300781 961.664062 " fill-opacity="1" fill-rule="nonzero"/><path fill="#ffffff" d="M 1069.976562 961.664062 C 1074.046875 961.664062 1077.355469 958.355469 1077.355469 954.292969 L 1077.601562 878.1875 C 1077.601562 874.117188 1074.292969 870.804688 1070.222656 870.804688 L 1025.304688 870.804688 C 1021.234375 870.804688 1017.921875 874.117188 1017.921875 878.179688 L 1017.679688 954.285156 C 1017.679688 958.355469 1020.988281 961.664062 1025.058594 961.664062 C 1029.128906 961.664062 1032.4375 958.355469 1032.4375 954.292969 L 1032.675781 885.5625 L 1062.835938 885.5625 L 1062.597656 954.285156 C 1062.597656 958.355469 1065.90625 961.664062 1069.976562 961.664062 Z M 1069.976562 961.664062 " fill-opacity="1" fill-rule="nonzero"/><path fill="#ffffff" d="M 1145.140625 961.664062 C 1149.210938 961.664062 1152.523438 958.355469 1152.523438 954.289062 L 1152.765625 814.269531 C 1152.765625 810.203125 1149.457031 806.890625 1145.386719 806.890625 L 1100.464844 806.890625 C 1096.398438 806.890625 1093.085938 810.203125 1093.085938 814.265625 L 1092.839844 954.285156 C 1092.839844 958.355469 1096.152344 961.664062 1100.222656 961.664062 C 1104.292969 961.664062 1107.601562 958.355469 1107.601562 954.289062 L 1107.839844 821.652344 L 1138 821.652344 L 1137.761719 954.285156 C 1137.761719 958.355469 1141.070312 961.664062 1145.140625 961.664062 Z M 1145.140625 961.664062 " fill-opacity="1" fill-rule="nonzero"/></svg>