<svg xmlns="http://www.w3.org/2000/svg" viewBox="0 0 1784.88 1785"><defs><clipPath id="a"><path d="M388.707 388.766h1007.184v1007.183H388.707Zm0 0"/></clipPath><clipPath id="b"><path d="M892.375 388.766c-278.168 0-503.668 225.5-503.668 503.668s225.5 503.668 503.668 503.668 503.668-225.5 503.668-503.668-225.5-503.668-503.668-503.668m0 0"/></clipPath><clipPath id="d"><path d="M579.254 566H1205v626H579.254Zm0 0"/></clipPath><clipPath id="e"><path d="M579.254 565.816h626.207v626.207H579.254Zm0 0"/></clipPath><linearGradient id="c" x1="0" x2="1" y1="0" y2="1" gradientTransform="rotate(115)"><stop offset="0%" stop-color="#e39297"/><stop offset="40%" stop-color="#c671af"/><stop offset="70%" stop-color="#8561c5"/><stop offset="100%" stop-color="#336fcf"/></linearGradient></defs><g clip-path="url(#a)"><g clip-path="url(#b)"><path fill="none" stroke="url(#c)" stroke-width="80" d="M671.603-.002C300.687-.002 0 300.685 0 671.601s300.687 671.602 671.603 671.602 671.602-300.687 671.602-671.602c0-370.916-300.687-671.603-671.602-671.603Zm0 0" transform="translate(388.707 388.767)scale(.74995)"/></g></g><g clip-path="url(#d)"><path fill="#fff" d="M802.871 1079.594c5.559-1.11 9.594-6.012 9.594-11.66v-22.41c0-5.665-4.035-10.583-9.567-11.688l-11.511-2.344a81 81 0 0 0-4.692-11.3l6.43-9.755c3.188-4.714 2.582-11.046-1.434-15.058l-15.847-15.852c-4.008-4.007-10.14-4.652-14.985-1.515l-9.828 6.5a80 80 0 0 0-11.316-4.7l-2.36-11.5c-1.109-5.539-6.011-9.554-11.66-9.554h-22.41c-5.637 0-10.535 4.004-11.652 9.527l-2.367 11.528a79.6 79.6 0 0 0-11.317 4.699l-9.902-6.551c-4.77-3.086-10.902-2.441-14.91 1.566l-15.848 15.848c-.035.04-.074.074-.11.113-3.956 4.098-4.5 10.246-1.378 14.86l6.484 9.843a81.4 81.4 0 0 0-4.691 11.301l-11.48 2.336c-5.54 1.11-9.56 6.027-9.56 11.695v22.41c0 5.653 4.02 10.555 9.509 11.653l11.53 2.371a82 82 0 0 0 4.696 11.297l-6.434 9.734c-3.183 4.711-2.582 11.043 1.434 15.059l15.852 15.851c4.027 4.028 10.363 4.641 14.968 1.524l9.848-6.492a80.4 80.4 0 0 0 11.309 4.683l2.359 11.5c1.11 5.535 6.012 9.555 11.66 9.555h22.41c5.649 0 10.551-4.02 11.653-9.516l2.367-11.539a80 80 0 0 0 11.308-4.683l9.758 6.433c4.7 3.176 11.032 2.563 15.063-1.468l15.812-15.813c4.07-4 4.692-10.328 1.52-15.016l-6.48-9.812a82 82 0 0 0 4.695-11.3Zm-20.266-13.918a8.86 8.86 0 0 0-6.796 6.488 64.2 64.2 0 0 1-7.055 16.98 8.86 8.86 0 0 0 .215 9.418l6.828 10.333-9.133 9.132-10.351-6.824a8.85 8.85 0 0 0-9.41-.21 62.8 62.8 0 0 1-16.938 7.007 8.87 8.87 0 0 0-6.528 6.813l-2.488 12.144h-12.914l-2.492-12.145a8.86 8.86 0 0 0-6.527-6.812 62.8 62.8 0 0 1-16.938-7.008 8.85 8.85 0 0 0-9.41.211l-10.352 6.824-9.132-9.132 6.828-10.332a8.86 8.86 0 0 0 .218-9.418 64 64 0 0 1-7.058-16.98 8.86 8.86 0 0 0-6.797-6.49l-12.11-2.487v-12.942l12.09-2.46a8.85 8.85 0 0 0 6.817-6.49c1.539-6.026 3.91-11.73 7.047-16.956a8.87 8.87 0 0 0-.203-9.434l-6.836-10.37 9.133-9.134 10.343 6.848a8.87 8.87 0 0 0 9.457.2 61.8 61.8 0 0 1 16.903-7.028 8.85 8.85 0 0 0 6.527-6.813l2.492-12.14h12.914l2.489 12.14a8.86 8.86 0 0 0 6.527 6.813 61.9 61.9 0 0 1 16.906 7.027 8.87 8.87 0 0 0 9.457-.199l10.344-6.848 9.129 9.133-6.836 10.371a8.86 8.86 0 0 0-.2 9.434c3.137 5.226 5.505 10.93 7.044 16.957a8.85 8.85 0 0 0 6.816 6.488l12.129 2.469v12.926Zm-68.097-53.781c-24.711 0-44.817 20.105-44.817 44.816 0 24.715 20.106 44.82 44.817 44.82 24.695 0 44.785-20.105 44.785-44.82 0-24.711-20.09-44.816-44.785-44.816m0 71.925c-14.946 0-27.106-12.16-27.106-27.11 0-14.944 12.16-27.105 27.106-27.105 14.926 0 27.07 12.16 27.07 27.106 0 14.95-12.144 27.11-27.07 27.11m451.078-122.289c52.484 52.48 52.488 137.91.004 190.434-26.258 26.258-60.75 39.387-95.238 39.387-34.493 0-68.98-13.13-95.239-39.387l-25.191-25.215 1.312 6.664a8.86 8.86 0 0 1-8.699 10.57 8.85 8.85 0 0 1-8.676-7.144l-6.957-35.242v-.008a9 9 0 0 1-.132-.977c-.008-.097-.008-.199-.016-.3-.008-.227-.016-.454-.008-.676a8 8 0 0 1 .09-1.016c.012-.098.023-.2.043-.297.055-.312.121-.62.21-.926q-.001-.006.005-.007.141-.481.336-.946c.027-.062.058-.12.086-.183q.159-.353.347-.7l.153-.253q.179-.299.382-.579l.2-.273q.211-.263.441-.52c.059-.062.106-.128.164-.19l.063-.06.066-.07q.3-.297.621-.558c.016-.016.027-.032.047-.043.258-.215.531-.407.809-.586l.207-.121a9 9 0 0 1 .664-.368l.261-.12q.322-.145.657-.266.138-.05.277-.098c.242-.074.48-.14.727-.195q.11-.031.226-.055.474-.098.953-.145l.227-.007a8 8 0 0 1 .746-.02q.17.002.34.016.338.017.672.062c.062.008.125.008.187.02l35.461 5.52a8.856 8.856 0 0 1 7.387 10.113c-.75 4.832-5.278 8.148-10.114 7.386l-8.664-1.347 26.618 26.64c45.605 45.606 119.816 45.606 165.422-.004 45.582-45.613 45.582-119.808 0-165.386-45.606-45.61-119.817-45.61-165.422 0l-88.957 88.957-88.957 88.953c-25.325 25.344-59.137 39.3-95.204 39.3-36.07 0-69.89-13.956-95.23-39.3-52.488-52.524-52.488-137.95 0-190.434 25.34-25.343 59.16-39.3 95.23-39.3 36.067 0 69.88 13.957 95.207 39.3l25.227 25.211-1.312-6.656c-.95-4.797 2.171-9.457 6.972-10.406 4.797-.946 9.457 2.175 10.403 6.972l6.957 35.211q.092.488.132.98c.008.098.008.196.012.298q.018.34.012.68-.005.174-.016.343a7 7 0 0 1-.074.668c-.012.102-.023.2-.043.297a9 9 0 0 1-.21.933v.004c-.095.32-.212.633-.34.946-.028.062-.06.12-.087.183a9 9 0 0 1-.347.696c-.047.086-.102.172-.153.257a8 8 0 0 1-.379.575 7 7 0 0 1-.64.793c-.055.062-.106.132-.164.195l-.07.066c-.02.02-.036.04-.06.063-.081.082-.171.156-.257.234q-.169.16-.344.309a6 6 0 0 1-.402.308c-.102.075-.195.153-.297.22-.168.112-.34.214-.512.316-.078.043-.152.093-.234.136q-.293.157-.598.29-.094.047-.187.09-.328.132-.657.241c-.058.016-.113.04-.167.059a9 9 0 0 1-.692.176c-.055.011-.11.027-.164.039q-.376.076-.758.117l-.11.016a9 9 0 0 1-2.109-.051l-.128-.008-35.496-5.488a8.854 8.854 0 0 1-7.399-10.102c.746-4.836 5.277-8.144 10.106-7.402l8.71 1.347-26.652-26.628c-21.984-22.004-51.344-34.118-82.68-34.118-31.34 0-60.71 12.118-82.707 34.114-45.582 45.582-45.582 119.773 0 165.39 21.996 21.996 51.368 34.11 82.707 34.11 31.336 0 60.696-12.114 82.676-34.11l88.961-88.957 88.953-88.957c52.516-52.515 137.961-52.515 190.473 0m-183.613 72.371c-5.54 1.106-9.559 6.008-9.559 11.66v22.407c0 5.652 4.02 10.554 9.516 11.652l11.539 2.367a80 80 0 0 0 4.683 11.309l-6.535 9.91c-3.086 4.773-2.441 10.906 1.57 14.91l15.848 15.848c4.016 4.02 10.352 4.62 14.969 1.492l9.84-6.484a81 81 0 0 0 11.308 4.695l2.332 11.477c1.114 5.558 6.032 9.593 11.7 9.593h22.37c5.653 0 10.56-4.011 11.688-9.55l2.371-11.524a82 82 0 0 0 11.301-4.695l9.727 6.43c4.71 3.187 11.046 2.585 15.062-1.434l15.848-15.848c4.031-4.027 4.648-10.363 1.527-14.969l-6.492-9.851a80 80 0 0 0 4.684-11.309l11.496-2.36c5.539-1.105 9.558-6.007 9.558-11.66v-22.406c0-5.652-4.02-10.554-9.515-11.652l-11.54-2.367a80 80 0 0 0-4.683-11.309l6.43-9.757c3.183-4.7 2.566-11.036-1.465-15.063l-15.848-15.848q-.054-.058-.11-.109c-4.1-3.96-10.25-4.504-14.87-1.379l-9.809 6.485a82 82 0 0 0-11.3-4.696l-2.364-11.48c-1.105-5.54-6.023-9.559-11.695-9.559h-22.371c-5.672 0-10.59 4.02-11.692 9.527l-2.34 11.508a81 81 0 0 0-11.308 4.696l-9.75-6.426c-4.703-3.184-10.852-2.637-14.953 1.324q-.053.051-.106.11l-15.847 15.843c-4.012 4.012-4.657 10.14-1.528 14.973l6.492 9.851a80 80 0 0 0-4.683 11.309Zm20.293 13.918a8.85 8.85 0 0 0 6.812-6.527 62.8 62.8 0 0 1 7.012-16.941 8.86 8.86 0 0 0-.211-9.407l-6.824-10.351 9.136-9.137 10.375 6.836a8.87 8.87 0 0 0 9.43.2 63 63 0 0 1 16.95-7.044 8.85 8.85 0 0 0 6.495-6.816l2.461-12.094h12.942l2.492 12.11c.68 3.32 3.2 5.96 6.484 6.8a64.2 64.2 0 0 1 16.98 7.055 8.85 8.85 0 0 0 9.419-.219l10.332-6.828 9.133 9.137-6.825 10.351a8.85 8.85 0 0 0-.21 9.41 62.8 62.8 0 0 1 7.011 16.934 8.85 8.85 0 0 0 6.809 6.531l12.144 2.489v12.914l-12.144 2.488a8.86 8.86 0 0 0-6.809 6.531 62.8 62.8 0 0 1-7.012 16.938 8.85 8.85 0 0 0 .211 9.41l6.825 10.348-9.133 9.136-10.332-6.828a8.85 8.85 0 0 0-9.418-.219 64 64 0 0 1-16.98 7.055 8.86 8.86 0 0 0-6.485 6.8l-2.496 12.145h-12.93l-2.469-12.129a8.85 8.85 0 0 0-6.496-6.816 63 63 0 0 1-16.949-7.043 8.85 8.85 0 0 0-9.43.2l-10.375 6.84-9.136-9.138 6.824-10.351a8.87 8.87 0 0 0 .21-9.41 62.8 62.8 0 0 1-7.01-16.938 8.85 8.85 0 0 0-6.813-6.527l-12.141-2.492v-12.914Zm68.101 53.746c24.715 0 44.82-20.09 44.82-44.78 0-24.716-20.105-44.821-44.82-44.821-24.71 0-44.816 20.105-44.816 44.82 0 24.692 20.105 44.781 44.816 44.781m0-71.89c14.95 0 27.11 12.16 27.11 27.11 0 14.925-12.16 27.07-27.11 27.07-14.945 0-27.105-12.145-27.105-27.07 0-14.95 12.16-27.11 27.105-27.11m-12.082-298.528h-33.379c-4.89 0-8.86-3.964-8.86-8.855 0-4.89 3.97-8.856 8.86-8.856h33.38a8.856 8.856 0 0 1 0 17.711m-255.574-79.847a8.84 8.84 0 0 1-6.262-2.594l-23.594-23.594a8.86 8.86 0 0 1 0-12.523 8.86 8.86 0 0 1 12.528 0l23.59 23.594a8.85 8.85 0 0 1 0 12.523 8.84 8.84 0 0 1-6.262 2.594m-42.738 79.847H726.59a8.856 8.856 0 0 1 0-17.71h33.383a8.856 8.856 0 0 1 0 17.71m252.047-106.035-23.594 23.594a8.83 8.83 0 0 1-6.262 2.594 8.858 8.858 0 0 1-6.262-15.117l23.594-23.594a8.86 8.86 0 0 1 12.524 0 8.85 8.85 0 0 1 0 12.523m-119.598-7.625a8.856 8.856 0 0 1-8.856-8.855v-33.38a8.856 8.856 0 1 1 17.711.001v33.379a8.856 8.856 0 0 1-8.855 8.855m86.617 191.754c12.027-18.215 24.461-37.05 24.461-69.808 0-61.23-49.828-111.043-111.078-111.043-61.23 0-111.043 49.812-111.043 111.043 0 32.757 12.433 51.593 24.46 69.808 7.114 10.781 14.473 21.93 19.684 36.48l.637 1.805c-5.91 4.891-9.68 12.27-9.68 20.516 0 12.918 9.254 23.707 21.489 26.125.226 29.84 24.562 54.047 54.453 54.047 29.91 0 54.262-24.207 54.488-54.047 12.211-2.422 21.45-13.211 21.45-26.125 0-8.238-3.762-15.613-9.653-20.504l.64-1.789c5.22-14.582 12.575-25.727 19.692-36.508m-86.617 121.262c-19.953 0-36.23-15.984-36.73-35.82h73.492c-.496 19.836-16.793 35.82-36.762 35.82m49.3-53.531h-98.566c-4.941 0-8.965-4.008-8.965-8.93s4.024-8.93 8.965-8.93h98.567c4.922 0 8.925 4.008 8.925 8.93s-4.003 8.93-8.925 8.93m-74.077-118.325h-8.426c-4.645 0-8.426-3.777-8.426-8.425 0-4.645 3.781-8.426 8.426-8.426 4.648 0 8.426 3.781 8.426 8.426Zm17.71 17.715h14.165v65.04h-14.165Zm56.368 65.04H917.23v-65.04h8.43c14.41 0 26.137-11.726 26.137-26.14 0-14.41-11.727-26.137-26.137-26.137-14.414 0-26.14 11.726-26.14 26.137v8.425h-14.165v-8.425c0-14.41-11.722-26.137-26.136-26.137-14.41 0-26.137 11.726-26.137 26.137 0 14.414 11.727 26.14 26.137 26.14h8.426v65.04h-24.489c-.125 0-.242.015-.367.019l-.582-1.64c-5.937-16.59-13.894-28.641-21.586-40.298-11.555-17.5-21.531-32.613-21.531-60.05 0-51.465 41.867-93.332 93.332-93.332 51.48 0 93.367 41.867 93.367 93.332 0 27.437-9.98 42.55-21.531 60.05-7.696 11.657-15.649 23.707-21.586 40.293l-.59 1.645c-.121-.004-.238-.02-.36-.02m-24.493-82.755v-8.425c0-4.645 3.782-8.426 8.43-8.426 4.645 0 8.426 3.781 8.426 8.426 0 4.648-3.781 8.425-8.426 8.425Zm144.282 134.457V826.91l-14.973 17.883a8.856 8.856 0 0 1-12.476 1.105c-3.75-3.14-4.243-8.726-1.106-12.476l30.578-36.516v-.004l.043-.05c.04-.047.086-.09.129-.137q.23-.265.477-.512.125-.116.25-.226a8 8 0 0 1 .445-.38c.09-.074.184-.14.277-.21q.235-.17.48-.328.14-.09.286-.172c.176-.102.351-.196.535-.29.094-.042.184-.09.273-.128.2-.09.399-.168.606-.242.082-.032.168-.067.254-.094a7 7 0 0 1 .664-.188l.234-.062a9 9 0 0 1 .719-.117c.074-.012.14-.028.211-.036a10 10 0 0 1 .95-.05c.323 0 .64.02.948.05.075.008.141.024.211.036.246.03.485.066.723.117l.234.062c.227.055.45.114.664.188.086.027.168.062.254.094.203.074.407.152.602.242.094.039.184.086.277.129q.271.138.535.289.146.082.286.172.244.157.476.328c.098.07.192.136.281.21q.23.182.442.38.131.11.25.226.252.247.48.512l.13.137.038.05h.004l30.574 36.52c3.141 3.75 2.649 9.336-1.101 12.476a8.84 8.84 0 0 1-5.684 2.067 8.82 8.82 0 0 1-6.793-3.172l-14.972-17.883v66.195c0 4.891-3.97 8.856-8.86 8.856a8.856 8.856 0 0 1-8.855-8.856m-355.86 0v-66.218l-15.011 17.91a8.84 8.84 0 0 1-6.793 3.168 8.82 8.82 0 0 1-5.684-2.07 8.853 8.853 0 0 1-1.098-12.477l30.61-36.516.047-.054c.039-.051.09-.094.132-.141q.223-.264.47-.504c.081-.082.171-.156.253-.23.145-.13.29-.258.438-.375.093-.075.191-.145.285-.215q.233-.168.472-.324l.29-.176a8 8 0 0 1 .535-.281q.136-.072.277-.137.293-.128.598-.238c.086-.032.172-.067.257-.094.215-.074.438-.133.66-.188l.239-.062c.234-.051.476-.086.719-.117.07-.012.14-.028.21-.032q.47-.053.95-.054h.004c.008 0 .015.004.023.004q.47-.001.922.05c.074.008.145.024.219.032q.363.045.715.12c.082.016.16.04.242.063q.333.08.656.184c.086.027.172.062.258.094a8 8 0 0 1 .875.375 8.7 8.7 0 0 1 1.297.785c.093.07.191.136.281.21q.226.184.441.38.128.11.25.226c.168.164.325.336.48.512.04.047.087.09.126.137l.043.05s.004 0 .004.004l30.574 36.516c3.14 3.75 2.644 9.336-1.106 12.476a8.85 8.85 0 0 1-12.472-1.105l-14.977-17.883v66.195a8.856 8.856 0 0 1-17.71 0m0 0"/></g><g clip-path="url(#e)"><path fill="none" stroke="#000" stroke-miterlimit="10" stroke-width="1.265" d="M802.871 1079.594c5.559-1.11 9.594-6.012 9.594-11.66v-22.41c0-5.665-4.035-10.583-9.567-11.688l-11.511-2.344a81 81 0 0 0-4.692-11.3l6.43-9.754c3.188-4.715 2.582-11.047-1.434-15.06l-15.847-15.85c-4.008-4.008-10.14-4.653-14.985-1.516l-9.828 6.5a80 80 0 0 0-11.316-4.7l-2.36-11.5c-1.109-5.539-6.011-9.554-11.66-9.554h-22.41c-5.637 0-10.535 4.004-11.652 9.527l-2.367 11.528a79.6 79.6 0 0 0-11.317 4.699l-9.902-6.551c-4.77-3.086-10.902-2.441-14.91 1.566l-15.848 15.848c-.035.04-.074.074-.11.113-3.956 4.098-4.5 10.246-1.378 14.86l6.484 9.843a81.4 81.4 0 0 0-4.691 11.301l-11.48 2.336c-5.54 1.11-9.56 6.028-9.56 11.695v22.41c0 5.653 4.02 10.555 9.509 11.653l11.53 2.371a82 82 0 0 0 4.696 11.297l-6.434 9.734c-3.183 4.711-2.582 11.043 1.434 15.059l15.852 15.851c4.027 4.028 10.363 4.641 14.968 1.524l9.848-6.492a80.4 80.4 0 0 0 11.309 4.683l2.359 11.5c1.11 5.535 6.012 9.555 11.66 9.555h22.41c5.649 0 10.551-4.02 11.653-9.516l2.367-11.539a80 80 0 0 0 11.308-4.683l9.758 6.433c4.7 3.176 11.032 2.563 15.063-1.468l15.812-15.813c4.07-4 4.692-10.328 1.52-15.016l-6.48-9.812a82 82 0 0 0 4.695-11.3Zm-20.266-13.918a8.86 8.86 0 0 0-6.796 6.488 64.2 64.2 0 0 1-7.055 16.98 8.86 8.86 0 0 0 .215 9.419l6.828 10.332-9.133 9.132-10.351-6.824a8.85 8.85 0 0 0-9.41-.21 62.8 62.8 0 0 1-16.938 7.007 8.87 8.87 0 0 0-6.527 6.813l-2.489 12.144h-12.914l-2.492-12.144a8.86 8.86 0 0 0-6.527-6.813 62.8 62.8 0 0 1-16.938-7.008 8.85 8.85 0 0 0-9.41.211l-10.352 6.824-9.132-9.132 6.828-10.332a8.86 8.86 0 0 0 .218-9.418 64 64 0 0 1-7.058-16.98 8.86 8.86 0 0 0-6.797-6.49l-12.11-2.487v-12.942l12.09-2.46a8.85 8.85 0 0 0 6.817-6.49c1.539-6.026 3.91-11.73 7.047-16.956a8.87 8.87 0 0 0-.203-9.434l-6.836-10.37 9.133-9.134 10.343 6.848a8.87 8.87 0 0 0 9.457.2 61.8 61.8 0 0 1 16.903-7.028 8.85 8.85 0 0 0 6.527-6.813l2.492-12.14h12.914l2.489 12.14a8.86 8.86 0 0 0 6.527 6.813 61.9 61.9 0 0 1 16.906 7.027 8.87 8.87 0 0 0 9.457-.199l10.344-6.848 9.129 9.133-6.836 10.371a8.86 8.86 0 0 0-.2 9.434c3.137 5.226 5.505 10.93 7.044 16.957a8.85 8.85 0 0 0 6.816 6.488l12.129 2.469v12.926Zm-68.097-53.781c-24.711 0-44.817 20.105-44.817 44.816 0 24.715 20.106 44.82 44.817 44.82 24.695 0 44.785-20.105 44.785-44.82 0-24.711-20.09-44.816-44.785-44.816Zm0 71.925c-14.945 0-27.106-12.16-27.106-27.109 0-14.945 12.16-27.105 27.106-27.105 14.926 0 27.07 12.16 27.07 27.105 0 14.95-12.144 27.11-27.07 27.11Zm451.078-122.289c52.484 52.48 52.488 137.91.004 190.434-26.258 26.258-60.75 39.387-95.238 39.387-34.493 0-68.98-13.13-95.239-39.387l-25.191-25.215 1.312 6.664a8.86 8.86 0 0 1-8.699 10.57 8.85 8.85 0 0 1-8.676-7.144l-6.957-35.242v-.008a9 9 0 0 1-.132-.977c-.008-.097-.008-.199-.016-.3-.008-.227-.016-.454-.008-.676a8 8 0 0 1 .09-1.016c.012-.098.023-.2.043-.297.055-.312.121-.62.21-.926q-.001-.006.005-.007.142-.481.336-.946c.027-.062.058-.12.086-.183q.159-.353.347-.7l.153-.253q.179-.299.382-.578.1-.14.2-.274.212-.263.441-.52c.059-.062.106-.128.164-.19l.063-.06.066-.07q.3-.297.621-.558c.016-.016.028-.032.047-.043.258-.215.531-.407.809-.586l.207-.121a9 9 0 0 1 .664-.368l.261-.12q.322-.145.657-.266.138-.05.277-.098c.242-.074.48-.14.727-.195q.11-.031.226-.055.474-.098.953-.144l.227-.008a8 8 0 0 1 1.086-.004q.338.017.672.062c.062.008.125.008.187.02l35.461 5.52a8.856 8.856 0 0 1 7.387 10.113c-.75 4.832-5.278 8.148-10.113 7.386l-8.665-1.347 26.618 26.64c45.605 45.606 119.816 45.606 165.422-.004 45.582-45.613 45.582-119.808 0-165.386-45.606-45.61-119.817-45.61-165.422 0l-88.957 88.957-88.957 88.953c-25.325 25.344-59.137 39.3-95.204 39.3-36.07 0-69.89-13.956-95.23-39.3-52.488-52.524-52.488-137.95 0-190.434 25.34-25.343 59.16-39.3 95.23-39.3 36.067 0 69.88 13.957 95.207 39.3l25.227 25.211-1.312-6.656c-.95-4.797 2.171-9.457 6.972-10.406 4.797-.946 9.457 2.176 10.403 6.972l6.957 35.211q.092.489.132.98c.008.098.008.196.012.298q.018.34.012.68-.005.175-.016.343a7 7 0 0 1-.074.668c-.012.102-.023.2-.043.297a9 9 0 0 1-.21.934v.003c-.095.32-.212.633-.34.946-.028.062-.06.12-.087.183a9 9 0 0 1-.347.696c-.047.086-.102.172-.153.257a8 8 0 0 1-.379.575q-.098.14-.203.277a9 9 0 0 1-.437.516c-.055.062-.106.132-.164.195l-.07.066c-.02.02-.036.04-.06.063-.081.082-.171.156-.257.234q-.169.16-.344.309-.195.163-.402.308c-.102.075-.195.153-.297.22-.168.112-.34.214-.512.316-.078.043-.152.093-.234.136q-.293.157-.598.29l-.187.09c-.219.09-.438.167-.656.241-.06.016-.114.04-.168.059a9 9 0 0 1-.692.176l-.164.039q-.376.076-.758.117l-.11.016c-.702.07-1.41.047-2.108-.051l-.13-.008-35.495-5.488a8.854 8.854 0 0 1-7.399-10.102c.746-4.836 5.277-8.144 10.106-7.402l8.71 1.348-26.652-26.63c-21.984-22.003-51.344-34.117-82.68-34.117-31.34 0-60.71 12.118-82.707 34.114-45.582 45.582-45.582 119.773 0 165.39 21.997 21.996 51.368 34.11 82.707 34.11 31.336 0 60.696-12.114 82.676-34.11l88.961-88.957 88.953-88.957c52.516-52.515 137.961-52.515 190.473 0Zm-183.613 72.371c-5.54 1.106-9.559 6.008-9.559 11.66v22.407c0 5.652 4.02 10.554 9.516 11.652l11.539 2.367a80 80 0 0 0 4.683 11.309l-6.535 9.91c-3.086 4.774-2.441 10.906 1.57 14.91l15.848 15.848c4.016 4.02 10.352 4.621 14.969 1.492l9.84-6.484a81 81 0 0 0 11.308 4.695l2.332 11.477c1.114 5.558 6.032 9.593 11.7 9.593h22.37c5.653 0 10.56-4.011 11.688-9.55l2.371-11.524a82 82 0 0 0 11.301-4.695l9.727 6.43c4.71 3.187 11.047 2.585 15.062-1.434l15.848-15.848c4.031-4.027 4.648-10.363 1.527-14.969l-6.492-9.851a80 80 0 0 0 4.684-11.309l11.496-2.359c5.539-1.106 9.558-6.008 9.558-11.66v-22.406c0-5.653-4.02-10.555-9.515-11.653l-11.54-2.367a80 80 0 0 0-4.683-11.309l6.43-9.757c3.183-4.7 2.566-11.036-1.465-15.063l-15.848-15.848q-.054-.058-.11-.109c-4.1-3.96-10.25-4.504-14.87-1.379l-9.809 6.485a82 82 0 0 0-11.3-4.696l-2.364-11.48c-1.105-5.54-6.023-9.559-11.695-9.559h-22.371c-5.672 0-10.59 4.02-11.692 9.528l-2.34 11.507a81 81 0 0 0-11.308 4.696l-9.75-6.426c-4.703-3.184-10.852-2.637-14.953 1.324q-.052.051-.106.11l-15.847 15.843c-4.012 4.012-4.657 10.14-1.528 14.973l6.492 9.851a80 80 0 0 0-4.683 11.309Zm20.293 13.918a8.85 8.85 0 0 0 6.812-6.527 62.8 62.8 0 0 1 7.012-16.941 8.86 8.86 0 0 0-.211-9.407l-6.824-10.351 9.136-9.137 10.375 6.836a8.87 8.87 0 0 0 9.43.2 63 63 0 0 1 16.95-7.044 8.85 8.85 0 0 0 6.495-6.816l2.461-12.094h12.942l2.492 12.11c.68 3.32 3.2 5.96 6.484 6.8a64.2 64.2 0 0 1 16.98 7.055 8.85 8.85 0 0 0 9.419-.219l10.332-6.828 9.133 9.137-6.825 10.351a8.85 8.85 0 0 0-.21 9.41 62.8 62.8 0 0 1 7.011 16.934 8.85 8.85 0 0 0 6.809 6.531l12.144 2.489v12.914l-12.144 2.488a8.86 8.86 0 0 0-6.809 6.531 62.8 62.8 0 0 1-7.012 16.938 8.85 8.85 0 0 0 .211 9.41l6.825 10.348-9.133 9.136-10.332-6.828a8.85 8.85 0 0 0-9.418-.219 64 64 0 0 1-16.98 7.055 8.86 8.86 0 0 0-6.485 6.8l-2.496 12.145h-12.93l-2.469-12.129a8.85 8.85 0 0 0-6.496-6.816 63 63 0 0 1-16.949-7.043 8.85 8.85 0 0 0-9.43.2l-10.375 6.84-9.136-9.138 6.824-10.351a8.87 8.87 0 0 0 .21-9.41 62.8 62.8 0 0 1-7.01-16.938 8.85 8.85 0 0 0-6.813-6.527l-12.141-2.492v-12.914Zm68.101 53.746c24.715 0 44.82-20.09 44.82-44.78 0-24.716-20.105-44.821-44.82-44.821-24.71 0-44.816 20.105-44.816 44.82 0 24.692 20.105 44.781 44.816 44.781Zm0-71.89c14.95 0 27.11 12.16 27.11 27.11 0 14.925-12.16 27.07-27.11 27.07-14.945 0-27.105-12.145-27.105-27.07 0-14.95 12.16-27.11 27.105-27.11Zm-12.082-298.528h-33.379c-4.89 0-8.86-3.964-8.86-8.855 0-4.89 3.97-8.855 8.86-8.855h33.38a8.856 8.856 0 0 1 0 17.71Zm-255.574-79.847a8.84 8.84 0 0 1-6.262-2.594l-23.594-23.594a8.86 8.86 0 0 1 0-12.523 8.86 8.86 0 0 1 12.528 0l23.59 23.594a8.85 8.85 0 0 1 0 12.523 8.84 8.84 0 0 1-6.262 2.594Zm-42.738 79.847H726.59a8.856 8.856 0 0 1 0-17.71h33.383a8.856 8.856 0 0 1 0 17.71Zm252.047-106.035-23.594 23.594a8.83 8.83 0 0 1-6.262 2.594 8.858 8.858 0 0 1-6.262-15.117l23.594-23.594a8.86 8.86 0 0 1 12.524 0 8.85 8.85 0 0 1 0 12.523Zm-119.598-7.625a8.856 8.856 0 0 1-8.856-8.855v-33.38a8.856 8.856 0 1 1 17.711.001v33.379a8.856 8.856 0 0 1-8.855 8.855Zm86.617 191.754c12.027-18.215 24.461-37.05 24.461-69.808 0-61.23-49.828-111.043-111.078-111.043-61.23 0-111.043 49.812-111.043 111.043 0 32.757 12.434 51.593 24.46 69.808 7.114 10.781 14.474 21.93 19.684 36.48l.637 1.805c-5.91 4.891-9.68 12.27-9.68 20.516 0 12.918 9.254 23.707 21.489 26.125.226 29.84 24.562 54.047 54.453 54.047 29.91 0 54.262-24.207 54.488-54.047 12.211-2.422 21.45-13.21 21.45-26.125 0-8.238-3.762-15.613-9.653-20.504l.64-1.789c5.22-14.582 12.575-25.727 19.692-36.508Zm-86.617 121.262c-19.953 0-36.23-15.984-36.73-35.82h73.492c-.496 19.836-16.793 35.82-36.762 35.82Zm49.3-53.531h-98.566c-4.941 0-8.965-4.008-8.965-8.93s4.024-8.93 8.965-8.93h98.567c4.922 0 8.925 4.008 8.925 8.93s-4.003 8.93-8.925 8.93Zm-74.077-118.325h-8.426c-4.645 0-8.426-3.777-8.426-8.425 0-4.645 3.781-8.426 8.426-8.426 4.648 0 8.426 3.781 8.426 8.426Zm17.71 17.715h14.165v65.04h-14.164Zm56.368 65.04H917.23v-65.04h8.43c14.41 0 26.136-11.726 26.136-26.14 0-14.41-11.727-26.137-26.137-26.137-14.414 0-26.14 11.727-26.14 26.137v8.425h-14.164v-8.425c0-14.41-11.723-26.137-26.137-26.137-14.41 0-26.137 11.727-26.137 26.137 0 14.414 11.727 26.14 26.137 26.14h8.426v65.04h-24.489c-.125 0-.242.015-.367.019l-.582-1.64c-5.937-16.59-13.894-28.641-21.586-40.298-11.555-17.5-21.531-32.613-21.531-60.05 0-51.465 41.867-93.332 93.332-93.332 51.48 0 93.367 41.867 93.367 93.332 0 27.437-9.98 42.55-21.531 60.05-7.695 11.657-15.649 23.707-21.586 40.293l-.59 1.645c-.121-.004-.238-.02-.36-.02Zm-24.492-82.755v-8.425c0-4.645 3.78-8.426 8.43-8.426 4.644 0 8.425 3.781 8.425 8.426 0 4.648-3.781 8.425-8.426 8.425Zm144.28 134.458V826.91l-14.972 17.883a8.856 8.856 0 0 1-12.476 1.105c-3.75-3.14-4.243-8.726-1.106-12.476l30.578-36.516v-.004l.043-.05c.04-.047.086-.09.13-.137q.228-.265.476-.512.125-.116.25-.226a8 8 0 0 1 .445-.38c.09-.074.184-.14.277-.21q.236-.17.48-.328.14-.09.286-.172c.176-.102.351-.196.535-.29.094-.042.184-.09.274-.128.199-.09.398-.168.605-.242.082-.032.168-.067.254-.094a7 7 0 0 1 .664-.188l.234-.062c.239-.05.477-.086.72-.117.073-.012.14-.028.21-.036a10 10 0 0 1 .95-.05c.323 0 .64.02.948.05.075.008.141.024.211.036.246.03.485.066.723.117l.234.062c.227.055.45.114.664.188.086.027.168.062.254.094q.308.109.602.242c.094.039.184.086.277.129q.271.138.535.289.146.082.286.172.244.157.476.328c.098.07.192.136.281.21q.23.182.442.38.131.11.25.226.252.247.48.512c.043.047.086.09.13.137l.038.05h.004l30.574 36.52c3.141 3.75 2.649 9.336-1.101 12.476a8.84 8.84 0 0 1-5.684 2.067 8.82 8.82 0 0 1-6.793-3.172l-14.972-17.883v66.196c0 4.89-3.97 8.855-8.86 8.855a8.856 8.856 0 0 1-8.855-8.855Zm-355.859 0v-66.22l-15.011 17.91a8.84 8.84 0 0 1-6.793 3.169 8.82 8.82 0 0 1-5.684-2.07 8.853 8.853 0 0 1-1.098-12.477l30.61-36.516.047-.054c.039-.051.09-.094.132-.14q.223-.265.47-.505c.081-.082.171-.156.253-.23.145-.13.29-.258.438-.375.093-.075.191-.145.285-.215q.233-.168.472-.324l.29-.176c.175-.098.351-.195.535-.281q.135-.072.277-.137.293-.128.598-.238c.086-.032.172-.067.257-.094.215-.074.438-.133.66-.188.083-.02.16-.043.239-.062a9 9 0 0 1 .719-.117c.07-.012.14-.028.21-.032q.47-.053.95-.054h.004c.008 0 .015.004.023.004q.47-.001.922.05c.074.008.145.024.219.032q.363.045.715.12c.082.016.16.04.242.063q.333.08.656.184c.086.027.172.062.258.094q.304.109.598.242.14.063.277.133a8.7 8.7 0 0 1 1.297.785c.094.07.191.136.281.21q.226.184.441.38.128.11.25.226c.168.164.325.336.48.512.04.047.087.09.126.137l.043.05q.002-.001.004.004l30.574 36.516a8.857 8.857 0 0 1-1.105 12.476 8.85 8.85 0 0 1-12.473-1.105l-14.977-17.883v66.196a8.856 8.856 0 0 1-17.71 0Zm0 0"/></g></svg>