<svg xmlns="http://www.w3.org/2000/svg" xmlns:xlink="http://www.w3.org/1999/xlink" width="2380" zoomAndPan="magnify" viewBox="0 0 1784.88 1784.99993" height="2380" preserveAspectRatio="xMidYMid meet" version="1.0"><defs><clipPath id="bf545a6966"><path d="M 388.707031 388.765625 L 1395.890625 388.765625 L 1395.890625 1395.949219 L 388.707031 1395.949219 Z M 388.707031 388.765625 " clip-rule="nonzero"/></clipPath><clipPath id="af4efc3244"><path d="M 892.375 388.765625 C 614.207031 388.765625 388.707031 614.265625 388.707031 892.433594 C 388.707031 1170.601562 614.207031 1396.101562 892.375 1396.101562 C 1170.542969 1396.101562 1396.042969 1170.601562 1396.042969 892.433594 C 1396.042969 614.265625 1170.542969 388.765625 892.375 388.765625 Z M 892.375 388.765625 " clip-rule="nonzero"/></clipPath><linearGradient x1="0.00000186795" gradientTransform="matrix(20.98755, 0, 0, 20.98755, -0.0000125371, -0.0000658704)" y1="0.00000186795" x2="63.990321" gradientUnits="userSpaceOnUse" y2="63.990321" id="554c7c0891"><stop stop-opacity="1" stop-color="rgb(89.019775%, 57.649231%, 59.21936%)" offset="0"/><stop stop-opacity="1" stop-color="rgb(88.841248%, 57.440186%, 59.371948%)" offset="0.00390625"/><stop stop-opacity="1" stop-color="rgb(88.664246%, 57.232666%, 59.526062%)" offset="0.0078125"/><stop stop-opacity="1" stop-color="rgb(88.485718%, 57.023621%, 59.67865%)" offset="0.0117188"/><stop stop-opacity="1" stop-color="rgb(88.308716%, 56.816101%, 59.831238%)" offset="0.015625"/><stop stop-opacity="1" stop-color="rgb(88.130188%, 56.607056%, 59.983826%)" offset="0.0195313"/><stop stop-opacity="1" stop-color="rgb(87.953186%, 56.399536%, 60.137939%)" offset="0.0234375"/><stop stop-opacity="1" stop-color="rgb(87.774658%, 56.190491%, 60.290527%)" offset="0.0273438"/><stop stop-opacity="1" stop-color="rgb(87.597656%, 55.981445%, 60.444641%)" offset="0.03125"/><stop stop-opacity="1" stop-color="rgb(87.420654%, 55.7724%, 60.597229%)" offset="0.0351563"/><stop stop-opacity="1" stop-color="rgb(87.243652%, 55.56488%, 60.749817%)" offset="0.0390625"/><stop stop-opacity="1" stop-color="rgb(87.065125%, 55.355835%, 60.902405%)" offset="0.0429688"/><stop stop-opacity="1" stop-color="rgb(86.888123%, 55.148315%, 61.056519%)" offset="0.046875"/><stop stop-opacity="1" stop-color="rgb(86.709595%, 54.93927%, 61.209106%)" offset="0.0507813"/><stop stop-opacity="1" stop-color="rgb(86.532593%, 54.73175%, 61.36322%)" offset="0.0546875"/><stop stop-opacity="1" stop-color="rgb(86.354065%, 54.522705%, 61.515808%)" offset="0.0585938"/><stop stop-opacity="1" stop-color="rgb(86.177063%, 54.315186%, 61.668396%)" offset="0.0625"/><stop stop-opacity="1" stop-color="rgb(85.998535%, 54.10614%, 61.820984%)" offset="0.0664062"/><stop stop-opacity="1" stop-color="rgb(85.821533%, 53.898621%, 61.975098%)" offset="0.0703125"/><stop stop-opacity="1" stop-color="rgb(85.643005%, 53.689575%, 62.127686%)" offset="0.0742188"/><stop stop-opacity="1" stop-color="rgb(85.466003%, 53.48053%, 62.281799%)" offset="0.078125"/><stop stop-opacity="1" stop-color="rgb(85.289001%, 53.271484%, 62.434387%)" offset="0.0820313"/><stop stop-opacity="1" stop-color="rgb(85.112%, 53.063965%, 62.586975%)" offset="0.0859375"/><stop stop-opacity="1" stop-color="rgb(84.933472%, 52.854919%, 62.739563%)" offset="0.0898438"/><stop stop-opacity="1" stop-color="rgb(84.75647%, 52.6474%, 62.893677%)" offset="0.09375"/><stop stop-opacity="1" stop-color="rgb(84.577942%, 52.438354%, 63.046265%)" offset="0.0976563"/><stop stop-opacity="1" stop-color="rgb(84.40094%, 52.230835%, 63.200378%)" offset="0.101563"/><stop stop-opacity="1" stop-color="rgb(84.222412%, 52.02179%, 63.352966%)" offset="0.105469"/><stop stop-opacity="1" stop-color="rgb(84.04541%, 51.81427%, 63.505554%)" offset="0.109375"/><stop stop-opacity="1" stop-color="rgb(83.866882%, 51.605225%, 63.658142%)" offset="0.113281"/><stop stop-opacity="1" stop-color="rgb(83.68988%, 51.397705%, 63.812256%)" offset="0.117188"/><stop stop-opacity="1" stop-color="rgb(83.511353%, 51.18866%, 63.964844%)" offset="0.121094"/><stop stop-opacity="1" stop-color="rgb(83.334351%, 50.979614%, 64.118958%)" offset="0.125"/><stop stop-opacity="1" stop-color="rgb(83.157349%, 50.770569%, 64.271545%)" offset="0.128906"/><stop stop-opacity="1" stop-color="rgb(82.980347%, 50.563049%, 64.424133%)" offset="0.132812"/><stop stop-opacity="1" stop-color="rgb(82.801819%, 50.354004%, 64.576721%)" offset="0.136719"/><stop stop-opacity="1" stop-color="rgb(82.624817%, 50.146484%, 64.730835%)" offset="0.140625"/><stop stop-opacity="1" stop-color="rgb(82.446289%, 49.937439%, 64.883423%)" offset="0.144531"/><stop stop-opacity="1" stop-color="rgb(82.269287%, 49.729919%, 65.037537%)" offset="0.148438"/><stop stop-opacity="1" stop-color="rgb(82.090759%, 49.520874%, 65.190125%)" offset="0.152344"/><stop stop-opacity="1" stop-color="rgb(81.913757%, 49.313354%, 65.342712%)" offset="0.15625"/><stop stop-opacity="1" stop-color="rgb(81.735229%, 49.104309%, 65.4953%)" offset="0.160156"/><stop stop-opacity="1" stop-color="rgb(81.558228%, 48.89679%, 65.649414%)" offset="0.164063"/><stop stop-opacity="1" stop-color="rgb(81.381226%, 48.687744%, 65.802002%)" offset="0.167969"/><stop stop-opacity="1" stop-color="rgb(81.204224%, 48.478699%, 65.956116%)" offset="0.171875"/><stop stop-opacity="1" stop-color="rgb(81.025696%, 48.269653%, 66.108704%)" offset="0.175781"/><stop stop-opacity="1" stop-color="rgb(80.848694%, 48.062134%, 66.261292%)" offset="0.179688"/><stop stop-opacity="1" stop-color="rgb(80.670166%, 47.853088%, 66.413879%)" offset="0.183594"/><stop stop-opacity="1" stop-color="rgb(80.493164%, 47.645569%, 66.567993%)" offset="0.1875"/><stop stop-opacity="1" stop-color="rgb(80.314636%, 47.436523%, 66.720581%)" offset="0.191406"/><stop stop-opacity="1" stop-color="rgb(80.137634%, 47.229004%, 66.874695%)" offset="0.195313"/><stop stop-opacity="1" stop-color="rgb(79.959106%, 47.019958%, 67.027283%)" offset="0.199219"/><stop stop-opacity="1" stop-color="rgb(79.782104%, 46.812439%, 67.179871%)" offset="0.203125"/><stop stop-opacity="1" stop-color="rgb(79.603577%, 46.603394%, 67.332458%)" offset="0.207031"/><stop stop-opacity="1" stop-color="rgb(79.426575%, 46.395874%, 67.486572%)" offset="0.210938"/><stop stop-opacity="1" stop-color="rgb(79.249573%, 46.186829%, 67.63916%)" offset="0.214844"/><stop stop-opacity="1" stop-color="rgb(79.072571%, 45.977783%, 67.793274%)" offset="0.21875"/><stop stop-opacity="1" stop-color="rgb(78.894043%, 45.768738%, 67.945862%)" offset="0.222656"/><stop stop-opacity="1" stop-color="rgb(78.717041%, 45.561218%, 68.09845%)" offset="0.226563"/><stop stop-opacity="1" stop-color="rgb(78.538513%, 45.352173%, 68.251038%)" offset="0.230469"/><stop stop-opacity="1" stop-color="rgb(78.361511%, 45.144653%, 68.405151%)" offset="0.234375"/><stop stop-opacity="1" stop-color="rgb(78.182983%, 44.935608%, 68.557739%)" offset="0.238281"/><stop stop-opacity="1" stop-color="rgb(78.005981%, 44.728088%, 68.711853%)" offset="0.242188"/><stop stop-opacity="1" stop-color="rgb(77.827454%, 44.519043%, 68.864441%)" offset="0.246094"/><stop stop-opacity="1" stop-color="rgb(77.650452%, 44.311523%, 69.017029%)" offset="0.25"/><stop stop-opacity="1" stop-color="rgb(77.253723%, 44.206238%, 69.145203%)" offset="0.253906"/><stop stop-opacity="1" stop-color="rgb(76.856995%, 44.102478%, 69.274902%)" offset="0.257813"/><stop stop-opacity="1" stop-color="rgb(76.45874%, 43.997192%, 69.403076%)" offset="0.261719"/><stop stop-opacity="1" stop-color="rgb(76.060486%, 43.893433%, 69.532776%)" offset="0.265625"/><stop stop-opacity="1" stop-color="rgb(75.662231%, 43.789673%, 69.66095%)" offset="0.269531"/><stop stop-opacity="1" stop-color="rgb(75.263977%, 43.685913%, 69.789124%)" offset="0.273438"/><stop stop-opacity="1" stop-color="rgb(74.865723%, 43.582153%, 69.917297%)" offset="0.277344"/><stop stop-opacity="1" stop-color="rgb(74.467468%, 43.478394%, 70.046997%)" offset="0.28125"/><stop stop-opacity="1" stop-color="rgb(74.069214%, 43.373108%, 70.175171%)" offset="0.285156"/><stop stop-opacity="1" stop-color="rgb(73.670959%, 43.269348%, 70.303345%)" offset="0.289063"/><stop stop-opacity="1" stop-color="rgb(73.272705%, 43.165588%, 70.431519%)" offset="0.292969"/><stop stop-opacity="1" stop-color="rgb(72.874451%, 43.061829%, 70.561218%)" offset="0.296875"/><stop stop-opacity="1" stop-color="rgb(72.476196%, 42.958069%, 70.689392%)" offset="0.300781"/><stop stop-opacity="1" stop-color="rgb(72.077942%, 42.854309%, 70.817566%)" offset="0.304688"/><stop stop-opacity="1" stop-color="rgb(71.679688%, 42.749023%, 70.94574%)" offset="0.308594"/><stop stop-opacity="1" stop-color="rgb(71.281433%, 42.645264%, 71.075439%)" offset="0.3125"/><stop stop-opacity="1" stop-color="rgb(70.883179%, 42.541504%, 71.203613%)" offset="0.316406"/><stop stop-opacity="1" stop-color="rgb(70.484924%, 42.437744%, 71.331787%)" offset="0.320312"/><stop stop-opacity="1" stop-color="rgb(70.08667%, 42.332458%, 71.459961%)" offset="0.324219"/><stop stop-opacity="1" stop-color="rgb(69.688416%, 42.228699%, 71.589661%)" offset="0.328125"/><stop stop-opacity="1" stop-color="rgb(69.290161%, 42.124939%, 71.717834%)" offset="0.332031"/><stop stop-opacity="1" stop-color="rgb(68.891907%, 42.021179%, 71.846008%)" offset="0.335938"/><stop stop-opacity="1" stop-color="rgb(68.493652%, 41.917419%, 71.974182%)" offset="0.339844"/><stop stop-opacity="1" stop-color="rgb(68.095398%, 41.81366%, 72.103882%)" offset="0.34375"/><stop stop-opacity="1" stop-color="rgb(67.697144%, 41.708374%, 72.232056%)" offset="0.347656"/><stop stop-opacity="1" stop-color="rgb(67.298889%, 41.604614%, 72.360229%)" offset="0.351562"/><stop stop-opacity="1" stop-color="rgb(66.900635%, 41.500854%, 72.488403%)" offset="0.355469"/><stop stop-opacity="1" stop-color="rgb(66.50238%, 41.397095%, 72.618103%)" offset="0.359375"/><stop stop-opacity="1" stop-color="rgb(66.104126%, 41.293335%, 72.746277%)" offset="0.363281"/><stop stop-opacity="1" stop-color="rgb(65.705872%, 41.189575%, 72.875977%)" offset="0.367187"/><stop stop-opacity="1" stop-color="rgb(65.307617%, 41.08429%, 73.00415%)" offset="0.371094"/><stop stop-opacity="1" stop-color="rgb(64.909363%, 40.98053%, 73.132324%)" offset="0.375"/><stop stop-opacity="1" stop-color="rgb(64.511108%, 40.87677%, 73.260498%)" offset="0.378906"/><stop stop-opacity="1" stop-color="rgb(64.112854%, 40.77301%, 73.390198%)" offset="0.382813"/><stop stop-opacity="1" stop-color="rgb(63.7146%, 40.667725%, 73.518372%)" offset="0.386719"/><stop stop-opacity="1" stop-color="rgb(63.317871%, 40.563965%, 73.646545%)" offset="0.390625"/><stop stop-opacity="1" stop-color="rgb(62.919617%, 40.460205%, 73.774719%)" offset="0.394531"/><stop stop-opacity="1" stop-color="rgb(62.521362%, 40.356445%, 73.904419%)" offset="0.398438"/><stop stop-opacity="1" stop-color="rgb(62.123108%, 40.252686%, 74.032593%)" offset="0.402344"/><stop stop-opacity="1" stop-color="rgb(61.724854%, 40.148926%, 74.160767%)" offset="0.40625"/><stop stop-opacity="1" stop-color="rgb(61.326599%, 40.04364%, 74.28894%)" offset="0.410156"/><stop stop-opacity="1" stop-color="rgb(60.928345%, 39.93988%, 74.41864%)" offset="0.414063"/><stop stop-opacity="1" stop-color="rgb(60.53009%, 39.836121%, 74.546814%)" offset="0.417969"/><stop stop-opacity="1" stop-color="rgb(60.131836%, 39.732361%, 74.674988%)" offset="0.421875"/><stop stop-opacity="1" stop-color="rgb(59.733582%, 39.628601%, 74.803162%)" offset="0.425781"/><stop stop-opacity="1" stop-color="rgb(59.335327%, 39.524841%, 74.932861%)" offset="0.429688"/><stop stop-opacity="1" stop-color="rgb(58.937073%, 39.419556%, 75.061035%)" offset="0.433594"/><stop stop-opacity="1" stop-color="rgb(58.538818%, 39.315796%, 75.189209%)" offset="0.4375"/><stop stop-opacity="1" stop-color="rgb(58.140564%, 39.212036%, 75.317383%)" offset="0.441406"/><stop stop-opacity="1" stop-color="rgb(57.74231%, 39.108276%, 75.447083%)" offset="0.445312"/><stop stop-opacity="1" stop-color="rgb(57.344055%, 39.002991%, 75.575256%)" offset="0.449219"/><stop stop-opacity="1" stop-color="rgb(56.945801%, 38.899231%, 75.70343%)" offset="0.453125"/><stop stop-opacity="1" stop-color="rgb(56.547546%, 38.795471%, 75.831604%)" offset="0.457031"/><stop stop-opacity="1" stop-color="rgb(56.149292%, 38.691711%, 75.961304%)" offset="0.460938"/><stop stop-opacity="1" stop-color="rgb(55.751038%, 38.587952%, 76.089478%)" offset="0.464844"/><stop stop-opacity="1" stop-color="rgb(55.352783%, 38.484192%, 76.217651%)" offset="0.46875"/><stop stop-opacity="1" stop-color="rgb(54.954529%, 38.378906%, 76.345825%)" offset="0.472656"/><stop stop-opacity="1" stop-color="rgb(54.556274%, 38.275146%, 76.475525%)" offset="0.476562"/><stop stop-opacity="1" stop-color="rgb(54.15802%, 38.171387%, 76.603699%)" offset="0.480469"/><stop stop-opacity="1" stop-color="rgb(53.759766%, 38.067627%, 76.731873%)" offset="0.484375"/><stop stop-opacity="1" stop-color="rgb(53.361511%, 37.963867%, 76.860046%)" offset="0.488281"/><stop stop-opacity="1" stop-color="rgb(52.963257%, 37.860107%, 76.989746%)" offset="0.492187"/><stop stop-opacity="1" stop-color="rgb(52.565002%, 37.754822%, 77.11792%)" offset="0.496094"/><stop stop-opacity="1" stop-color="rgb(52.166748%, 37.651062%, 77.246094%)" offset="0.5"/><stop stop-opacity="1" stop-color="rgb(51.664734%, 37.734985%, 77.308655%)" offset="0.503906"/><stop stop-opacity="1" stop-color="rgb(51.164246%, 37.818909%, 77.371216%)" offset="0.507812"/><stop stop-opacity="1" stop-color="rgb(50.660706%, 37.904358%, 77.432251%)" offset="0.511719"/><stop stop-opacity="1" stop-color="rgb(50.158691%, 37.991333%, 77.493286%)" offset="0.515625"/><stop stop-opacity="1" stop-color="rgb(49.656677%, 38.076782%, 77.554321%)" offset="0.519531"/><stop stop-opacity="1" stop-color="rgb(49.154663%, 38.162231%, 77.616882%)" offset="0.523438"/><stop stop-opacity="1" stop-color="rgb(48.651123%, 38.247681%, 77.677917%)" offset="0.527344"/><stop stop-opacity="1" stop-color="rgb(48.149109%, 38.33313%, 77.738953%)" offset="0.53125"/><stop stop-opacity="1" stop-color="rgb(47.647095%, 38.418579%, 77.799988%)" offset="0.535156"/><stop stop-opacity="1" stop-color="rgb(47.145081%, 38.505554%, 77.862549%)" offset="0.539063"/><stop stop-opacity="1" stop-color="rgb(46.641541%, 38.591003%, 77.923584%)" offset="0.542969"/><stop stop-opacity="1" stop-color="rgb(46.139526%, 38.676453%, 77.984619%)" offset="0.546875"/><stop stop-opacity="1" stop-color="rgb(45.637512%, 38.761902%, 78.045654%)" offset="0.550781"/><stop stop-opacity="1" stop-color="rgb(45.135498%, 38.848877%, 78.108215%)" offset="0.554688"/><stop stop-opacity="1" stop-color="rgb(44.631958%, 38.934326%, 78.16925%)" offset="0.558594"/><stop stop-opacity="1" stop-color="rgb(44.129944%, 39.019775%, 78.230286%)" offset="0.5625"/><stop stop-opacity="1" stop-color="rgb(43.62793%, 39.105225%, 78.291321%)" offset="0.566406"/><stop stop-opacity="1" stop-color="rgb(43.125916%, 39.190674%, 78.353882%)" offset="0.570312"/><stop stop-opacity="1" stop-color="rgb(42.622375%, 39.276123%, 78.414917%)" offset="0.574219"/><stop stop-opacity="1" stop-color="rgb(42.120361%, 39.363098%, 78.475952%)" offset="0.578125"/><stop stop-opacity="1" stop-color="rgb(41.618347%, 39.448547%, 78.536987%)" offset="0.582031"/><stop stop-opacity="1" stop-color="rgb(41.116333%, 39.533997%, 78.598022%)" offset="0.585938"/><stop stop-opacity="1" stop-color="rgb(40.612793%, 39.619446%, 78.659058%)" offset="0.589844"/><stop stop-opacity="1" stop-color="rgb(40.110779%, 39.706421%, 78.721619%)" offset="0.59375"/><stop stop-opacity="1" stop-color="rgb(39.607239%, 39.79187%, 78.782654%)" offset="0.597656"/><stop stop-opacity="1" stop-color="rgb(39.105225%, 39.877319%, 78.843689%)" offset="0.601562"/><stop stop-opacity="1" stop-color="rgb(38.60321%, 39.962769%, 78.904724%)" offset="0.605469"/><stop stop-opacity="1" stop-color="rgb(38.101196%, 40.049744%, 78.967285%)" offset="0.609375"/><stop stop-opacity="1" stop-color="rgb(37.597656%, 40.135193%, 79.02832%)" offset="0.613281"/><stop stop-opacity="1" stop-color="rgb(37.095642%, 40.220642%, 79.089355%)" offset="0.617188"/><stop stop-opacity="1" stop-color="rgb(36.593628%, 40.306091%, 79.150391%)" offset="0.621094"/><stop stop-opacity="1" stop-color="rgb(36.091614%, 40.391541%, 79.212952%)" offset="0.625"/><stop stop-opacity="1" stop-color="rgb(35.588074%, 40.47699%, 79.273987%)" offset="0.628906"/><stop stop-opacity="1" stop-color="rgb(35.08606%, 40.563965%, 79.335022%)" offset="0.632812"/><stop stop-opacity="1" stop-color="rgb(34.584045%, 40.649414%, 79.396057%)" offset="0.636719"/><stop stop-opacity="1" stop-color="rgb(34.082031%, 40.734863%, 79.458618%)" offset="0.640625"/><stop stop-opacity="1" stop-color="rgb(33.578491%, 40.820312%, 79.519653%)" offset="0.644531"/><stop stop-opacity="1" stop-color="rgb(33.076477%, 40.907288%, 79.580688%)" offset="0.648438"/><stop stop-opacity="1" stop-color="rgb(32.574463%, 40.992737%, 79.641724%)" offset="0.652344"/><stop stop-opacity="1" stop-color="rgb(32.072449%, 41.078186%, 79.704285%)" offset="0.65625"/><stop stop-opacity="1" stop-color="rgb(31.568909%, 41.163635%, 79.76532%)" offset="0.660156"/><stop stop-opacity="1" stop-color="rgb(31.066895%, 41.249084%, 79.826355%)" offset="0.664062"/><stop stop-opacity="1" stop-color="rgb(30.56488%, 41.334534%, 79.88739%)" offset="0.667969"/><stop stop-opacity="1" stop-color="rgb(30.062866%, 41.421509%, 79.949951%)" offset="0.671875"/><stop stop-opacity="1" stop-color="rgb(29.559326%, 41.506958%, 80.010986%)" offset="0.675781"/><stop stop-opacity="1" stop-color="rgb(29.057312%, 41.592407%, 80.072021%)" offset="0.679688"/><stop stop-opacity="1" stop-color="rgb(28.555298%, 41.677856%, 80.133057%)" offset="0.683594"/><stop stop-opacity="1" stop-color="rgb(28.053284%, 41.764832%, 80.195618%)" offset="0.6875"/><stop stop-opacity="1" stop-color="rgb(27.549744%, 41.850281%, 80.256653%)" offset="0.691406"/><stop stop-opacity="1" stop-color="rgb(27.047729%, 41.93573%, 80.317688%)" offset="0.695312"/><stop stop-opacity="1" stop-color="rgb(26.544189%, 42.021179%, 80.378723%)" offset="0.699219"/><stop stop-opacity="1" stop-color="rgb(26.042175%, 42.108154%, 80.441284%)" offset="0.703125"/><stop stop-opacity="1" stop-color="rgb(25.540161%, 42.193604%, 80.502319%)" offset="0.707031"/><stop stop-opacity="1" stop-color="rgb(25.038147%, 42.279053%, 80.563354%)" offset="0.710937"/><stop stop-opacity="1" stop-color="rgb(24.534607%, 42.364502%, 80.62439%)" offset="0.714844"/><stop stop-opacity="1" stop-color="rgb(24.032593%, 42.449951%, 80.686951%)" offset="0.71875"/><stop stop-opacity="1" stop-color="rgb(23.530579%, 42.5354%, 80.747986%)" offset="0.722656"/><stop stop-opacity="1" stop-color="rgb(23.028564%, 42.622375%, 80.809021%)" offset="0.726562"/><stop stop-opacity="1" stop-color="rgb(22.525024%, 42.707825%, 80.870056%)" offset="0.730469"/><stop stop-opacity="1" stop-color="rgb(22.02301%, 42.793274%, 80.932617%)" offset="0.734375"/><stop stop-opacity="1" stop-color="rgb(21.520996%, 42.878723%, 80.993652%)" offset="0.738281"/><stop stop-opacity="1" stop-color="rgb(21.018982%, 42.965698%, 81.054688%)" offset="0.742188"/><stop stop-opacity="1" stop-color="rgb(20.515442%, 43.051147%, 81.115723%)" offset="0.746094"/><stop stop-opacity="1" stop-color="rgb(20.013428%, 43.136597%, 81.176758%)" offset="0.75"/><stop stop-opacity="1" stop-color="rgb(19.703674%, 43.058777%, 81.056213%)" offset="0.753906"/><stop stop-opacity="1" stop-color="rgb(19.395447%, 42.982483%, 80.937195%)" offset="0.757812"/><stop stop-opacity="1" stop-color="rgb(19.088745%, 42.901611%, 80.813599%)" offset="0.761719"/><stop stop-opacity="1" stop-color="rgb(18.782043%, 42.822266%, 80.691528%)" offset="0.765625"/><stop stop-opacity="1" stop-color="rgb(18.475342%, 42.74292%, 80.569458%)" offset="0.769531"/><stop stop-opacity="1" stop-color="rgb(18.170166%, 42.663574%, 80.447388%)" offset="0.773438"/><stop stop-opacity="1" stop-color="rgb(17.863464%, 42.584229%, 80.323792%)" offset="0.777344"/><stop stop-opacity="1" stop-color="rgb(17.556763%, 42.504883%, 80.201721%)" offset="0.78125"/><stop stop-opacity="1" stop-color="rgb(17.250061%, 42.424011%, 80.078125%)" offset="0.785156"/><stop stop-opacity="1" stop-color="rgb(16.944885%, 42.344666%, 79.956055%)" offset="0.789063"/><stop stop-opacity="1" stop-color="rgb(16.638184%, 42.26532%, 79.832458%)" offset="0.792969"/><stop stop-opacity="1" stop-color="rgb(16.331482%, 42.185974%, 79.710388%)" offset="0.796875"/><stop stop-opacity="1" stop-color="rgb(16.02478%, 42.105103%, 79.588318%)" offset="0.800781"/><stop stop-opacity="1" stop-color="rgb(15.719604%, 42.025757%, 79.466248%)" offset="0.804688"/><stop stop-opacity="1" stop-color="rgb(15.412903%, 41.946411%, 79.342651%)" offset="0.808594"/><stop stop-opacity="1" stop-color="rgb(15.106201%, 41.867065%, 79.220581%)" offset="0.8125"/><stop stop-opacity="1" stop-color="rgb(14.7995%, 41.786194%, 79.096985%)" offset="0.816406"/><stop stop-opacity="1" stop-color="rgb(14.494324%, 41.706848%, 78.974915%)" offset="0.820312"/><stop stop-opacity="1" stop-color="rgb(14.187622%, 41.627502%, 78.852844%)" offset="0.824219"/><stop stop-opacity="1" stop-color="rgb(13.88092%, 41.548157%, 78.730774%)" offset="0.828125"/><stop stop-opacity="1" stop-color="rgb(13.574219%, 41.467285%, 78.607178%)" offset="0.832031"/><stop stop-opacity="1" stop-color="rgb(13.267517%, 41.387939%, 78.485107%)" offset="0.835938"/><stop stop-opacity="1" stop-color="rgb(12.960815%, 41.308594%, 78.361511%)" offset="0.839844"/><stop stop-opacity="1" stop-color="rgb(12.65564%, 41.229248%, 78.239441%)" offset="0.84375"/><stop stop-opacity="1" stop-color="rgb(12.348938%, 41.149902%, 78.115845%)" offset="0.847656"/><stop stop-opacity="1" stop-color="rgb(12.042236%, 41.070557%, 77.993774%)" offset="0.851562"/><stop stop-opacity="1" stop-color="rgb(11.735535%, 40.989685%, 77.871704%)" offset="0.855469"/><stop stop-opacity="1" stop-color="rgb(11.430359%, 40.910339%, 77.749634%)" offset="0.859375"/><stop stop-opacity="1" stop-color="rgb(11.123657%, 40.830994%, 77.626038%)" offset="0.863281"/><stop stop-opacity="1" stop-color="rgb(10.816956%, 40.751648%, 77.503967%)" offset="0.867188"/><stop stop-opacity="1" stop-color="rgb(10.510254%, 40.670776%, 77.380371%)" offset="0.871094"/><stop stop-opacity="1" stop-color="rgb(10.205078%, 40.591431%, 77.258301%)" offset="0.875"/><stop stop-opacity="1" stop-color="rgb(9.898376%, 40.512085%, 77.134705%)" offset="0.878906"/><stop stop-opacity="1" stop-color="rgb(9.591675%, 40.432739%, 77.012634%)" offset="0.882812"/><stop stop-opacity="1" stop-color="rgb(9.284973%, 40.351868%, 76.890564%)" offset="0.886719"/><stop stop-opacity="1" stop-color="rgb(8.979797%, 40.272522%, 76.768494%)" offset="0.890625"/><stop stop-opacity="1" stop-color="rgb(8.673096%, 40.193176%, 76.644897%)" offset="0.894531"/><stop stop-opacity="1" stop-color="rgb(8.366394%, 40.113831%, 76.522827%)" offset="0.898438"/><stop stop-opacity="1" stop-color="rgb(8.059692%, 40.034485%, 76.399231%)" offset="0.902344"/><stop stop-opacity="1" stop-color="rgb(7.752991%, 39.955139%, 76.277161%)" offset="0.90625"/><stop stop-opacity="1" stop-color="rgb(7.446289%, 39.874268%, 76.153564%)" offset="0.910156"/><stop stop-opacity="1" stop-color="rgb(7.141113%, 39.794922%, 76.031494%)" offset="0.914062"/><stop stop-opacity="1" stop-color="rgb(6.834412%, 39.715576%, 75.909424%)" offset="0.917969"/><stop stop-opacity="1" stop-color="rgb(6.52771%, 39.63623%, 75.787354%)" offset="0.921875"/><stop stop-opacity="1" stop-color="rgb(6.221008%, 39.555359%, 75.663757%)" offset="0.925781"/><stop stop-opacity="1" stop-color="rgb(5.915833%, 39.476013%, 75.541687%)" offset="0.929688"/><stop stop-opacity="1" stop-color="rgb(5.609131%, 39.396667%, 75.418091%)" offset="0.933594"/><stop stop-opacity="1" stop-color="rgb(5.302429%, 39.317322%, 75.296021%)" offset="0.9375"/><stop stop-opacity="1" stop-color="rgb(4.995728%, 39.23645%, 75.172424%)" offset="0.941406"/><stop stop-opacity="1" stop-color="rgb(4.690552%, 39.157104%, 75.050354%)" offset="0.945312"/><stop stop-opacity="1" stop-color="rgb(4.38385%, 39.077759%, 74.928284%)" offset="0.949219"/><stop stop-opacity="1" stop-color="rgb(4.077148%, 38.998413%, 74.806213%)" offset="0.953125"/><stop stop-opacity="1" stop-color="rgb(3.770447%, 38.919067%, 74.682617%)" offset="0.957031"/><stop stop-opacity="1" stop-color="rgb(3.465271%, 38.839722%, 74.560547%)" offset="0.960937"/><stop stop-opacity="1" stop-color="rgb(3.158569%, 38.75885%, 74.436951%)" offset="0.964844"/><stop stop-opacity="1" stop-color="rgb(2.851868%, 38.679504%, 74.31488%)" offset="0.96875"/><stop stop-opacity="1" stop-color="rgb(2.545166%, 38.600159%, 74.191284%)" offset="0.972656"/><stop stop-opacity="1" stop-color="rgb(2.23999%, 38.520813%, 74.069214%)" offset="0.976562"/><stop stop-opacity="1" stop-color="rgb(1.933289%, 38.439941%, 73.947144%)" offset="0.980469"/><stop stop-opacity="1" stop-color="rgb(1.626587%, 38.360596%, 73.825073%)" offset="0.984375"/><stop stop-opacity="1" stop-color="rgb(1.319885%, 38.28125%, 73.701477%)" offset="0.988281"/><stop stop-opacity="1" stop-color="rgb(1.013184%, 38.201904%, 73.579407%)" offset="0.992188"/><stop stop-opacity="1" stop-color="rgb(0.706482%, 38.121033%, 73.455811%)" offset="0.996094"/><stop stop-opacity="1" stop-color="rgb(0.401306%, 38.041687%, 73.33374%)" offset="1"/></linearGradient><clipPath id="149b76694c"><path d="M 579.253906 566 L 1205 566 L 1205 1192 L 579.253906 1192 Z M 579.253906 566 " clip-rule="nonzero"/></clipPath><clipPath id="6f439dcecc"><path d="M 579.253906 565.816406 L 1205.460938 565.816406 L 1205.460938 1192.023438 L 579.253906 1192.023438 Z M 579.253906 565.816406 " clip-rule="nonzero"/></clipPath></defs><g clip-path="url(#bf545a6966)"><g clip-path="url(#af4efc3244)"><path stroke-linecap="butt" transform="matrix(0.74995, 0, 0, 0.74995, 388.706936, 388.766901)" fill="none" stroke-linejoin="miter" d="M 671.602596 -0.00170156 C 300.68702 -0.00170156 0.000126892 300.685192 0.000126892 671.600768 C 0.000126892 1042.516344 300.68702 1343.203237 671.602596 1343.203237 C 1042.518172 1343.203237 1343.205066 1042.516344 1343.205066 671.600768 C 1343.205066 300.685192 1042.518172 -0.00170156 671.602596 -0.00170156 Z M 671.602596 -0.00170156 " stroke="url(#554c7c0891)" stroke-width="80" stroke-miterlimit="4"/></g></g><g clip-path="url(#149b76694c)"><path fill="#ffffff" d="M 802.871094 1079.59375 C 808.429688 1078.484375 812.464844 1073.582031 812.464844 1067.933594 L 812.464844 1045.523438 C 812.464844 1039.859375 808.429688 1034.941406 802.898438 1033.835938 L 791.386719 1031.492188 C 790.105469 1027.597656 788.535156 1023.820312 786.695312 1020.191406 L 793.125 1010.4375 C 796.3125 1005.722656 795.707031 999.390625 791.691406 995.378906 L 775.84375 979.527344 C 771.835938 975.519531 765.703125 974.875 760.859375 978.011719 L 751.03125 984.511719 C 747.382812 982.65625 743.597656 981.085938 739.714844 979.8125 L 737.355469 968.3125 C 736.246094 962.773438 731.34375 958.757812 725.695312 958.757812 L 703.285156 958.757812 C 697.648438 958.757812 692.75 962.761719 691.632812 968.285156 L 689.265625 979.8125 C 685.382812 981.082031 681.601562 982.65625 677.949219 984.511719 L 668.046875 977.960938 C 663.277344 974.875 657.144531 975.519531 653.136719 979.527344 L 637.289062 995.375 C 637.253906 995.414062 637.214844 995.449219 637.179688 995.488281 C 633.222656 999.585938 632.679688 1005.734375 635.800781 1010.347656 L 642.285156 1020.191406 C 640.445312 1023.820312 638.878906 1027.597656 637.59375 1031.492188 L 626.113281 1033.828125 C 620.574219 1034.9375 616.554688 1039.855469 616.554688 1045.523438 L 616.554688 1067.933594 C 616.554688 1073.585938 620.574219 1078.488281 626.0625 1079.585938 L 637.59375 1081.957031 C 638.875 1085.832031 640.441406 1089.609375 642.289062 1093.253906 L 635.855469 1102.988281 C 632.671875 1107.699219 633.273438 1114.03125 637.289062 1118.046875 L 653.140625 1133.898438 C 657.167969 1137.925781 663.503906 1138.539062 668.109375 1135.421875 L 677.957031 1128.929688 C 681.617188 1130.78125 685.394531 1132.347656 689.265625 1133.613281 L 691.625 1145.113281 C 692.734375 1150.648438 697.636719 1154.667969 703.285156 1154.667969 L 725.695312 1154.667969 C 731.34375 1154.667969 736.246094 1150.648438 737.347656 1145.152344 L 739.714844 1133.613281 C 743.585938 1132.347656 747.367188 1130.78125 751.023438 1128.929688 L 760.78125 1135.363281 C 765.480469 1138.539062 771.8125 1137.925781 775.84375 1133.894531 L 791.65625 1118.082031 C 795.726562 1114.082031 796.347656 1107.753906 793.175781 1103.066406 L 786.695312 1093.253906 C 788.539062 1089.609375 790.109375 1085.832031 791.390625 1081.953125 Z M 782.605469 1065.675781 C 779.285156 1066.359375 776.648438 1068.878906 775.808594 1072.164062 C 774.285156 1078.132812 771.910156 1083.847656 768.753906 1089.144531 C 767.011719 1092.0625 767.09375 1095.722656 768.96875 1098.5625 L 775.796875 1108.894531 L 766.664062 1118.027344 L 756.3125 1111.203125 C 753.476562 1109.332031 749.820312 1109.25 746.902344 1110.992188 C 741.585938 1114.164062 735.886719 1116.519531 729.964844 1118 C 726.660156 1118.828125 724.125 1121.476562 723.4375 1124.8125 L 720.949219 1136.957031 L 708.035156 1136.957031 L 705.542969 1124.8125 C 704.859375 1121.476562 702.320312 1118.828125 699.015625 1118 C 693.09375 1116.519531 687.394531 1114.164062 682.078125 1110.992188 C 679.160156 1109.25 675.507812 1109.332031 672.667969 1111.203125 L 662.316406 1118.027344 L 653.183594 1108.894531 L 660.011719 1098.5625 C 661.886719 1095.722656 661.972656 1092.0625 660.230469 1089.144531 C 657.070312 1083.847656 654.695312 1078.132812 653.171875 1072.164062 C 652.335938 1068.878906 649.695312 1066.359375 646.375 1065.675781 L 634.265625 1063.1875 L 634.265625 1050.246094 L 646.355469 1047.785156 C 649.683594 1047.109375 652.332031 1044.589844 653.171875 1041.296875 C 654.710938 1035.269531 657.082031 1029.566406 660.21875 1024.339844 C 661.96875 1021.417969 661.890625 1017.75 660.015625 1014.90625 L 653.179688 1004.535156 L 662.3125 995.402344 L 672.65625 1002.25 C 675.503906 1004.132812 679.183594 1004.210938 682.113281 1002.449219 C 687.382812 999.273438 693.070312 996.910156 699.015625 995.421875 C 702.320312 994.597656 704.859375 991.945312 705.542969 988.609375 L 708.035156 976.46875 L 720.949219 976.46875 L 723.4375 988.609375 C 724.125 991.945312 726.660156 994.597656 729.964844 995.421875 C 735.910156 996.910156 741.597656 999.273438 746.871094 1002.449219 C 749.796875 1004.210938 753.476562 1004.132812 756.328125 1002.25 L 766.671875 995.402344 L 775.800781 1004.535156 L 768.964844 1014.90625 C 767.089844 1017.75 767.011719 1021.417969 768.765625 1024.339844 C 771.902344 1029.566406 774.269531 1035.269531 775.808594 1041.296875 C 776.648438 1044.589844 779.296875 1047.109375 782.625 1047.785156 L 794.753906 1050.253906 L 794.753906 1063.179688 Z M 714.507812 1011.894531 C 689.796875 1011.894531 669.691406 1032 669.691406 1056.710938 C 669.691406 1081.425781 689.796875 1101.53125 714.507812 1101.53125 C 739.203125 1101.53125 759.292969 1081.425781 759.292969 1056.710938 C 759.292969 1032 739.203125 1011.894531 714.507812 1011.894531 Z M 714.507812 1083.820312 C 699.5625 1083.820312 687.402344 1071.660156 687.402344 1056.710938 C 687.402344 1041.765625 699.5625 1029.605469 714.507812 1029.605469 C 729.433594 1029.605469 741.578125 1041.765625 741.578125 1056.710938 C 741.578125 1071.660156 729.433594 1083.820312 714.507812 1083.820312 Z M 1165.585938 961.53125 C 1218.070312 1014.011719 1218.074219 1099.441406 1165.589844 1151.964844 C 1139.332031 1178.222656 1104.839844 1191.351562 1070.351562 1191.351562 C 1035.859375 1191.351562 1001.371094 1178.222656 975.113281 1151.964844 L 949.921875 1126.75 L 951.234375 1133.414062 C 952.179688 1138.210938 949.058594 1142.867188 944.261719 1143.816406 C 943.683594 1143.929688 943.105469 1143.984375 942.535156 1143.984375 C 938.390625 1143.984375 934.691406 1141.0625 933.859375 1136.839844 L 926.902344 1101.597656 C 926.902344 1101.59375 926.902344 1101.59375 926.902344 1101.589844 C 926.839844 1101.269531 926.796875 1100.941406 926.769531 1100.613281 C 926.761719 1100.515625 926.761719 1100.414062 926.753906 1100.3125 C 926.746094 1100.085938 926.738281 1099.859375 926.746094 1099.636719 C 926.75 1099.519531 926.753906 1099.40625 926.761719 1099.289062 C 926.777344 1099.066406 926.800781 1098.84375 926.835938 1098.621094 C 926.847656 1098.523438 926.859375 1098.421875 926.878906 1098.324219 C 926.933594 1098.011719 927 1097.703125 927.089844 1097.398438 C 927.089844 1097.394531 927.089844 1097.390625 927.09375 1097.390625 C 927.1875 1097.070312 927.300781 1096.753906 927.429688 1096.445312 C 927.457031 1096.382812 927.488281 1096.324219 927.515625 1096.261719 C 927.621094 1096.027344 927.738281 1095.792969 927.863281 1095.5625 C 927.914062 1095.476562 927.964844 1095.394531 928.015625 1095.308594 C 928.136719 1095.109375 928.261719 1094.917969 928.398438 1094.730469 C 928.464844 1094.636719 928.53125 1094.546875 928.597656 1094.457031 C 928.738281 1094.28125 928.886719 1094.109375 929.039062 1093.9375 C 929.097656 1093.875 929.144531 1093.808594 929.203125 1093.746094 C 929.222656 1093.726562 929.246094 1093.707031 929.265625 1093.6875 C 929.289062 1093.664062 929.308594 1093.640625 929.332031 1093.617188 C 929.53125 1093.417969 929.738281 1093.234375 929.953125 1093.058594 C 929.96875 1093.042969 929.980469 1093.027344 930 1093.015625 C 930.257812 1092.800781 930.53125 1092.609375 930.808594 1092.429688 C 930.878906 1092.386719 930.949219 1092.347656 931.015625 1092.308594 C 931.234375 1092.175781 931.453125 1092.054688 931.679688 1091.941406 C 931.765625 1091.902344 931.851562 1091.863281 931.941406 1091.820312 C 932.15625 1091.722656 932.375 1091.636719 932.597656 1091.554688 C 932.691406 1091.523438 932.78125 1091.488281 932.875 1091.457031 C 933.117188 1091.382812 933.355469 1091.316406 933.601562 1091.261719 C 933.675781 1091.242188 933.75 1091.222656 933.828125 1091.207031 C 934.144531 1091.140625 934.460938 1091.09375 934.78125 1091.0625 C 934.859375 1091.058594 934.933594 1091.058594 935.007812 1091.054688 C 935.257812 1091.039062 935.503906 1091.027344 935.753906 1091.035156 C 935.867188 1091.035156 935.980469 1091.042969 936.09375 1091.050781 C 936.320312 1091.0625 936.542969 1091.082031 936.765625 1091.113281 C 936.828125 1091.121094 936.890625 1091.121094 936.953125 1091.132812 L 972.414062 1096.652344 C 977.246094 1097.40625 980.554688 1101.933594 979.800781 1106.765625 C 979.050781 1111.597656 974.523438 1114.914062 969.6875 1114.152344 L 961.023438 1112.804688 L 987.640625 1139.445312 C 1033.246094 1185.050781 1107.457031 1185.050781 1153.0625 1139.441406 C 1198.644531 1093.828125 1198.644531 1019.632812 1153.0625 974.054688 C 1107.457031 928.445312 1033.246094 928.445312 987.640625 974.054688 L 898.683594 1063.011719 L 809.726562 1151.964844 C 784.402344 1177.308594 750.589844 1191.265625 714.523438 1191.265625 C 678.453125 1191.265625 644.632812 1177.308594 619.292969 1151.964844 C 566.804688 1099.441406 566.804688 1014.015625 619.292969 961.53125 C 644.632812 936.1875 678.453125 922.230469 714.523438 922.230469 C 750.589844 922.230469 784.402344 936.1875 809.730469 961.53125 L 834.957031 986.742188 L 833.644531 980.085938 C 832.695312 975.289062 835.816406 970.628906 840.617188 969.679688 C 845.414062 968.734375 850.074219 971.855469 851.019531 976.652344 L 857.976562 1011.863281 C 858.039062 1012.1875 858.082031 1012.515625 858.109375 1012.84375 C 858.117188 1012.941406 858.117188 1013.039062 858.121094 1013.140625 C 858.132812 1013.367188 858.136719 1013.59375 858.132812 1013.820312 C 858.128906 1013.9375 858.125 1014.050781 858.117188 1014.164062 C 858.101562 1014.390625 858.078125 1014.609375 858.042969 1014.832031 C 858.03125 1014.933594 858.019531 1015.03125 858 1015.128906 C 857.945312 1015.445312 857.878906 1015.753906 857.789062 1016.0625 C 857.789062 1016.0625 857.789062 1016.066406 857.789062 1016.066406 C 857.695312 1016.386719 857.578125 1016.699219 857.449219 1017.011719 C 857.421875 1017.074219 857.390625 1017.132812 857.363281 1017.195312 C 857.257812 1017.429688 857.144531 1017.660156 857.015625 1017.890625 C 856.96875 1017.976562 856.914062 1018.0625 856.863281 1018.148438 C 856.746094 1018.34375 856.621094 1018.535156 856.484375 1018.722656 C 856.417969 1018.816406 856.351562 1018.910156 856.28125 1019 C 856.144531 1019.175781 855.996094 1019.347656 855.84375 1019.515625 C 855.789062 1019.578125 855.738281 1019.648438 855.679688 1019.710938 C 855.65625 1019.734375 855.632812 1019.753906 855.609375 1019.777344 C 855.589844 1019.796875 855.574219 1019.816406 855.550781 1019.839844 C 855.46875 1019.921875 855.378906 1019.996094 855.292969 1020.074219 C 855.179688 1020.179688 855.066406 1020.285156 854.949219 1020.382812 C 854.820312 1020.492188 854.683594 1020.59375 854.546875 1020.691406 C 854.445312 1020.765625 854.351562 1020.84375 854.25 1020.910156 C 854.082031 1021.023438 853.910156 1021.125 853.738281 1021.226562 C 853.660156 1021.269531 853.585938 1021.320312 853.503906 1021.363281 C 853.308594 1021.46875 853.109375 1021.5625 852.90625 1021.652344 C 852.84375 1021.683594 852.78125 1021.714844 852.71875 1021.742188 C 852.5 1021.832031 852.28125 1021.910156 852.0625 1021.984375 C 852.003906 1022 851.949219 1022.023438 851.894531 1022.042969 C 851.664062 1022.113281 851.433594 1022.167969 851.203125 1022.21875 C 851.148438 1022.230469 851.09375 1022.246094 851.039062 1022.257812 C 850.789062 1022.308594 850.535156 1022.347656 850.28125 1022.375 C 850.246094 1022.378906 850.210938 1022.386719 850.171875 1022.390625 C 849.46875 1022.460938 848.761719 1022.4375 848.0625 1022.339844 C 848.019531 1022.335938 847.976562 1022.335938 847.933594 1022.332031 L 812.4375 1016.84375 C 807.605469 1016.097656 804.292969 1011.574219 805.039062 1006.742188 C 805.785156 1001.90625 810.316406 998.597656 815.144531 999.339844 L 823.855469 1000.6875 L 797.203125 974.058594 C 775.21875 952.054688 745.859375 939.941406 714.523438 939.941406 C 683.183594 939.941406 653.8125 952.058594 631.816406 974.054688 C 586.234375 1019.636719 586.234375 1093.828125 631.816406 1139.445312 C 653.8125 1161.441406 683.183594 1173.554688 714.523438 1173.554688 C 745.859375 1173.554688 775.21875 1161.441406 797.199219 1139.445312 L 886.160156 1050.488281 L 975.113281 961.53125 C 1027.628906 909.015625 1113.074219 909.015625 1165.585938 961.53125 Z M 981.972656 1033.902344 C 976.433594 1035.007812 972.414062 1039.910156 972.414062 1045.5625 L 972.414062 1067.96875 C 972.414062 1073.621094 976.433594 1078.523438 981.929688 1079.621094 L 993.46875 1081.988281 C 994.734375 1085.863281 996.300781 1089.640625 998.152344 1093.296875 L 991.617188 1103.207031 C 988.53125 1107.980469 989.175781 1114.113281 993.1875 1118.117188 L 1009.035156 1133.964844 C 1013.050781 1137.984375 1019.386719 1138.585938 1024.003906 1135.457031 L 1033.84375 1128.972656 C 1037.484375 1130.816406 1041.261719 1132.386719 1045.152344 1133.667969 L 1047.484375 1145.144531 C 1048.597656 1150.703125 1053.515625 1154.738281 1059.183594 1154.738281 L 1081.554688 1154.738281 C 1087.207031 1154.738281 1092.113281 1150.726562 1093.242188 1145.1875 L 1095.613281 1133.664062 C 1099.492188 1132.382812 1103.265625 1130.816406 1106.914062 1128.96875 L 1116.640625 1135.398438 C 1121.351562 1138.585938 1127.6875 1137.984375 1131.703125 1133.964844 L 1147.550781 1118.117188 C 1151.582031 1114.089844 1152.199219 1107.753906 1149.078125 1103.148438 L 1142.585938 1093.296875 C 1144.4375 1089.640625 1146.003906 1085.863281 1147.269531 1081.988281 L 1158.765625 1079.628906 C 1164.304688 1078.523438 1168.324219 1073.621094 1168.324219 1067.96875 L 1168.324219 1045.5625 C 1168.324219 1039.910156 1164.304688 1035.007812 1158.808594 1033.910156 L 1147.269531 1031.542969 C 1146.003906 1027.667969 1144.4375 1023.890625 1142.585938 1020.234375 L 1149.015625 1010.476562 C 1152.199219 1005.777344 1151.582031 999.441406 1147.550781 995.414062 L 1131.703125 979.566406 C 1131.667969 979.527344 1131.628906 979.492188 1131.59375 979.457031 C 1127.492188 975.496094 1121.34375 974.953125 1116.722656 978.078125 L 1106.914062 984.5625 C 1103.265625 982.714844 1099.492188 981.148438 1095.613281 979.867188 L 1093.25 968.386719 C 1092.144531 962.847656 1087.226562 958.828125 1081.554688 958.828125 L 1059.183594 958.828125 C 1053.511719 958.828125 1048.59375 962.847656 1047.492188 968.355469 L 1045.152344 979.863281 C 1041.261719 981.144531 1037.480469 982.714844 1033.84375 984.558594 L 1024.09375 978.132812 C 1019.390625 974.949219 1013.242188 975.496094 1009.140625 979.457031 C 1009.105469 979.492188 1009.070312 979.527344 1009.035156 979.566406 L 993.1875 995.410156 C 989.175781 999.421875 988.53125 1005.550781 991.660156 1010.382812 L 998.152344 1020.234375 C 996.300781 1023.890625 994.734375 1027.667969 993.46875 1031.542969 Z M 1002.265625 1047.820312 C 1005.605469 1047.132812 1008.253906 1044.597656 1009.078125 1041.292969 C 1010.558594 1035.371094 1012.917969 1029.671875 1016.089844 1024.351562 C 1017.828125 1021.4375 1017.746094 1017.78125 1015.878906 1014.945312 L 1009.054688 1004.59375 L 1018.191406 995.457031 L 1028.566406 1002.292969 C 1031.40625 1004.164062 1035.074219 1004.242188 1037.996094 1002.492188 C 1043.246094 999.339844 1048.949219 996.972656 1054.945312 995.449219 C 1058.238281 994.613281 1060.765625 991.964844 1061.441406 988.632812 L 1063.902344 976.539062 L 1076.84375 976.539062 L 1079.335938 988.648438 C 1080.015625 991.96875 1082.535156 994.609375 1085.820312 995.449219 C 1091.789062 996.972656 1097.503906 999.347656 1102.800781 1002.503906 C 1105.722656 1004.246094 1109.378906 1004.160156 1112.21875 1002.285156 L 1122.550781 995.457031 L 1131.683594 1004.59375 L 1124.859375 1014.945312 C 1122.988281 1017.78125 1122.90625 1021.4375 1124.648438 1024.355469 C 1127.820312 1029.671875 1130.179688 1035.371094 1131.660156 1041.289062 C 1132.484375 1044.597656 1135.132812 1047.132812 1138.46875 1047.820312 L 1150.613281 1050.308594 L 1150.613281 1063.222656 L 1138.46875 1065.710938 C 1135.132812 1066.398438 1132.484375 1068.9375 1131.660156 1072.242188 C 1130.179688 1078.164062 1127.820312 1083.859375 1124.648438 1089.179688 C 1122.90625 1092.09375 1122.988281 1095.75 1124.859375 1098.589844 L 1131.683594 1108.9375 L 1122.550781 1118.074219 L 1112.21875 1111.246094 C 1109.378906 1109.371094 1105.722656 1109.285156 1102.800781 1111.027344 C 1097.503906 1114.1875 1091.789062 1116.558594 1085.820312 1118.082031 C 1082.535156 1118.921875 1080.015625 1121.5625 1079.335938 1124.882812 L 1076.839844 1137.027344 L 1063.910156 1137.027344 L 1061.441406 1124.898438 C 1060.765625 1121.566406 1058.238281 1118.917969 1054.945312 1118.082031 C 1048.949219 1116.558594 1043.246094 1114.191406 1037.996094 1111.039062 C 1035.074219 1109.285156 1031.40625 1109.363281 1028.566406 1111.238281 L 1018.191406 1118.078125 L 1009.054688 1108.941406 L 1015.878906 1098.589844 C 1017.746094 1095.753906 1017.828125 1092.097656 1016.089844 1089.179688 C 1012.917969 1083.859375 1010.558594 1078.164062 1009.078125 1072.242188 C 1008.253906 1068.9375 1005.605469 1066.398438 1002.265625 1065.714844 L 990.125 1063.222656 L 990.125 1050.308594 Z M 1070.367188 1101.566406 C 1095.082031 1101.566406 1115.1875 1081.476562 1115.1875 1056.785156 C 1115.1875 1032.070312 1095.082031 1011.964844 1070.367188 1011.964844 C 1045.65625 1011.964844 1025.550781 1032.070312 1025.550781 1056.785156 C 1025.550781 1081.476562 1045.65625 1101.566406 1070.367188 1101.566406 Z M 1070.367188 1029.675781 C 1085.316406 1029.675781 1097.476562 1041.835938 1097.476562 1056.785156 C 1097.476562 1071.710938 1085.316406 1083.855469 1070.367188 1083.855469 C 1055.421875 1083.855469 1043.261719 1071.710938 1043.261719 1056.785156 C 1043.261719 1041.835938 1055.421875 1029.675781 1070.367188 1029.675781 Z M 1058.285156 731.148438 L 1024.90625 731.148438 C 1020.015625 731.148438 1016.046875 727.183594 1016.046875 722.292969 C 1016.046875 717.402344 1020.015625 713.4375 1024.90625 713.4375 L 1058.285156 713.4375 C 1063.175781 713.4375 1067.140625 717.402344 1067.140625 722.292969 C 1067.140625 727.183594 1063.175781 731.148438 1058.285156 731.148438 Z M 802.710938 651.300781 C 800.445312 651.300781 798.179688 650.433594 796.449219 648.707031 L 772.855469 625.113281 C 769.398438 621.65625 769.398438 616.046875 772.855469 612.589844 C 776.316406 609.132812 781.921875 609.132812 785.382812 612.589844 L 808.972656 636.183594 C 812.433594 639.640625 812.433594 645.25 808.972656 648.707031 C 807.246094 650.433594 804.976562 651.300781 802.710938 651.300781 Z M 759.972656 731.148438 L 726.589844 731.148438 C 721.699219 731.148438 717.734375 727.183594 717.734375 722.292969 C 717.734375 717.402344 721.699219 713.4375 726.589844 713.4375 L 759.972656 713.4375 C 764.863281 713.4375 768.828125 717.402344 768.828125 722.292969 C 768.828125 727.183594 764.863281 731.148438 759.972656 731.148438 Z M 1012.019531 625.113281 L 988.425781 648.707031 C 986.699219 650.433594 984.433594 651.300781 982.164062 651.300781 C 979.898438 651.300781 977.632812 650.433594 975.902344 648.707031 C 972.445312 645.25 972.445312 639.640625 975.902344 636.183594 L 999.496094 612.589844 C 1002.953125 609.132812 1008.5625 609.132812 1012.019531 612.589844 C 1015.480469 616.046875 1015.480469 621.65625 1012.019531 625.113281 Z M 892.421875 617.488281 C 887.53125 617.488281 883.566406 613.523438 883.566406 608.632812 L 883.566406 575.253906 C 883.566406 570.359375 887.53125 566.394531 892.421875 566.394531 C 897.3125 566.394531 901.277344 570.359375 901.277344 575.253906 L 901.277344 608.632812 C 901.277344 613.523438 897.3125 617.488281 892.421875 617.488281 Z M 979.039062 809.242188 C 991.066406 791.027344 1003.5 772.191406 1003.5 739.433594 C 1003.5 678.203125 953.671875 628.390625 892.421875 628.390625 C 831.191406 628.390625 781.378906 678.203125 781.378906 739.433594 C 781.378906 772.191406 793.8125 791.027344 805.839844 809.242188 C 812.953125 820.023438 820.3125 831.171875 825.523438 845.722656 L 826.160156 847.527344 C 820.25 852.417969 816.480469 859.796875 816.480469 868.042969 C 816.480469 880.960938 825.734375 891.75 837.96875 894.167969 C 838.195312 924.007812 862.53125 948.214844 892.421875 948.214844 C 922.332031 948.214844 946.683594 924.007812 946.910156 894.167969 C 959.121094 891.746094 968.359375 880.957031 968.359375 868.042969 C 968.359375 859.804688 964.597656 852.429688 958.707031 847.539062 L 959.347656 845.75 C 964.566406 831.167969 971.921875 820.023438 979.039062 809.242188 Z M 892.421875 930.503906 C 872.46875 930.503906 856.191406 914.519531 855.691406 894.683594 L 929.183594 894.683594 C 928.6875 914.519531 912.390625 930.503906 892.421875 930.503906 Z M 941.722656 876.972656 L 843.15625 876.972656 C 838.214844 876.972656 834.191406 872.964844 834.191406 868.042969 C 834.191406 863.121094 838.214844 859.113281 843.15625 859.113281 L 941.722656 859.113281 C 946.644531 859.113281 950.648438 863.121094 950.648438 868.042969 C 950.648438 872.964844 946.644531 876.972656 941.722656 876.972656 Z M 867.644531 758.648438 L 859.21875 758.648438 C 854.574219 758.648438 850.792969 754.871094 850.792969 750.222656 C 850.792969 745.578125 854.574219 741.796875 859.21875 741.796875 C 863.867188 741.796875 867.644531 745.578125 867.644531 750.222656 Z M 885.355469 776.363281 L 899.519531 776.363281 L 899.519531 841.402344 L 885.355469 841.402344 Z M 941.722656 841.402344 L 917.230469 841.402344 L 917.230469 776.363281 L 925.660156 776.363281 C 940.070312 776.363281 951.796875 764.636719 951.796875 750.222656 C 951.796875 735.8125 940.070312 724.085938 925.660156 724.085938 C 911.246094 724.085938 899.519531 735.8125 899.519531 750.222656 L 899.519531 758.648438 L 885.355469 758.648438 L 885.355469 750.222656 C 885.355469 735.8125 873.632812 724.085938 859.21875 724.085938 C 844.808594 724.085938 833.082031 735.8125 833.082031 750.222656 C 833.082031 764.636719 844.808594 776.363281 859.21875 776.363281 L 867.644531 776.363281 L 867.644531 841.402344 L 843.15625 841.402344 C 843.03125 841.402344 842.914062 841.417969 842.789062 841.421875 L 842.207031 839.78125 C 836.269531 823.191406 828.3125 811.140625 820.621094 799.484375 C 809.066406 781.984375 799.089844 766.871094 799.089844 739.433594 C 799.089844 687.96875 840.957031 646.101562 892.421875 646.101562 C 943.902344 646.101562 985.789062 687.96875 985.789062 739.433594 C 985.789062 766.871094 975.808594 781.984375 964.257812 799.484375 C 956.5625 811.140625 948.609375 823.191406 942.671875 839.777344 L 942.082031 841.421875 C 941.960938 841.417969 941.84375 841.402344 941.722656 841.402344 Z M 917.230469 758.648438 L 917.230469 750.222656 C 917.230469 745.578125 921.011719 741.796875 925.660156 741.796875 C 930.304688 741.796875 934.085938 745.578125 934.085938 750.222656 C 934.085938 754.871094 930.304688 758.648438 925.660156 758.648438 Z M 1061.511719 893.105469 L 1061.511719 826.910156 L 1046.539062 844.792969 C 1043.398438 848.542969 1037.8125 849.039062 1034.0625 845.898438 C 1030.3125 842.757812 1029.820312 837.171875 1032.957031 833.421875 L 1063.535156 796.90625 C 1063.535156 796.902344 1063.535156 796.902344 1063.535156 796.902344 L 1063.578125 796.851562 C 1063.617188 796.804688 1063.664062 796.761719 1063.707031 796.714844 C 1063.859375 796.539062 1064.019531 796.367188 1064.183594 796.203125 C 1064.265625 796.125 1064.351562 796.050781 1064.433594 795.976562 C 1064.578125 795.84375 1064.726562 795.71875 1064.878906 795.597656 C 1064.96875 795.523438 1065.0625 795.457031 1065.15625 795.386719 C 1065.3125 795.273438 1065.472656 795.164062 1065.636719 795.058594 C 1065.730469 795 1065.824219 794.941406 1065.921875 794.886719 C 1066.097656 794.785156 1066.273438 794.691406 1066.457031 794.597656 C 1066.550781 794.554688 1066.640625 794.507812 1066.730469 794.46875 C 1066.929688 794.378906 1067.128906 794.300781 1067.335938 794.226562 C 1067.417969 794.195312 1067.503906 794.160156 1067.589844 794.132812 C 1067.804688 794.058594 1068.027344 794 1068.253906 793.945312 C 1068.332031 793.925781 1068.410156 793.902344 1068.488281 793.882812 C 1068.726562 793.832031 1068.964844 793.796875 1069.207031 793.765625 C 1069.28125 793.753906 1069.347656 793.738281 1069.417969 793.730469 C 1069.730469 793.699219 1070.046875 793.679688 1070.367188 793.679688 C 1070.691406 793.679688 1071.007812 793.699219 1071.316406 793.730469 C 1071.390625 793.738281 1071.457031 793.753906 1071.527344 793.765625 C 1071.773438 793.796875 1072.011719 793.832031 1072.25 793.882812 C 1072.328125 793.902344 1072.40625 793.925781 1072.484375 793.945312 C 1072.710938 794 1072.933594 794.058594 1073.148438 794.132812 C 1073.234375 794.160156 1073.316406 794.195312 1073.402344 794.226562 C 1073.605469 794.300781 1073.808594 794.378906 1074.003906 794.46875 C 1074.097656 794.507812 1074.1875 794.554688 1074.28125 794.597656 C 1074.460938 794.691406 1074.640625 794.785156 1074.816406 794.886719 C 1074.914062 794.941406 1075.007812 795 1075.101562 795.058594 C 1075.265625 795.164062 1075.421875 795.273438 1075.578125 795.386719 C 1075.675781 795.457031 1075.769531 795.523438 1075.859375 795.597656 C 1076.011719 795.71875 1076.160156 795.84375 1076.300781 795.976562 C 1076.386719 796.050781 1076.472656 796.125 1076.550781 796.203125 C 1076.71875 796.367188 1076.878906 796.539062 1077.03125 796.714844 C 1077.074219 796.761719 1077.117188 796.804688 1077.160156 796.851562 L 1077.199219 796.902344 C 1077.203125 796.902344 1077.203125 796.902344 1077.203125 796.902344 L 1107.777344 833.421875 C 1110.917969 837.171875 1110.425781 842.757812 1106.675781 845.898438 C 1105.015625 847.285156 1103 847.964844 1100.992188 847.964844 C 1098.460938 847.964844 1095.949219 846.886719 1094.199219 844.792969 L 1079.226562 826.910156 L 1079.226562 893.105469 C 1079.226562 897.996094 1075.257812 901.960938 1070.367188 901.960938 C 1065.476562 901.960938 1061.511719 897.996094 1061.511719 893.105469 Z M 705.652344 893.105469 L 705.652344 826.886719 L 690.640625 844.796875 C 688.886719 846.886719 686.378906 847.964844 683.847656 847.964844 C 681.839844 847.964844 679.824219 847.285156 678.164062 845.894531 C 674.414062 842.753906 673.921875 837.167969 677.066406 833.417969 L 707.675781 796.902344 L 707.722656 796.847656 C 707.761719 796.796875 707.8125 796.753906 707.855469 796.707031 C 708.003906 796.53125 708.160156 796.363281 708.324219 796.203125 C 708.40625 796.121094 708.496094 796.046875 708.578125 795.972656 C 708.722656 795.84375 708.867188 795.714844 709.015625 795.597656 C 709.109375 795.523438 709.207031 795.453125 709.300781 795.382812 C 709.457031 795.269531 709.613281 795.164062 709.773438 795.058594 C 709.871094 795 709.96875 794.941406 710.0625 794.882812 C 710.238281 794.785156 710.414062 794.6875 710.597656 794.601562 C 710.6875 794.554688 710.78125 794.507812 710.875 794.464844 C 711.070312 794.378906 711.269531 794.300781 711.472656 794.226562 C 711.558594 794.195312 711.644531 794.160156 711.730469 794.132812 C 711.945312 794.058594 712.167969 794 712.390625 793.945312 C 712.472656 793.925781 712.550781 793.902344 712.628906 793.882812 C 712.863281 793.832031 713.105469 793.796875 713.347656 793.765625 C 713.417969 793.753906 713.488281 793.738281 713.558594 793.734375 C 713.871094 793.699219 714.1875 793.679688 714.507812 793.679688 C 714.507812 793.679688 714.507812 793.679688 714.511719 793.679688 C 714.519531 793.679688 714.527344 793.683594 714.535156 793.683594 C 714.847656 793.683594 715.15625 793.699219 715.457031 793.734375 C 715.53125 793.742188 715.601562 793.757812 715.675781 793.765625 C 715.917969 793.796875 716.15625 793.835938 716.390625 793.886719 C 716.472656 793.902344 716.550781 793.925781 716.632812 793.949219 C 716.855469 794.003906 717.074219 794.0625 717.289062 794.132812 C 717.375 794.160156 717.460938 794.195312 717.546875 794.226562 C 717.75 794.300781 717.949219 794.378906 718.144531 794.46875 C 718.238281 794.511719 718.332031 794.554688 718.421875 794.601562 C 718.601562 794.691406 718.78125 794.785156 718.953125 794.886719 C 719.050781 794.941406 719.148438 795 719.242188 795.0625 C 719.40625 795.164062 719.5625 795.273438 719.71875 795.386719 C 719.8125 795.457031 719.910156 795.523438 720 795.597656 C 720.152344 795.71875 720.296875 795.847656 720.441406 795.976562 C 720.527344 796.050781 720.609375 796.125 720.691406 796.203125 C 720.859375 796.367188 721.015625 796.539062 721.171875 796.714844 C 721.210938 796.761719 721.257812 796.804688 721.296875 796.851562 L 721.339844 796.902344 C 721.339844 796.902344 721.34375 796.902344 721.34375 796.90625 L 751.917969 833.421875 C 755.058594 837.171875 754.5625 842.757812 750.8125 845.898438 C 747.0625 849.039062 741.476562 848.542969 738.339844 844.792969 L 723.363281 826.910156 L 723.363281 893.105469 C 723.363281 897.996094 719.398438 901.960938 714.507812 901.960938 C 709.617188 901.960938 705.652344 897.996094 705.652344 893.105469 Z M 705.652344 893.105469 " fill-opacity="1" fill-rule="nonzero"/></g><g clip-path="url(#6f439dcecc)"><path stroke-linecap="butt" transform="matrix(1.264882, 0, 0, 1.264882, 568.629435, 555.063812)" fill="none" stroke-linejoin="miter" d="M 185.188565 414.686895 C 189.58312 413.809837 192.773265 409.934105 192.773265 405.46852 L 192.773265 387.751327 C 192.773265 383.273389 189.58312 379.385303 185.210182 378.511333 L 176.10916 376.658394 C 175.096219 373.579425 173.85475 370.593104 172.400192 367.724135 L 177.483423 360.012818 C 180.003422 356.28532 179.524745 351.279294 176.350042 348.107679 L 163.82108 335.575629 C 160.652553 332.407102 155.804027 331.897544 151.974618 334.377395 L 144.204624 339.516215 C 141.320214 338.049304 138.327717 336.807834 135.258013 335.80107 L 133.39272 326.709312 C 132.515662 322.330198 128.63993 319.155494 124.174345 319.155494 L 106.457152 319.155494 C 102.000831 319.155494 98.128187 322.320933 97.244953 326.687695 L 95.373483 335.80107 C 92.30378 336.804746 89.31437 338.049304 86.426872 339.516215 L 78.598201 334.337248 C 74.827469 331.897544 69.978943 332.407102 66.810416 335.575629 L 54.281454 348.104591 C 54.25366 348.135473 54.222778 348.163267 54.194984 348.19415 C 51.066604 351.433706 50.637339 356.294585 53.104838 359.941788 L 58.231305 367.724135 C 56.776747 370.593104 55.538365 373.579425 54.522337 376.658394 L 45.44602 378.505157 C 41.066905 379.382215 37.889114 383.270301 37.889114 387.751327 L 37.889114 405.46852 C 37.889114 409.937193 41.066905 413.812925 45.405873 414.680719 L 54.522337 416.555276 C 55.535277 419.618803 56.773659 422.605125 58.234393 425.486446 L 53.148073 433.182323 C 50.631163 436.906732 51.106751 441.912758 54.281454 445.087461 L 66.813504 457.619511 C 69.997472 460.803479 75.006586 461.288332 78.647613 458.823922 L 86.433049 453.691279 C 89.326723 455.155101 92.313044 456.393482 95.373483 457.39407 L 97.238776 466.485828 C 98.115834 470.861854 101.991567 474.039646 106.457152 474.039646 L 124.174345 474.039646 C 128.63993 474.039646 132.515662 470.861854 133.386544 466.51671 L 135.258013 457.39407 C 138.318452 456.393482 141.307862 455.155101 144.198448 453.691279 L 151.912854 458.777598 C 155.627998 461.288332 160.634024 460.803479 163.82108 457.616423 L 176.322248 445.115255 C 179.540187 441.952905 180.031216 436.949967 177.52357 433.244088 L 172.400192 425.486446 C 173.857838 422.605125 175.099307 419.618803 176.112248 416.552188 Z M 169.166812 403.683521 C 166.541814 404.223962 164.457256 406.215872 163.793286 408.813076 C 162.588875 413.531896 160.71123 418.049981 158.215937 422.237625 C 156.838586 424.544535 156.903438 427.438209 158.38579 429.683355 L 163.784022 437.851731 L 156.563733 445.07202 L 148.379915 439.676877 C 146.137858 438.197613 143.247272 438.13276 140.940362 439.510112 C 136.737277 442.017758 132.231545 443.879962 127.549783 445.050403 C 124.937138 445.705108 122.932875 447.79893 122.389346 450.436281 L 120.422142 460.037597 L 110.212443 460.037597 L 108.24215 450.436281 C 107.70171 447.79893 105.694358 445.705108 103.081713 445.050403 C 98.399952 443.879962 93.89422 442.017758 89.691135 439.510112 C 87.384224 438.13276 84.496727 438.197613 82.251581 439.676877 L 74.067764 445.07202 L 66.847475 437.851731 L 72.245706 429.683355 C 73.728058 427.438209 73.795999 424.544535 72.418647 422.237625 C 69.920267 418.049981 68.042621 413.531896 66.83821 408.813076 C 66.177328 406.215872 64.089683 404.223962 61.464685 403.683521 L 51.891162 401.716316 L 51.891162 391.485 L 61.449243 389.539414 C 64.080418 389.005149 66.17424 387.013239 66.83821 384.409859 C 68.054974 379.644715 69.929531 375.135895 72.409382 371.003839 C 73.792911 368.693841 73.731146 365.79399 72.248794 363.545756 L 66.844386 355.346497 L 74.064675 348.126209 L 82.242316 353.539881 C 84.493638 355.028409 87.402754 355.090174 89.718929 353.697381 C 93.884955 351.186647 98.381422 349.318266 103.081713 348.14165 C 105.694358 347.490033 107.70171 345.393122 108.24215 342.755771 L 110.212443 333.157543 L 120.422142 333.157543 L 122.389346 342.755771 C 122.932875 345.393122 124.937138 347.490033 127.549783 348.14165 C 132.250074 349.318266 136.746541 351.186647 140.915656 353.697381 C 143.228743 355.090174 146.137858 355.028409 148.392268 353.539881 L 156.569909 348.126209 L 163.78711 355.346497 L 158.382702 363.545756 C 156.90035 365.79399 156.838586 368.693841 158.225202 371.003839 C 160.705053 375.135895 162.576523 379.644715 163.793286 384.409859 C 164.457256 387.013239 166.551078 389.005149 169.182253 389.539414 L 178.771217 391.491177 L 178.771217 401.71014 Z M 115.329645 361.164728 C 95.793483 361.164728 79.898348 377.059864 79.898348 396.596026 C 79.898348 416.135277 95.793483 432.030412 115.329645 432.030412 C 134.853455 432.030412 150.736237 416.135277 150.736237 396.596026 C 150.736237 377.059864 134.853455 361.164728 115.329645 361.164728 Z M 115.329645 418.028363 C 103.514066 418.028363 93.900396 408.414694 93.900396 396.596026 C 93.900396 384.780446 103.514066 375.166777 115.329645 375.166777 C 127.129784 375.166777 136.7311 384.780446 136.7311 396.596026 C 136.7311 408.414694 127.129784 418.028363 115.329645 418.028363 Z M 471.946444 321.34814 C 513.439943 362.838551 513.443031 430.378207 471.949532 471.902589 C 451.19043 492.661691 423.921332 503.041243 396.655322 503.041243 C 369.386225 503.041243 342.120215 492.661691 321.361113 471.902589 L 301.445098 451.968045 L 302.482744 457.23657 C 303.230096 461.02892 300.762598 464.710094 296.970248 465.460535 C 296.513189 465.550093 296.056131 465.593329 295.605249 465.593329 C 292.328634 465.593329 289.404077 463.28333 288.746283 459.94495 L 283.24614 432.082912 C 283.24614 432.079824 283.24614 432.079824 283.24614 432.076736 C 283.196729 431.8235 283.162758 431.564089 283.14114 431.304677 C 283.134964 431.227471 283.134964 431.147177 283.128787 431.066883 C 283.122611 430.887766 283.116435 430.708648 283.122611 430.532619 C 283.125699 430.439972 283.128787 430.350413 283.134964 430.257766 C 283.147317 430.081737 283.165846 429.905708 283.19364 429.729678 C 283.202905 429.652473 283.21217 429.572179 283.227611 429.494973 C 283.270846 429.247914 283.323346 429.003944 283.394376 428.763061 C 283.394376 428.759973 283.394376 428.756885 283.397464 428.756885 C 283.471581 428.50365 283.56114 428.253503 283.663052 428.009533 C 283.684669 427.960121 283.709375 427.913797 283.730993 427.864386 C 283.814375 427.679092 283.907022 427.493798 284.005846 427.311592 C 284.045993 427.243651 284.08614 427.178798 284.126287 427.110857 C 284.222022 426.953357 284.320845 426.802033 284.428934 426.653798 C 284.481434 426.579681 284.533934 426.508651 284.586433 426.437622 C 284.69761 426.298651 284.814963 426.162769 284.935404 426.026887 C 284.981727 425.977475 285.018786 425.924975 285.06511 425.875564 C 285.080551 425.860122 285.09908 425.844681 285.114521 425.82924 C 285.133051 425.810711 285.148492 425.792181 285.167021 425.773652 C 285.324521 425.616152 285.488198 425.471005 285.65805 425.332035 C 285.670403 425.319682 285.679668 425.307329 285.695109 425.298064 C 285.898933 425.128211 286.115109 424.976888 286.334373 424.834829 C 286.389962 424.800858 286.44555 424.769976 286.49805 424.739094 C 286.670991 424.634094 286.843932 424.538359 287.023049 424.4488 C 287.09099 424.417918 287.158932 424.387035 287.229961 424.353065 C 287.399814 424.275859 287.572755 424.207918 287.748784 424.143065 C 287.822902 424.118359 287.893931 424.090565 287.968049 424.065859 C 288.159519 424.007183 288.347901 423.954683 288.54246 423.911447 C 288.601136 423.896006 288.659813 423.880565 288.721578 423.868212 C 288.971724 423.815712 289.221871 423.778653 289.475106 423.753947 C 289.536871 423.750859 289.595547 423.750859 289.654224 423.747771 C 289.851871 423.735418 290.046429 423.726153 290.244076 423.73233 C 290.333635 423.73233 290.423194 423.738506 290.512753 423.744683 C 290.69187 423.753947 290.867899 423.769389 291.043929 423.794094 C 291.09334 423.800271 291.142752 423.800271 291.192164 423.809536 L 319.227143 428.173209 C 323.047288 428.769238 325.663021 432.3485 325.066992 436.168644 C 324.474051 439.988789 320.894789 442.610698 317.071557 442.008493 L 310.221856 440.943053 L 331.265076 462.004802 C 367.320197 498.059923 425.990448 498.059923 462.045569 462.001714 C 498.08216 425.940416 498.08216 367.282518 462.045569 331.249015 C 425.990448 295.190806 367.320197 295.190806 331.265076 331.249015 L 260.936745 401.577346 L 190.608414 471.902589 C 170.587399 491.939045 143.855654 502.973301 115.341998 502.973301 C 86.825254 502.973301 60.087333 491.939045 40.053965 471.902589 C -1.442622 430.378207 -1.442622 362.841639 40.053965 321.34814 C 60.087333 301.311684 86.825254 290.277427 115.341998 290.277427 C 143.855654 290.277427 170.587399 301.311684 190.611502 321.34814 L 210.555311 341.279596 L 209.517665 336.017247 C 208.767224 332.224897 211.234722 328.540635 215.030161 327.790194 C 218.822511 327.042842 222.506773 329.51034 223.254125 333.30269 L 228.754268 361.140023 C 228.80368 361.396346 228.837651 361.655757 228.859268 361.915169 C 228.865445 361.992375 228.865445 362.069581 228.868533 362.149875 C 228.877798 362.328992 228.880886 362.50811 228.877798 362.687227 C 228.874709 362.779874 228.871621 362.869433 228.865445 362.958992 C 228.853092 363.138109 228.834562 363.31105 228.806768 363.48708 C 228.797504 363.567374 228.788239 363.64458 228.772798 363.721785 C 228.729562 363.971932 228.677063 364.215903 228.606033 364.459873 C 228.606033 364.459873 228.606033 364.462961 228.606033 364.462961 C 228.531916 364.716196 228.439269 364.963255 228.337357 365.210314 C 228.315739 365.259725 228.291033 365.306049 228.269416 365.355461 C 228.186033 365.540755 228.096475 365.72296 227.994563 365.905166 C 227.957504 365.973107 227.914269 366.041048 227.874122 366.10899 C 227.781475 366.263401 227.682651 366.414725 227.574563 366.56296 C 227.522063 366.637077 227.469563 366.711195 227.413975 366.782224 C 227.305887 366.921195 227.188534 367.057077 227.068093 367.189871 C 227.024858 367.239283 226.984711 367.294871 226.938387 367.344283 C 226.919858 367.362812 226.901329 367.378253 226.882799 367.396783 C 226.867358 367.412224 226.855005 367.427665 226.836476 367.446194 C 226.771623 367.511047 226.700593 367.569724 226.632652 367.631488 C 226.543093 367.714871 226.453535 367.798253 226.360888 367.875459 C 226.258976 367.961929 226.150888 368.042223 226.0428 368.119429 C 225.962506 368.178106 225.888388 368.23987 225.808094 368.29237 C 225.6753 368.381929 225.539418 368.462223 225.403535 368.542517 C 225.341771 368.576488 225.283094 368.616635 225.218241 368.650605 C 225.06383 368.733988 224.90633 368.808105 224.745742 368.879135 C 224.69633 368.90384 224.646918 368.928546 224.597507 368.950164 C 224.424566 369.021193 224.251625 369.082958 224.078684 369.141634 C 224.03236 369.153987 223.989125 369.172517 223.945889 369.187958 C 223.763684 369.243546 223.581478 369.286781 223.399272 369.326928 C 223.356037 369.336193 223.312802 369.348546 223.269566 369.357811 C 223.07192 369.397958 222.871184 369.42884 222.670449 369.450458 C 222.642655 369.453546 222.614861 369.459722 222.583979 369.462811 C 222.028097 369.518399 221.469127 369.499869 220.916333 369.422664 C 220.882362 369.419575 220.848392 369.419575 220.814421 369.416487 L 192.751648 365.07752 C 188.931503 364.487667 186.312682 360.911493 186.902534 357.091349 C 187.492387 353.268117 191.074737 350.652383 194.891793 351.239147 L 201.778553 352.304588 L 180.707539 331.252103 C 163.326963 313.856086 140.115804 304.279476 115.341998 304.279476 C 90.565104 304.279476 67.34468 313.859175 49.95484 331.249015 C 13.918249 367.285606 13.918249 425.940416 49.95484 462.004802 C 67.34468 479.394642 90.565104 488.971253 115.341998 488.971253 C 140.115804 488.971253 163.326963 479.394642 180.70445 462.004802 L 251.03587 391.676471 L 321.361113 321.34814 C 362.879318 279.829935 430.431327 279.829935 471.946444 321.34814 Z M 326.78405 378.563833 C 322.404935 379.437803 319.227143 383.313536 319.227143 387.782209 L 319.227143 405.496314 C 319.227143 409.964987 322.404935 413.840719 326.750079 414.708513 L 335.87272 416.579982 C 336.873307 419.643509 338.111689 422.629831 339.575511 425.520417 L 334.408897 433.355264 C 331.969193 437.129085 332.478751 441.977611 335.650367 445.14305 L 348.179328 457.672011 C 351.354032 460.849803 356.363146 461.325391 360.013437 458.851716 L 367.792696 453.725249 C 370.670929 455.182895 373.657251 456.424365 376.733131 457.437305 L 378.576806 466.510534 C 379.456952 470.90509 383.345038 474.095234 387.826064 474.095234 L 405.512375 474.095234 C 409.981048 474.095234 413.859869 470.923619 414.752368 466.544504 L 416.626925 457.434217 C 419.693541 456.421277 422.676774 455.182895 425.561184 453.722161 L 433.250884 458.805392 C 436.975293 461.325391 441.984407 460.849803 445.15911 457.672011 L 457.688072 445.14305 C 460.875128 441.959081 461.363069 436.949967 458.895571 433.30894 L 453.762928 425.520417 C 455.22675 422.629831 456.465132 419.643509 457.465719 416.579982 L 466.554389 414.714689 C 470.933503 413.840719 474.111295 409.964987 474.111295 405.496314 L 474.111295 387.782209 C 474.111295 383.313536 470.933503 379.437803 466.588359 378.57001 L 457.465719 376.698541 C 456.465132 373.635013 455.22675 370.648692 453.762928 367.758106 L 458.846159 360.0437 C 461.363069 356.328555 460.875128 351.319442 457.688072 348.135473 L 445.15911 335.606512 C 445.131316 335.575629 445.100434 335.547835 445.07264 335.520041 C 441.829995 332.388573 436.969116 331.959309 433.315737 334.429895 L 425.561184 339.556362 C 422.676774 338.095628 419.693541 336.857246 416.626925 335.844306 L 414.758544 326.767989 C 413.884574 322.388874 409.996489 319.211083 405.512375 319.211083 L 387.826064 319.211083 C 383.34195 319.211083 379.453864 322.388874 378.582983 326.743283 L 376.733131 335.841218 C 373.657251 336.854158 370.667841 338.095628 367.792696 339.553274 L 360.084467 334.47313 C 356.366234 331.95622 351.505355 332.388573 348.262711 335.520041 C 348.234916 335.547835 348.207122 335.575629 348.179328 335.606512 L 335.650367 348.132385 C 332.478751 351.304 331.969193 356.149438 334.442868 359.969582 L 339.575511 367.758106 C 338.111689 370.648692 336.873307 373.635013 335.87272 376.698541 Z M 342.82742 389.567208 C 345.46786 389.023679 347.561682 387.019415 348.213299 384.40677 C 349.383739 379.725009 351.249032 375.219277 353.756677 371.013104 C 355.130941 368.709282 355.066088 365.818696 353.589913 363.576638 L 348.194769 355.392821 L 355.418146 348.169444 L 363.620493 353.573852 C 365.865639 355.053115 368.76549 355.11488 371.075488 353.731352 C 375.226073 351.239147 379.734893 349.367678 384.475331 348.163267 C 387.078712 347.502385 389.076798 345.408563 389.611063 342.774301 L 391.55665 333.213131 L 401.787966 333.213131 L 403.758258 342.786654 C 404.295611 345.411652 406.287521 347.499297 408.884725 348.163267 C 413.603545 349.367678 418.12163 351.245324 422.309274 353.740616 C 424.619272 355.117968 427.509859 355.050027 429.755004 353.567675 L 437.92338 348.169444 L 445.143669 355.392821 L 439.748526 363.576638 C 438.269262 365.818696 438.20441 368.709282 439.581762 371.016192 C 442.089407 375.219277 443.9547 379.725009 445.12514 384.403682 C 445.776757 387.019415 447.870579 389.023679 450.50793 389.567208 L 460.109247 391.534412 L 460.109247 401.744111 L 450.50793 403.711315 C 447.870579 404.254844 445.776757 406.262196 445.12514 408.874841 C 443.9547 413.556602 442.089407 418.059246 439.581762 422.265419 C 438.20441 424.569241 438.269262 427.459827 439.748526 429.704973 L 445.143669 437.885702 L 437.92338 445.109079 L 429.755004 439.710848 C 427.509859 438.228496 424.619272 438.160555 422.309274 439.537907 C 418.12163 442.036287 413.603545 443.910845 408.884725 445.115255 C 406.287521 445.779226 404.295611 447.866871 403.758258 450.491869 L 401.784877 460.093186 L 391.562826 460.093186 L 389.611063 450.504222 C 389.076798 447.869959 387.078712 445.776137 384.475331 445.115255 C 379.734893 443.910845 375.226073 442.039375 371.075488 439.547171 C 368.76549 438.160555 365.865639 438.222319 363.620493 439.704671 L 355.418146 445.112167 L 348.194769 437.88879 L 353.589913 429.704973 C 355.066088 427.462915 355.130941 424.572329 353.756677 422.265419 C 351.249032 418.059246 349.383739 413.556602 348.213299 408.874841 C 347.561682 406.262196 345.46786 404.254844 342.82742 403.714403 L 333.229192 401.744111 L 333.229192 391.534412 Z M 396.667675 432.058206 C 416.206926 432.058206 432.102061 416.175424 432.102061 396.654703 C 432.102061 377.115452 416.206926 361.220317 396.667675 361.220317 C 377.131513 361.220317 361.236378 377.115452 361.236378 396.654703 C 361.236378 416.175424 377.131513 432.058206 396.667675 432.058206 Z M 396.667675 375.222365 C 408.486343 375.222365 418.100012 384.836035 418.100012 396.654703 C 418.100012 408.454841 408.486343 418.056158 396.667675 418.056158 C 384.852096 418.056158 375.238426 408.454841 375.238426 396.654703 C 375.238426 384.836035 384.852096 375.222365 396.667675 375.222365 Z M 387.11577 139.210332 L 360.726819 139.210332 C 356.860351 139.210332 353.722707 136.075775 353.722707 132.209307 C 353.722707 128.34284 356.860351 125.208283 360.726819 125.208283 L 387.11577 125.208283 C 390.982238 125.208283 394.116795 128.34284 394.116795 132.209307 C 394.116795 136.075775 390.982238 139.210332 387.11577 139.210332 Z M 185.061947 76.08376 C 183.270772 76.08376 181.479597 75.398172 180.11151 74.033173 L 161.458582 55.380246 C 158.725496 52.647159 158.725496 48.212457 161.458582 45.479371 C 164.194757 42.746284 168.626371 42.746284 171.362546 45.479371 L 190.012385 64.132298 C 192.748559 66.865384 192.748559 71.300087 190.012385 74.033173 C 188.647386 75.398172 186.853122 76.08376 185.061947 76.08376 Z M 151.27359 139.210332 L 124.88155 139.210332 C 121.015082 139.210332 117.880526 136.075775 117.880526 132.209307 C 117.880526 128.34284 121.015082 125.208283 124.88155 125.208283 L 151.27359 125.208283 C 155.140057 125.208283 158.274614 128.34284 158.274614 132.209307 C 158.274614 136.075775 155.140057 139.210332 151.27359 139.210332 Z M 350.538738 55.380246 L 331.885811 74.033173 C 330.520812 75.398172 328.729637 76.08376 326.935373 76.08376 C 325.144198 76.08376 323.353023 75.398172 321.984936 74.033173 C 319.251849 71.300087 319.251849 66.865384 321.984936 64.132298 L 340.637863 45.479371 C 343.370949 42.746284 347.805652 42.746284 350.538738 45.479371 C 353.274913 48.212457 353.274913 52.647159 350.538738 55.380246 Z M 255.986307 49.352015 C 252.11984 49.352015 248.985283 46.217458 248.985283 42.350991 L 248.985283 15.962039 C 248.985283 12.092483 252.11984 8.957927 255.986307 8.957927 C 259.852775 8.957927 262.987332 12.092483 262.987332 15.962039 L 262.987332 42.350991 C 262.987332 46.217458 259.852775 49.352015 255.986307 49.352015 Z M 324.464787 200.950287 C 333.973456 186.549856 343.803302 171.658396 343.803302 145.760474 C 343.803302 97.352421 304.409801 57.971273 255.986307 57.971273 C 207.578254 57.971273 168.197107 97.352421 168.197107 145.760474 C 168.197107 171.658396 178.026952 186.549856 187.535622 200.950287 C 193.159294 209.47381 198.977525 218.287627 203.097228 229.791295 L 203.60061 231.218059 C 198.928114 235.084526 195.947969 240.918199 195.947969 247.437458 C 195.947969 257.650245 203.263993 266.179945 212.936339 268.091561 C 213.115456 291.682573 232.355148 310.820353 255.986307 310.820353 C 279.632908 310.820353 298.884952 291.682573 299.06407 268.091561 C 308.717886 266.176857 316.021558 257.647157 316.021558 247.437458 C 316.021558 240.924375 313.047589 235.093791 308.390534 231.227323 L 308.897004 229.812913 C 313.022883 218.284539 318.838026 209.47381 324.464787 200.950287 Z M 255.986307 296.818305 C 240.211613 296.818305 227.342946 284.181255 226.947652 268.499208 L 285.049668 268.499208 C 284.657463 284.181255 271.773355 296.818305 255.986307 296.818305 Z M 294.962896 254.497159 L 217.037512 254.497159 C 213.130897 254.497159 209.950017 251.328632 209.950017 247.437458 C 209.950017 243.546285 213.130897 240.377758 217.037512 240.377758 L 294.962896 240.377758 C 298.85407 240.377758 302.019509 243.546285 302.019509 247.437458 C 302.019509 251.328632 298.85407 254.497159 294.962896 254.497159 Z M 236.397645 160.951492 L 229.736326 160.951492 C 226.064417 160.951492 223.075008 157.965171 223.075008 154.290174 C 223.075008 150.618264 226.064417 147.628855 229.736326 147.628855 C 233.411324 147.628855 236.397645 150.618264 236.397645 154.290174 Z M 250.399694 174.956629 L 261.597627 174.956629 L 261.597627 226.375709 L 250.399694 226.375709 Z M 294.962896 226.375709 L 275.599675 226.375709 L 275.599675 174.956629 L 282.264082 174.956629 C 293.656574 174.956629 302.927449 165.685753 302.927449 154.290174 C 302.927449 142.897682 293.656574 133.626806 282.264082 133.626806 C 270.868502 133.626806 261.597627 142.897682 261.597627 154.290174 L 261.597627 160.951492 L 250.399694 160.951492 L 250.399694 154.290174 C 250.399694 142.897682 241.131906 133.626806 229.736326 133.626806 C 218.343835 133.626806 209.072959 142.897682 209.072959 154.290174 C 209.072959 165.685753 218.343835 174.956629 229.736326 174.956629 L 236.397645 174.956629 L 236.397645 226.375709 L 217.037512 226.375709 C 216.938689 226.375709 216.846042 226.388062 216.747218 226.39115 L 216.287072 225.094092 C 211.592957 211.978367 205.302227 202.451168 199.221496 193.23588 C 190.086502 179.400596 182.199155 167.452223 182.199155 145.760474 C 182.199155 105.073004 215.298837 71.973322 255.986307 71.973322 C 296.686131 71.973322 329.801253 105.073004 329.801253 145.760474 C 329.801253 167.452223 321.910818 179.400596 312.778913 193.23588 C 306.695094 202.451168 300.407451 211.978367 295.713337 225.091004 L 295.247014 226.39115 C 295.151279 226.388062 295.058632 226.375709 294.962896 226.375709 Z M 275.599675 160.951492 L 275.599675 154.290174 C 275.599675 150.618264 278.589085 147.628855 282.264082 147.628855 C 285.935991 147.628855 288.925401 150.618264 288.925401 154.290174 C 288.925401 157.965171 285.935991 160.951492 282.264082 160.951492 Z M 389.666651 267.251562 L 389.666651 214.918365 L 377.829454 229.056295 C 375.346514 232.020999 370.930341 232.413205 367.965637 229.930265 C 365.000934 227.447326 364.611816 223.031153 367.091667 220.066449 L 391.266356 191.197647 C 391.266356 191.194558 391.266356 191.194558 391.266356 191.194558 L 391.300326 191.154411 C 391.331209 191.117353 391.368267 191.083382 391.402238 191.046323 C 391.522679 190.907353 391.649297 190.77147 391.779002 190.641765 C 391.843855 190.58 391.911796 190.521324 391.976649 190.462647 C 392.090914 190.357647 392.208267 190.258824 392.328708 190.163089 C 392.399737 190.104412 392.473855 190.051912 392.547972 189.996324 C 392.671502 189.906765 392.798119 189.820295 392.927825 189.736912 C 393.001943 189.690589 393.07606 189.644265 393.153266 189.60103 C 393.292236 189.520736 393.431207 189.446618 393.576354 189.372501 C 393.650472 189.33853 393.721501 189.301472 393.79253 189.270589 C 393.95003 189.19956 394.10753 189.137795 394.271206 189.079119 C 394.336059 189.054413 394.404 189.026619 394.471942 189.005001 C 394.641794 188.946325 394.817824 188.900001 394.996941 188.856766 C 395.058706 188.841325 395.12047 188.822795 395.182235 188.807354 C 395.370617 188.767207 395.559 188.739413 395.75047 188.714707 C 395.809146 188.705443 395.861646 188.69309 395.917235 188.686913 C 396.164293 188.662207 396.41444 188.646766 396.667675 188.646766 C 396.923999 188.646766 397.174145 188.662207 397.418116 188.686913 C 397.476792 188.69309 397.529292 188.705443 397.58488 188.714707 C 397.779439 188.739413 397.967821 188.767207 398.156204 188.807354 C 398.217968 188.822795 398.279733 188.841325 398.341498 188.856766 C 398.520615 188.900001 398.696644 188.946325 398.866497 189.005001 C 398.934438 189.026619 398.999291 189.054413 399.067232 189.079119 C 399.22782 189.137795 399.388409 189.19956 399.54282 189.270589 C 399.616938 189.301472 399.687967 189.33853 399.762085 189.372501 C 399.904143 189.446618 400.046202 189.520736 400.185173 189.60103 C 400.262378 189.644265 400.336496 189.690589 400.410614 189.736912 C 400.540319 189.820295 400.663849 189.906765 400.787378 189.996324 C 400.864584 190.051912 400.938701 190.104412 401.009731 190.163089 C 401.130172 190.258824 401.247525 190.357647 401.358701 190.462647 C 401.426642 190.521324 401.494583 190.58 401.556348 190.641765 C 401.689142 190.77147 401.81576 190.907353 401.936201 191.046323 C 401.970171 191.083382 402.004142 191.117353 402.038112 191.154411 L 402.068995 191.194558 C 402.072083 191.194558 402.072083 191.194558 402.072083 191.194558 L 426.243683 220.066449 C 428.726622 223.031153 428.337505 227.447326 425.372801 229.930265 C 424.060302 231.026588 422.466774 231.563941 420.879422 231.563941 C 418.878247 231.563941 416.892513 230.711588 415.508985 229.056295 L 403.671788 214.918365 L 403.671788 267.251562 C 403.671788 271.118029 400.534143 274.252586 396.667675 274.252586 C 392.801207 274.252586 389.666651 271.118029 389.666651 267.251562 Z M 108.328621 267.251562 L 108.328621 214.899835 L 96.460541 229.059384 C 95.073925 230.711588 93.091279 231.563941 91.090104 231.563941 C 89.502752 231.563941 87.909224 231.026588 86.596725 229.927177 C 83.632021 227.444238 83.242904 223.028065 85.728932 220.063361 L 109.928326 191.194558 L 109.965384 191.151323 C 109.996267 191.111176 110.036414 191.077206 110.070384 191.040147 C 110.187737 190.901176 110.311267 190.768382 110.440972 190.641765 C 110.505825 190.576912 110.576855 190.518235 110.641707 190.459559 C 110.755972 190.357647 110.870237 190.255736 110.98759 190.163089 C 111.061707 190.104412 111.138913 190.048824 111.213031 189.993236 C 111.33656 189.903677 111.460089 189.820295 111.586707 189.736912 C 111.663913 189.690589 111.741118 189.644265 111.815236 189.597942 C 111.954207 189.520736 112.093177 189.44353 112.238324 189.375589 C 112.309353 189.33853 112.383471 189.301472 112.457588 189.267501 C 112.612 189.19956 112.7695 189.137795 112.930088 189.079119 C 112.998029 189.054413 113.06597 189.026619 113.133912 189.005001 C 113.303764 188.946325 113.479794 188.900001 113.655823 188.856766 C 113.720676 188.841325 113.78244 188.822795 113.844205 188.807354 C 114.029499 188.767207 114.22097 188.739413 114.41244 188.714707 C 114.468028 188.705443 114.523616 188.69309 114.579205 188.690001 C 114.826263 188.662207 115.07641 188.646766 115.329645 188.646766 C 115.329645 188.646766 115.329645 188.646766 115.332733 188.646766 C 115.33891 188.646766 115.345086 188.649854 115.351263 188.649854 C 115.598321 188.649854 115.842292 188.662207 116.080086 188.690001 C 116.138762 188.696178 116.19435 188.708531 116.253027 188.714707 C 116.444497 188.739413 116.63288 188.770295 116.818174 188.810442 C 116.883026 188.822795 116.944791 188.841325 117.009644 188.859854 C 117.185673 188.903089 117.358614 188.949413 117.528467 189.005001 C 117.596408 189.026619 117.664349 189.054413 117.732291 189.079119 C 117.892879 189.137795 118.050379 189.19956 118.20479 189.270589 C 118.278908 189.30456 118.353025 189.33853 118.424055 189.375589 C 118.566113 189.446618 118.708172 189.520736 118.844054 189.60103 C 118.92126 189.644265 118.998466 189.690589 119.072584 189.740001 C 119.202289 189.820295 119.325819 189.906765 119.449348 189.996324 C 119.523466 190.051912 119.600672 190.104412 119.671701 190.163089 C 119.792142 190.258824 119.906407 190.360735 120.020671 190.462647 C 120.088612 190.521324 120.153465 190.58 120.218318 190.641765 C 120.351112 190.77147 120.474641 190.907353 120.598171 191.046323 C 120.629053 191.083382 120.666112 191.117353 120.696994 191.154411 L 120.730965 191.194558 C 120.730965 191.194558 120.734053 191.194558 120.734053 191.197647 L 144.905653 220.066449 C 147.388592 223.031153 146.996387 227.447326 144.031683 229.930265 C 141.066979 232.413205 136.650806 232.020999 134.170955 229.056295 L 122.33067 214.918365 L 122.33067 267.251562 C 122.33067 271.118029 119.196113 274.252586 115.329645 274.252586 C 111.463177 274.252586 108.328621 271.118029 108.328621 267.251562 Z M 108.328621 267.251562 " stroke="#000000" stroke-width="1" stroke-opacity="1" stroke-miterlimit="10"/></g></svg>