<svg xmlns="http://www.w3.org/2000/svg" xmlns:xlink="http://www.w3.org/1999/xlink" width="2380" zoomAndPan="magnify" viewBox="0 0 1784.88 1784.99993" height="2380" preserveAspectRatio="xMidYMid meet" version="1.0"><defs><clipPath id="72f78d66f0"><path d="M 388.707031 388.765625 L 1395.890625 388.765625 L 1395.890625 1395.949219 L 388.707031 1395.949219 Z M 388.707031 388.765625 " clip-rule="nonzero"/></clipPath><clipPath id="f8e18560c9"><path d="M 892.375 388.765625 C 614.207031 388.765625 388.707031 614.265625 388.707031 892.433594 C 388.707031 1170.601562 614.207031 1396.101562 892.375 1396.101562 C 1170.542969 1396.101562 1396.042969 1170.601562 1396.042969 892.433594 C 1396.042969 614.265625 1170.542969 388.765625 892.375 388.765625 Z M 892.375 388.765625 " clip-rule="nonzero"/></clipPath><linearGradient x1="0.00000179172" gradientTransform="matrix(20.98755, 0, 0, 20.98755, -0.0000125371, -0.0000626704)" y1="0.00000179172" x2="63.990321" gradientUnits="userSpaceOnUse" y2="63.990321" id="20da1165b4"><stop stop-opacity="1" stop-color="rgb(89.019775%, 57.649231%, 59.21936%)" offset="0"/><stop stop-opacity="1" stop-color="rgb(88.841248%, 57.440186%, 59.371948%)" offset="0.00390625"/><stop stop-opacity="1" stop-color="rgb(88.664246%, 57.232666%, 59.526062%)" offset="0.0078125"/><stop stop-opacity="1" stop-color="rgb(88.485718%, 57.023621%, 59.67865%)" offset="0.0117188"/><stop stop-opacity="1" stop-color="rgb(88.308716%, 56.816101%, 59.831238%)" offset="0.015625"/><stop stop-opacity="1" stop-color="rgb(88.130188%, 56.607056%, 59.983826%)" offset="0.0195312"/><stop stop-opacity="1" stop-color="rgb(87.953186%, 56.399536%, 60.137939%)" offset="0.0234375"/><stop stop-opacity="1" stop-color="rgb(87.774658%, 56.190491%, 60.290527%)" offset="0.0273438"/><stop stop-opacity="1" stop-color="rgb(87.597656%, 55.981445%, 60.444641%)" offset="0.03125"/><stop stop-opacity="1" stop-color="rgb(87.420654%, 55.7724%, 60.597229%)" offset="0.0351562"/><stop stop-opacity="1" stop-color="rgb(87.243652%, 55.56488%, 60.749817%)" offset="0.0390625"/><stop stop-opacity="1" stop-color="rgb(87.065125%, 55.355835%, 60.902405%)" offset="0.0429688"/><stop stop-opacity="1" stop-color="rgb(86.888123%, 55.148315%, 61.056519%)" offset="0.046875"/><stop stop-opacity="1" stop-color="rgb(86.709595%, 54.93927%, 61.209106%)" offset="0.0507812"/><stop stop-opacity="1" stop-color="rgb(86.532593%, 54.73175%, 61.36322%)" offset="0.0546875"/><stop stop-opacity="1" stop-color="rgb(86.354065%, 54.522705%, 61.515808%)" offset="0.0585938"/><stop stop-opacity="1" stop-color="rgb(86.177063%, 54.315186%, 61.668396%)" offset="0.0625"/><stop stop-opacity="1" stop-color="rgb(85.998535%, 54.10614%, 61.820984%)" offset="0.0664062"/><stop stop-opacity="1" stop-color="rgb(85.821533%, 53.898621%, 61.975098%)" offset="0.0703125"/><stop stop-opacity="1" stop-color="rgb(85.643005%, 53.689575%, 62.127686%)" offset="0.0742188"/><stop stop-opacity="1" stop-color="rgb(85.466003%, 53.48053%, 62.281799%)" offset="0.078125"/><stop stop-opacity="1" stop-color="rgb(85.289001%, 53.271484%, 62.434387%)" offset="0.0820313"/><stop stop-opacity="1" stop-color="rgb(85.112%, 53.063965%, 62.586975%)" offset="0.0859375"/><stop stop-opacity="1" stop-color="rgb(84.933472%, 52.854919%, 62.739563%)" offset="0.0898438"/><stop stop-opacity="1" stop-color="rgb(84.75647%, 52.6474%, 62.893677%)" offset="0.09375"/><stop stop-opacity="1" stop-color="rgb(84.577942%, 52.438354%, 63.046265%)" offset="0.0976562"/><stop stop-opacity="1" stop-color="rgb(84.40094%, 52.230835%, 63.200378%)" offset="0.101562"/><stop stop-opacity="1" stop-color="rgb(84.222412%, 52.02179%, 63.352966%)" offset="0.105469"/><stop stop-opacity="1" stop-color="rgb(84.04541%, 51.81427%, 63.505554%)" offset="0.109375"/><stop stop-opacity="1" stop-color="rgb(83.866882%, 51.605225%, 63.658142%)" offset="0.113281"/><stop stop-opacity="1" stop-color="rgb(83.68988%, 51.397705%, 63.812256%)" offset="0.117188"/><stop stop-opacity="1" stop-color="rgb(83.511353%, 51.18866%, 63.964844%)" offset="0.121094"/><stop stop-opacity="1" stop-color="rgb(83.334351%, 50.979614%, 64.118958%)" offset="0.125"/><stop stop-opacity="1" stop-color="rgb(83.157349%, 50.770569%, 64.271545%)" offset="0.128906"/><stop stop-opacity="1" stop-color="rgb(82.980347%, 50.563049%, 64.424133%)" offset="0.132812"/><stop stop-opacity="1" stop-color="rgb(82.801819%, 50.354004%, 64.576721%)" offset="0.136719"/><stop stop-opacity="1" stop-color="rgb(82.624817%, 50.146484%, 64.730835%)" offset="0.140625"/><stop stop-opacity="1" stop-color="rgb(82.446289%, 49.937439%, 64.883423%)" offset="0.144531"/><stop stop-opacity="1" stop-color="rgb(82.269287%, 49.729919%, 65.037537%)" offset="0.148438"/><stop stop-opacity="1" stop-color="rgb(82.090759%, 49.520874%, 65.190125%)" offset="0.152344"/><stop stop-opacity="1" stop-color="rgb(81.913757%, 49.313354%, 65.342712%)" offset="0.15625"/><stop stop-opacity="1" stop-color="rgb(81.735229%, 49.104309%, 65.4953%)" offset="0.160156"/><stop stop-opacity="1" stop-color="rgb(81.558228%, 48.89679%, 65.649414%)" offset="0.164063"/><stop stop-opacity="1" stop-color="rgb(81.381226%, 48.687744%, 65.802002%)" offset="0.167969"/><stop stop-opacity="1" stop-color="rgb(81.204224%, 48.478699%, 65.956116%)" offset="0.171875"/><stop stop-opacity="1" stop-color="rgb(81.025696%, 48.269653%, 66.108704%)" offset="0.175781"/><stop stop-opacity="1" stop-color="rgb(80.848694%, 48.062134%, 66.261292%)" offset="0.179688"/><stop stop-opacity="1" stop-color="rgb(80.670166%, 47.853088%, 66.413879%)" offset="0.183594"/><stop stop-opacity="1" stop-color="rgb(80.493164%, 47.645569%, 66.567993%)" offset="0.1875"/><stop stop-opacity="1" stop-color="rgb(80.314636%, 47.436523%, 66.720581%)" offset="0.191406"/><stop stop-opacity="1" stop-color="rgb(80.137634%, 47.229004%, 66.874695%)" offset="0.195312"/><stop stop-opacity="1" stop-color="rgb(79.959106%, 47.019958%, 67.027283%)" offset="0.199219"/><stop stop-opacity="1" stop-color="rgb(79.782104%, 46.812439%, 67.179871%)" offset="0.203125"/><stop stop-opacity="1" stop-color="rgb(79.603577%, 46.603394%, 67.332458%)" offset="0.207031"/><stop stop-opacity="1" stop-color="rgb(79.426575%, 46.395874%, 67.486572%)" offset="0.210938"/><stop stop-opacity="1" stop-color="rgb(79.249573%, 46.186829%, 67.63916%)" offset="0.214844"/><stop stop-opacity="1" stop-color="rgb(79.072571%, 45.977783%, 67.793274%)" offset="0.21875"/><stop stop-opacity="1" stop-color="rgb(78.894043%, 45.768738%, 67.945862%)" offset="0.222656"/><stop stop-opacity="1" stop-color="rgb(78.717041%, 45.561218%, 68.09845%)" offset="0.226562"/><stop stop-opacity="1" stop-color="rgb(78.538513%, 45.352173%, 68.251038%)" offset="0.230469"/><stop stop-opacity="1" stop-color="rgb(78.361511%, 45.144653%, 68.405151%)" offset="0.234375"/><stop stop-opacity="1" stop-color="rgb(78.182983%, 44.935608%, 68.557739%)" offset="0.238281"/><stop stop-opacity="1" stop-color="rgb(78.005981%, 44.728088%, 68.711853%)" offset="0.242188"/><stop stop-opacity="1" stop-color="rgb(77.827454%, 44.519043%, 68.864441%)" offset="0.246094"/><stop stop-opacity="1" stop-color="rgb(77.650452%, 44.311523%, 69.017029%)" offset="0.25"/><stop stop-opacity="1" stop-color="rgb(77.253723%, 44.206238%, 69.145203%)" offset="0.253906"/><stop stop-opacity="1" stop-color="rgb(76.856995%, 44.102478%, 69.274902%)" offset="0.257812"/><stop stop-opacity="1" stop-color="rgb(76.45874%, 43.997192%, 69.403076%)" offset="0.261719"/><stop stop-opacity="1" stop-color="rgb(76.060486%, 43.893433%, 69.532776%)" offset="0.265625"/><stop stop-opacity="1" stop-color="rgb(75.662231%, 43.789673%, 69.66095%)" offset="0.269531"/><stop stop-opacity="1" stop-color="rgb(75.263977%, 43.685913%, 69.789124%)" offset="0.273437"/><stop stop-opacity="1" stop-color="rgb(74.865723%, 43.582153%, 69.917297%)" offset="0.277344"/><stop stop-opacity="1" stop-color="rgb(74.467468%, 43.478394%, 70.046997%)" offset="0.28125"/><stop stop-opacity="1" stop-color="rgb(74.069214%, 43.373108%, 70.175171%)" offset="0.285156"/><stop stop-opacity="1" stop-color="rgb(73.670959%, 43.269348%, 70.303345%)" offset="0.289063"/><stop stop-opacity="1" stop-color="rgb(73.272705%, 43.165588%, 70.431519%)" offset="0.292969"/><stop stop-opacity="1" stop-color="rgb(72.874451%, 43.061829%, 70.561218%)" offset="0.296875"/><stop stop-opacity="1" stop-color="rgb(72.476196%, 42.958069%, 70.689392%)" offset="0.300781"/><stop stop-opacity="1" stop-color="rgb(72.077942%, 42.854309%, 70.817566%)" offset="0.304688"/><stop stop-opacity="1" stop-color="rgb(71.679688%, 42.749023%, 70.94574%)" offset="0.308594"/><stop stop-opacity="1" stop-color="rgb(71.281433%, 42.645264%, 71.075439%)" offset="0.3125"/><stop stop-opacity="1" stop-color="rgb(70.883179%, 42.541504%, 71.203613%)" offset="0.316406"/><stop stop-opacity="1" stop-color="rgb(70.484924%, 42.437744%, 71.331787%)" offset="0.320312"/><stop stop-opacity="1" stop-color="rgb(70.08667%, 42.332458%, 71.459961%)" offset="0.324219"/><stop stop-opacity="1" stop-color="rgb(69.688416%, 42.228699%, 71.589661%)" offset="0.328125"/><stop stop-opacity="1" stop-color="rgb(69.290161%, 42.124939%, 71.717834%)" offset="0.332031"/><stop stop-opacity="1" stop-color="rgb(68.891907%, 42.021179%, 71.846008%)" offset="0.335938"/><stop stop-opacity="1" stop-color="rgb(68.493652%, 41.917419%, 71.974182%)" offset="0.339844"/><stop stop-opacity="1" stop-color="rgb(68.095398%, 41.81366%, 72.103882%)" offset="0.34375"/><stop stop-opacity="1" stop-color="rgb(67.697144%, 41.708374%, 72.232056%)" offset="0.347656"/><stop stop-opacity="1" stop-color="rgb(67.298889%, 41.604614%, 72.360229%)" offset="0.351562"/><stop stop-opacity="1" stop-color="rgb(66.900635%, 41.500854%, 72.488403%)" offset="0.355469"/><stop stop-opacity="1" stop-color="rgb(66.50238%, 41.397095%, 72.618103%)" offset="0.359375"/><stop stop-opacity="1" stop-color="rgb(66.104126%, 41.293335%, 72.746277%)" offset="0.363281"/><stop stop-opacity="1" stop-color="rgb(65.705872%, 41.189575%, 72.875977%)" offset="0.367187"/><stop stop-opacity="1" stop-color="rgb(65.307617%, 41.08429%, 73.00415%)" offset="0.371094"/><stop stop-opacity="1" stop-color="rgb(64.909363%, 40.98053%, 73.132324%)" offset="0.375"/><stop stop-opacity="1" stop-color="rgb(64.511108%, 40.87677%, 73.260498%)" offset="0.378906"/><stop stop-opacity="1" stop-color="rgb(64.112854%, 40.77301%, 73.390198%)" offset="0.382812"/><stop stop-opacity="1" stop-color="rgb(63.7146%, 40.667725%, 73.518372%)" offset="0.386719"/><stop stop-opacity="1" stop-color="rgb(63.317871%, 40.563965%, 73.646545%)" offset="0.390625"/><stop stop-opacity="1" stop-color="rgb(62.919617%, 40.460205%, 73.774719%)" offset="0.394531"/><stop stop-opacity="1" stop-color="rgb(62.521362%, 40.356445%, 73.904419%)" offset="0.398437"/><stop stop-opacity="1" stop-color="rgb(62.123108%, 40.252686%, 74.032593%)" offset="0.402344"/><stop stop-opacity="1" stop-color="rgb(61.724854%, 40.148926%, 74.160767%)" offset="0.40625"/><stop stop-opacity="1" stop-color="rgb(61.326599%, 40.04364%, 74.28894%)" offset="0.410156"/><stop stop-opacity="1" stop-color="rgb(60.928345%, 39.93988%, 74.41864%)" offset="0.414062"/><stop stop-opacity="1" stop-color="rgb(60.53009%, 39.836121%, 74.546814%)" offset="0.417969"/><stop stop-opacity="1" stop-color="rgb(60.131836%, 39.732361%, 74.674988%)" offset="0.421875"/><stop stop-opacity="1" stop-color="rgb(59.733582%, 39.628601%, 74.803162%)" offset="0.425781"/><stop stop-opacity="1" stop-color="rgb(59.335327%, 39.524841%, 74.932861%)" offset="0.429688"/><stop stop-opacity="1" stop-color="rgb(58.937073%, 39.419556%, 75.061035%)" offset="0.433594"/><stop stop-opacity="1" stop-color="rgb(58.538818%, 39.315796%, 75.189209%)" offset="0.4375"/><stop stop-opacity="1" stop-color="rgb(58.140564%, 39.212036%, 75.317383%)" offset="0.441406"/><stop stop-opacity="1" stop-color="rgb(57.74231%, 39.108276%, 75.447083%)" offset="0.445313"/><stop stop-opacity="1" stop-color="rgb(57.344055%, 39.002991%, 75.575256%)" offset="0.449219"/><stop stop-opacity="1" stop-color="rgb(56.945801%, 38.899231%, 75.70343%)" offset="0.453125"/><stop stop-opacity="1" stop-color="rgb(56.547546%, 38.795471%, 75.831604%)" offset="0.457031"/><stop stop-opacity="1" stop-color="rgb(56.149292%, 38.691711%, 75.961304%)" offset="0.460938"/><stop stop-opacity="1" stop-color="rgb(55.751038%, 38.587952%, 76.089478%)" offset="0.464844"/><stop stop-opacity="1" stop-color="rgb(55.352783%, 38.484192%, 76.217651%)" offset="0.46875"/><stop stop-opacity="1" stop-color="rgb(54.954529%, 38.378906%, 76.345825%)" offset="0.472656"/><stop stop-opacity="1" stop-color="rgb(54.556274%, 38.275146%, 76.475525%)" offset="0.476563"/><stop stop-opacity="1" stop-color="rgb(54.15802%, 38.171387%, 76.603699%)" offset="0.480469"/><stop stop-opacity="1" stop-color="rgb(53.759766%, 38.067627%, 76.731873%)" offset="0.484375"/><stop stop-opacity="1" stop-color="rgb(53.361511%, 37.963867%, 76.860046%)" offset="0.488281"/><stop stop-opacity="1" stop-color="rgb(52.963257%, 37.860107%, 76.989746%)" offset="0.492188"/><stop stop-opacity="1" stop-color="rgb(52.565002%, 37.754822%, 77.11792%)" offset="0.496094"/><stop stop-opacity="1" stop-color="rgb(52.166748%, 37.651062%, 77.246094%)" offset="0.5"/><stop stop-opacity="1" stop-color="rgb(51.664734%, 37.734985%, 77.308655%)" offset="0.503906"/><stop stop-opacity="1" stop-color="rgb(51.164246%, 37.818909%, 77.371216%)" offset="0.507812"/><stop stop-opacity="1" stop-color="rgb(50.660706%, 37.904358%, 77.432251%)" offset="0.511719"/><stop stop-opacity="1" stop-color="rgb(50.158691%, 37.991333%, 77.493286%)" offset="0.515625"/><stop stop-opacity="1" stop-color="rgb(49.656677%, 38.076782%, 77.554321%)" offset="0.519531"/><stop stop-opacity="1" stop-color="rgb(49.154663%, 38.162231%, 77.616882%)" offset="0.523438"/><stop stop-opacity="1" stop-color="rgb(48.651123%, 38.247681%, 77.677917%)" offset="0.527344"/><stop stop-opacity="1" stop-color="rgb(48.149109%, 38.33313%, 77.738953%)" offset="0.53125"/><stop stop-opacity="1" stop-color="rgb(47.647095%, 38.418579%, 77.799988%)" offset="0.535156"/><stop stop-opacity="1" stop-color="rgb(47.145081%, 38.505554%, 77.862549%)" offset="0.539062"/><stop stop-opacity="1" stop-color="rgb(46.641541%, 38.591003%, 77.923584%)" offset="0.542969"/><stop stop-opacity="1" stop-color="rgb(46.139526%, 38.676453%, 77.984619%)" offset="0.546875"/><stop stop-opacity="1" stop-color="rgb(45.637512%, 38.761902%, 78.045654%)" offset="0.550781"/><stop stop-opacity="1" stop-color="rgb(45.135498%, 38.848877%, 78.108215%)" offset="0.554688"/><stop stop-opacity="1" stop-color="rgb(44.631958%, 38.934326%, 78.16925%)" offset="0.558594"/><stop stop-opacity="1" stop-color="rgb(44.129944%, 39.019775%, 78.230286%)" offset="0.5625"/><stop stop-opacity="1" stop-color="rgb(43.62793%, 39.105225%, 78.291321%)" offset="0.566406"/><stop stop-opacity="1" stop-color="rgb(43.125916%, 39.190674%, 78.353882%)" offset="0.570312"/><stop stop-opacity="1" stop-color="rgb(42.622375%, 39.276123%, 78.414917%)" offset="0.574219"/><stop stop-opacity="1" stop-color="rgb(42.120361%, 39.363098%, 78.475952%)" offset="0.578125"/><stop stop-opacity="1" stop-color="rgb(41.618347%, 39.448547%, 78.536987%)" offset="0.582031"/><stop stop-opacity="1" stop-color="rgb(41.116333%, 39.533997%, 78.598022%)" offset="0.585938"/><stop stop-opacity="1" stop-color="rgb(40.612793%, 39.619446%, 78.659058%)" offset="0.589844"/><stop stop-opacity="1" stop-color="rgb(40.110779%, 39.706421%, 78.721619%)" offset="0.59375"/><stop stop-opacity="1" stop-color="rgb(39.607239%, 39.79187%, 78.782654%)" offset="0.597656"/><stop stop-opacity="1" stop-color="rgb(39.105225%, 39.877319%, 78.843689%)" offset="0.601562"/><stop stop-opacity="1" stop-color="rgb(38.60321%, 39.962769%, 78.904724%)" offset="0.605469"/><stop stop-opacity="1" stop-color="rgb(38.101196%, 40.049744%, 78.967285%)" offset="0.609375"/><stop stop-opacity="1" stop-color="rgb(37.597656%, 40.135193%, 79.02832%)" offset="0.613281"/><stop stop-opacity="1" stop-color="rgb(37.095642%, 40.220642%, 79.089355%)" offset="0.617188"/><stop stop-opacity="1" stop-color="rgb(36.593628%, 40.306091%, 79.150391%)" offset="0.621094"/><stop stop-opacity="1" stop-color="rgb(36.091614%, 40.391541%, 79.212952%)" offset="0.625"/><stop stop-opacity="1" stop-color="rgb(35.588074%, 40.47699%, 79.273987%)" offset="0.628906"/><stop stop-opacity="1" stop-color="rgb(35.08606%, 40.563965%, 79.335022%)" offset="0.632813"/><stop stop-opacity="1" stop-color="rgb(34.584045%, 40.649414%, 79.396057%)" offset="0.636719"/><stop stop-opacity="1" stop-color="rgb(34.082031%, 40.734863%, 79.458618%)" offset="0.640625"/><stop stop-opacity="1" stop-color="rgb(33.578491%, 40.820312%, 79.519653%)" offset="0.644531"/><stop stop-opacity="1" stop-color="rgb(33.076477%, 40.907288%, 79.580688%)" offset="0.648438"/><stop stop-opacity="1" stop-color="rgb(32.574463%, 40.992737%, 79.641724%)" offset="0.652344"/><stop stop-opacity="1" stop-color="rgb(32.072449%, 41.078186%, 79.704285%)" offset="0.65625"/><stop stop-opacity="1" stop-color="rgb(31.568909%, 41.163635%, 79.76532%)" offset="0.660156"/><stop stop-opacity="1" stop-color="rgb(31.066895%, 41.249084%, 79.826355%)" offset="0.664062"/><stop stop-opacity="1" stop-color="rgb(30.56488%, 41.334534%, 79.88739%)" offset="0.667969"/><stop stop-opacity="1" stop-color="rgb(30.062866%, 41.421509%, 79.949951%)" offset="0.671875"/><stop stop-opacity="1" stop-color="rgb(29.559326%, 41.506958%, 80.010986%)" offset="0.675781"/><stop stop-opacity="1" stop-color="rgb(29.057312%, 41.592407%, 80.072021%)" offset="0.679688"/><stop stop-opacity="1" stop-color="rgb(28.555298%, 41.677856%, 80.133057%)" offset="0.683594"/><stop stop-opacity="1" stop-color="rgb(28.053284%, 41.764832%, 80.195618%)" offset="0.6875"/><stop stop-opacity="1" stop-color="rgb(27.549744%, 41.850281%, 80.256653%)" offset="0.691406"/><stop stop-opacity="1" stop-color="rgb(27.047729%, 41.93573%, 80.317688%)" offset="0.695312"/><stop stop-opacity="1" stop-color="rgb(26.544189%, 42.021179%, 80.378723%)" offset="0.699219"/><stop stop-opacity="1" stop-color="rgb(26.042175%, 42.108154%, 80.441284%)" offset="0.703125"/><stop stop-opacity="1" stop-color="rgb(25.540161%, 42.193604%, 80.502319%)" offset="0.707031"/><stop stop-opacity="1" stop-color="rgb(25.038147%, 42.279053%, 80.563354%)" offset="0.710938"/><stop stop-opacity="1" stop-color="rgb(24.534607%, 42.364502%, 80.62439%)" offset="0.714844"/><stop stop-opacity="1" stop-color="rgb(24.032593%, 42.449951%, 80.686951%)" offset="0.71875"/><stop stop-opacity="1" stop-color="rgb(23.530579%, 42.5354%, 80.747986%)" offset="0.722656"/><stop stop-opacity="1" stop-color="rgb(23.028564%, 42.622375%, 80.809021%)" offset="0.726562"/><stop stop-opacity="1" stop-color="rgb(22.525024%, 42.707825%, 80.870056%)" offset="0.730469"/><stop stop-opacity="1" stop-color="rgb(22.02301%, 42.793274%, 80.932617%)" offset="0.734375"/><stop stop-opacity="1" stop-color="rgb(21.520996%, 42.878723%, 80.993652%)" offset="0.738281"/><stop stop-opacity="1" stop-color="rgb(21.018982%, 42.965698%, 81.054688%)" offset="0.742188"/><stop stop-opacity="1" stop-color="rgb(20.515442%, 43.051147%, 81.115723%)" offset="0.746094"/><stop stop-opacity="1" stop-color="rgb(20.013428%, 43.136597%, 81.176758%)" offset="0.75"/><stop stop-opacity="1" stop-color="rgb(19.703674%, 43.058777%, 81.056213%)" offset="0.753906"/><stop stop-opacity="1" stop-color="rgb(19.395447%, 42.982483%, 80.937195%)" offset="0.757813"/><stop stop-opacity="1" stop-color="rgb(19.088745%, 42.901611%, 80.813599%)" offset="0.761719"/><stop stop-opacity="1" stop-color="rgb(18.782043%, 42.822266%, 80.691528%)" offset="0.765625"/><stop stop-opacity="1" stop-color="rgb(18.475342%, 42.74292%, 80.569458%)" offset="0.769531"/><stop stop-opacity="1" stop-color="rgb(18.170166%, 42.663574%, 80.447388%)" offset="0.773438"/><stop stop-opacity="1" stop-color="rgb(17.863464%, 42.584229%, 80.323792%)" offset="0.777344"/><stop stop-opacity="1" stop-color="rgb(17.556763%, 42.504883%, 80.201721%)" offset="0.78125"/><stop stop-opacity="1" stop-color="rgb(17.250061%, 42.424011%, 80.078125%)" offset="0.785156"/><stop stop-opacity="1" stop-color="rgb(16.944885%, 42.344666%, 79.956055%)" offset="0.789063"/><stop stop-opacity="1" stop-color="rgb(16.638184%, 42.26532%, 79.832458%)" offset="0.792969"/><stop stop-opacity="1" stop-color="rgb(16.331482%, 42.185974%, 79.710388%)" offset="0.796875"/><stop stop-opacity="1" stop-color="rgb(16.02478%, 42.105103%, 79.588318%)" offset="0.800781"/><stop stop-opacity="1" stop-color="rgb(15.719604%, 42.025757%, 79.466248%)" offset="0.804688"/><stop stop-opacity="1" stop-color="rgb(15.412903%, 41.946411%, 79.342651%)" offset="0.808594"/><stop stop-opacity="1" stop-color="rgb(15.106201%, 41.867065%, 79.220581%)" offset="0.8125"/><stop stop-opacity="1" stop-color="rgb(14.7995%, 41.786194%, 79.096985%)" offset="0.816406"/><stop stop-opacity="1" stop-color="rgb(14.494324%, 41.706848%, 78.974915%)" offset="0.820312"/><stop stop-opacity="1" stop-color="rgb(14.187622%, 41.627502%, 78.852844%)" offset="0.824219"/><stop stop-opacity="1" stop-color="rgb(13.88092%, 41.548157%, 78.730774%)" offset="0.828125"/><stop stop-opacity="1" stop-color="rgb(13.574219%, 41.467285%, 78.607178%)" offset="0.832031"/><stop stop-opacity="1" stop-color="rgb(13.267517%, 41.387939%, 78.485107%)" offset="0.835938"/><stop stop-opacity="1" stop-color="rgb(12.960815%, 41.308594%, 78.361511%)" offset="0.839844"/><stop stop-opacity="1" stop-color="rgb(12.65564%, 41.229248%, 78.239441%)" offset="0.84375"/><stop stop-opacity="1" stop-color="rgb(12.348938%, 41.149902%, 78.115845%)" offset="0.847656"/><stop stop-opacity="1" stop-color="rgb(12.042236%, 41.070557%, 77.993774%)" offset="0.851562"/><stop stop-opacity="1" stop-color="rgb(11.735535%, 40.989685%, 77.871704%)" offset="0.855469"/><stop stop-opacity="1" stop-color="rgb(11.430359%, 40.910339%, 77.749634%)" offset="0.859375"/><stop stop-opacity="1" stop-color="rgb(11.123657%, 40.830994%, 77.626038%)" offset="0.863281"/><stop stop-opacity="1" stop-color="rgb(10.816956%, 40.751648%, 77.503967%)" offset="0.867188"/><stop stop-opacity="1" stop-color="rgb(10.510254%, 40.670776%, 77.380371%)" offset="0.871094"/><stop stop-opacity="1" stop-color="rgb(10.205078%, 40.591431%, 77.258301%)" offset="0.875"/><stop stop-opacity="1" stop-color="rgb(9.898376%, 40.512085%, 77.134705%)" offset="0.878906"/><stop stop-opacity="1" stop-color="rgb(9.591675%, 40.432739%, 77.012634%)" offset="0.882812"/><stop stop-opacity="1" stop-color="rgb(9.284973%, 40.351868%, 76.890564%)" offset="0.886719"/><stop stop-opacity="1" stop-color="rgb(8.979797%, 40.272522%, 76.768494%)" offset="0.890625"/><stop stop-opacity="1" stop-color="rgb(8.673096%, 40.193176%, 76.644897%)" offset="0.894531"/><stop stop-opacity="1" stop-color="rgb(8.366394%, 40.113831%, 76.522827%)" offset="0.898438"/><stop stop-opacity="1" stop-color="rgb(8.059692%, 40.034485%, 76.399231%)" offset="0.902344"/><stop stop-opacity="1" stop-color="rgb(7.752991%, 39.955139%, 76.277161%)" offset="0.90625"/><stop stop-opacity="1" stop-color="rgb(7.446289%, 39.874268%, 76.153564%)" offset="0.910156"/><stop stop-opacity="1" stop-color="rgb(7.141113%, 39.794922%, 76.031494%)" offset="0.914062"/><stop stop-opacity="1" stop-color="rgb(6.834412%, 39.715576%, 75.909424%)" offset="0.917969"/><stop stop-opacity="1" stop-color="rgb(6.52771%, 39.63623%, 75.787354%)" offset="0.921875"/><stop stop-opacity="1" stop-color="rgb(6.221008%, 39.555359%, 75.663757%)" offset="0.925781"/><stop stop-opacity="1" stop-color="rgb(5.915833%, 39.476013%, 75.541687%)" offset="0.929688"/><stop stop-opacity="1" stop-color="rgb(5.609131%, 39.396667%, 75.418091%)" offset="0.933594"/><stop stop-opacity="1" stop-color="rgb(5.302429%, 39.317322%, 75.296021%)" offset="0.9375"/><stop stop-opacity="1" stop-color="rgb(4.995728%, 39.23645%, 75.172424%)" offset="0.941406"/><stop stop-opacity="1" stop-color="rgb(4.690552%, 39.157104%, 75.050354%)" offset="0.945312"/><stop stop-opacity="1" stop-color="rgb(4.38385%, 39.077759%, 74.928284%)" offset="0.949219"/><stop stop-opacity="1" stop-color="rgb(4.077148%, 38.998413%, 74.806213%)" offset="0.953125"/><stop stop-opacity="1" stop-color="rgb(3.770447%, 38.919067%, 74.682617%)" offset="0.957031"/><stop stop-opacity="1" stop-color="rgb(3.465271%, 38.839722%, 74.560547%)" offset="0.960937"/><stop stop-opacity="1" stop-color="rgb(3.158569%, 38.75885%, 74.436951%)" offset="0.964844"/><stop stop-opacity="1" stop-color="rgb(2.851868%, 38.679504%, 74.31488%)" offset="0.96875"/><stop stop-opacity="1" stop-color="rgb(2.545166%, 38.600159%, 74.191284%)" offset="0.972656"/><stop stop-opacity="1" stop-color="rgb(2.23999%, 38.520813%, 74.069214%)" offset="0.976562"/><stop stop-opacity="1" stop-color="rgb(1.933289%, 38.439941%, 73.947144%)" offset="0.980469"/><stop stop-opacity="1" stop-color="rgb(1.626587%, 38.360596%, 73.825073%)" offset="0.984375"/><stop stop-opacity="1" stop-color="rgb(1.319885%, 38.28125%, 73.701477%)" offset="0.988281"/><stop stop-opacity="1" stop-color="rgb(1.013184%, 38.201904%, 73.579407%)" offset="0.992188"/><stop stop-opacity="1" stop-color="rgb(0.706482%, 38.121033%, 73.455811%)" offset="0.996094"/><stop stop-opacity="1" stop-color="rgb(0.401306%, 38.041687%, 73.33374%)" offset="1"/></linearGradient><clipPath id="fbbdfa3224"><path d="M 560 553.523438 L 1225 553.523438 L 1225 1195.480469 L 560 1195.480469 Z M 560 553.523438 " clip-rule="nonzero"/></clipPath></defs><g clip-path="url(#72f78d66f0)"><g clip-path="url(#f8e18560c9)"><path stroke-linecap="butt" transform="matrix(0.74995, 0, 0, 0.74995, 388.706936, 388.767019)" fill="none" stroke-linejoin="miter" d="M 671.602596 -0.00185836 C 300.68702 -0.00185836 0.000126892 300.685035 0.000126892 671.600611 C 0.000126892 1042.516187 300.68702 1343.20308 671.602596 1343.20308 C 1042.518172 1343.20308 1343.205066 1042.516187 1343.205066 671.600611 C 1343.205066 300.685035 1042.518172 -0.00185836 671.602596 -0.00185836 Z M 671.602596 -0.00185836 " stroke="url(#20da1165b4)" stroke-width="80" stroke-miterlimit="4"/></g></g><g clip-path="url(#fbbdfa3224)"><path fill="#ffffff" d="M 1216.589844 827.609375 L 1157.511719 827.609375 C 1150.796875 796.5 1138.570312 766.96875 1121.082031 739.644531 L 1162.832031 697.902344 C 1166.003906 694.726562 1166.007812 689.578125 1162.835938 686.402344 L 1091.992188 615.398438 C 1090.464844 613.871094 1088.398438 613.011719 1086.238281 613.007812 L 1086.234375 613.007812 C 1084.074219 613.007812 1082.007812 613.863281 1080.476562 615.394531 L 1038.734375 657.140625 C 1011.65625 639.832031 982.128906 627.605469 950.769531 620.738281 L 950.769531 561.632812 C 950.769531 557.140625 947.132812 553.492188 942.636719 553.492188 L 842.273438 553.492188 C 837.777344 553.492188 834.140625 557.140625 834.140625 561.632812 L 834.140625 620.738281 C 802.601562 627.636719 773.074219 639.855469 746.167969 657.132812 L 704.429688 615.390625 C 701.253906 612.214844 696.097656 612.214844 692.921875 615.390625 L 621.917969 686.394531 C 620.394531 687.921875 619.539062 689.992188 619.539062 692.148438 C 619.539062 694.304688 620.394531 696.375 621.917969 697.902344 L 663.667969 739.648438 C 646.363281 766.722656 634.144531 796.25 627.265625 827.609375 L 568.160156 827.609375 C 563.660156 827.609375 560.023438 831.253906 560.023438 835.746094 L 560.023438 936.105469 C 560.023438 940.601562 563.664062 944.238281 568.160156 944.238281 L 627.25 944.238281 C 630.222656 957.894531 634.367188 971.449219 639.566406 984.648438 C 644.824219 1013.878906 670.4375 1036.148438 701.230469 1036.148438 C 719.320312 1036.148438 735.597656 1028.382812 747.023438 1016.0625 L 747.023438 1046.800781 C 737.25 1043.808594 727.007812 1042.214844 716.542969 1042.214844 L 685.75 1042.214844 C 628.039062 1042.214844 581.085938 1089.242188 581.085938 1147.039062 L 581.085938 1164.273438 C 581.085938 1168.769531 584.726562 1172.40625 589.222656 1172.40625 L 752.609375 1172.40625 L 752.609375 1187.25 C 752.609375 1191.746094 756.246094 1195.382812 760.746094 1195.382812 L 1024.007812 1195.382812 C 1028.503906 1195.382812 1032.144531 1191.746094 1032.144531 1187.25 L 1032.144531 1172.40625 L 1195.691406 1172.40625 C 1200.1875 1172.40625 1203.828125 1168.769531 1203.828125 1164.273438 L 1203.828125 1147.039062 C 1203.828125 1089.242188 1156.800781 1042.214844 1099.003906 1042.214844 L 1068.363281 1042.214844 C 1057.890625 1042.214844 1047.644531 1043.792969 1037.890625 1046.761719 L 1037.890625 1016.1875 C 1049.34375 1028.433594 1065.609375 1036.144531 1083.683594 1036.144531 C 1114.152344 1036.144531 1139.5625 1014.234375 1145.082031 985.355469 C 1150.257812 972.3125 1154.4375 958.507812 1157.503906 944.238281 L 1216.589844 944.238281 C 1221.085938 944.238281 1224.722656 940.601562 1224.722656 936.105469 L 1224.722656 835.746094 C 1224.726562 831.253906 1221.085938 827.609375 1216.589844 827.609375 Z M 701.230469 1019.875 C 678.226562 1019.875 659.132812 1003.09375 655.480469 981.191406 C 655.46875 981.152344 655.46875 981.113281 655.460938 981.070312 C 655.0625 978.632812 654.800781 976.148438 654.800781 973.601562 C 654.800781 948.003906 675.632812 927.171875 701.230469 927.171875 C 707.128906 927.171875 712.746094 928.328125 717.941406 930.355469 C 717.960938 930.367188 717.984375 930.371094 718.011719 930.382812 C 733.367188 936.40625 744.722656 950.414062 747.023438 967.300781 L 747.023438 979.886719 C 743.941406 1002.429688 724.605469 1019.875 701.230469 1019.875 Z M 725 885.847656 C 725 855.152344 733.4375 825.269531 749.269531 799.050781 L 1035.492188 799.050781 C 1051.421875 825.414062 1059.910156 855.296875 1059.910156 885.847656 C 1059.910156 896.039062 1058.84375 906.511719 1056.847656 917.019531 C 1049.667969 920.4375 1043.253906 925.160156 1037.890625 930.910156 L 1037.890625 813.890625 C 1037.890625 809.394531 1034.25 805.75 1029.753906 805.75 L 980.773438 805.75 C 976.277344 805.75 972.636719 809.394531 972.636719 813.890625 L 972.636719 1058.734375 C 958.398438 1050.230469 942.289062 1044.570312 925.082031 1042.492188 L 925.082031 1023.632812 C 948.527344 1011.691406 964.65625 987.417969 964.65625 959.402344 C 964.65625 931.324219 948.527344 906.996094 925.082031 895.035156 L 925.082031 813.890625 C 925.082031 809.394531 921.445312 805.75 916.949219 805.75 L 867.964844 805.75 C 863.46875 805.75 859.832031 809.394531 859.832031 813.890625 L 859.832031 894.996094 C 836.386719 906.941406 820.257812 931.292969 820.257812 959.402344 C 820.257812 987.453125 836.386719 1011.753906 859.832031 1023.671875 L 859.832031 1042.46875 C 842.628906 1044.523438 826.519531 1050.164062 812.277344 1058.640625 L 812.277344 813.890625 C 812.277344 809.394531 808.640625 805.75 804.140625 805.75 L 755.160156 805.75 C 750.664062 805.75 747.023438 809.394531 747.023438 813.890625 L 747.023438 931.042969 C 741.625 925.210938 735.15625 920.421875 727.90625 916.976562 C 726.015625 906.84375 725 896.40625 725 885.847656 Z M 722.128906 782.773438 L 722.128906 769.691406 L 755.160156 769.691406 C 756.660156 769.691406 758.128906 769.277344 759.40625 768.496094 L 892.378906 687.164062 L 1025.511719 768.5 C 1026.789062 769.277344 1028.257812 769.691406 1029.753906 769.691406 L 1062.625 769.691406 L 1062.625 782.773438 Z M 908.8125 889.085938 C 903.523438 887.847656 898.039062 887.128906 892.378906 887.128906 C 886.769531 887.128906 881.339844 887.839844 876.101562 889.054688 L 876.101562 822.027344 L 908.8125 822.027344 Z M 870.421875 907.921875 C 870.800781 907.800781 871.171875 907.664062 871.527344 907.488281 C 877.976562 904.871094 885.007812 903.398438 892.378906 903.398438 C 899.886719 903.398438 907.050781 904.910156 913.59375 907.605469 C 913.800781 907.691406 914.007812 907.761719 914.222656 907.839844 C 934.28125 916.363281 948.382812 936.269531 948.382812 959.398438 C 948.382812 990.191406 923.257812 1015.246094 892.378906 1015.246094 C 861.585938 1015.246094 836.527344 990.191406 836.527344 959.398438 C 836.53125 936.335938 850.511719 916.492188 870.421875 907.921875 Z M 876.101562 1029.601562 C 881.339844 1030.816406 886.769531 1031.519531 892.378906 1031.519531 C 898.039062 1031.519531 903.523438 1030.800781 908.8125 1029.570312 L 908.8125 1041.574219 L 876.101562 1041.574219 Z M 763.296875 980.996094 C 763.582031 978.566406 763.773438 976.109375 763.773438 973.601562 C 763.773438 971.089844 763.582031 968.625 763.296875 966.191406 L 763.296875 822.027344 L 796.007812 822.027344 L 796.007812 1070.226562 C 794.519531 1071.480469 793.0625 1072.773438 791.636719 1074.09375 C 783.304688 1065.539062 773.722656 1058.546875 763.296875 1053.3125 Z M 597.355469 1147.039062 C 597.355469 1098.210938 637.011719 1058.484375 685.75 1058.484375 L 716.542969 1058.484375 C 740.734375 1058.484375 763.589844 1068.484375 780.390625 1085.988281 C 764.464844 1105.296875 754.390625 1129.59375 752.839844 1156.136719 L 641.871094 1156.136719 L 641.871094 1124.542969 C 641.871094 1120.046875 638.230469 1116.40625 633.734375 1116.40625 C 629.238281 1116.40625 625.601562 1120.046875 625.601562 1124.542969 L 625.601562 1156.136719 L 597.355469 1156.136719 Z M 1015.875 1179.113281 L 979.808594 1179.113281 L 979.808594 1136.984375 C 979.808594 1132.488281 976.171875 1128.851562 971.675781 1128.851562 C 967.175781 1128.851562 963.539062 1132.488281 963.539062 1136.984375 L 963.539062 1179.113281 L 821.214844 1179.113281 L 821.214844 1136.984375 C 821.214844 1132.488281 817.578125 1128.851562 813.078125 1128.851562 C 808.582031 1128.851562 804.945312 1132.488281 804.945312 1136.984375 L 804.945312 1179.113281 L 768.878906 1179.113281 L 768.878906 1163.316406 C 768.878906 1105.160156 816.191406 1057.84375 874.347656 1057.84375 L 910.40625 1057.84375 C 968.5625 1057.84375 1015.875 1105.160156 1015.875 1163.316406 Z M 1099.003906 1058.484375 C 1147.832031 1058.484375 1187.554688 1098.210938 1187.554688 1147.039062 L 1187.554688 1156.136719 L 1159.148438 1156.136719 L 1159.148438 1124.542969 C 1159.148438 1120.046875 1155.511719 1116.40625 1151.011719 1116.40625 C 1146.519531 1116.40625 1142.878906 1120.046875 1142.878906 1124.542969 L 1142.878906 1156.136719 L 1031.914062 1156.136719 C 1030.363281 1129.625 1020.3125 1105.355469 1004.417969 1086.058594 C 1021.097656 1068.511719 1043.996094 1058.484375 1068.363281 1058.484375 Z M 1021.617188 1053.246094 C 1011.121094 1058.496094 1001.503906 1065.53125 993.179688 1074.152344 C 991.789062 1072.855469 990.359375 1071.597656 988.90625 1070.363281 L 988.90625 822.027344 L 1021.617188 822.027344 L 1021.617188 965.15625 C 1021.246094 967.925781 1020.980469 970.730469 1020.980469 973.605469 C 1020.980469 976.46875 1021.246094 979.265625 1021.617188 982.03125 Z M 1083.683594 1019.875 C 1060.585938 1019.875 1041.421875 1002.957031 1037.890625 980.914062 L 1037.890625 966.265625 C 1041.425781 944.152344 1060.585938 927.171875 1083.683594 927.171875 C 1109.199219 927.171875 1129.953125 948.003906 1129.953125 973.605469 C 1129.957031 999.113281 1109.199219 1019.875 1083.683594 1019.875 Z M 1208.457031 927.96875 L 1150.851562 927.96875 C 1146.945312 927.96875 1143.585938 930.746094 1142.859375 934.589844 C 1142.070312 938.738281 1141.171875 942.84375 1140.191406 946.914062 C 1130.164062 925.667969 1108.636719 910.902344 1083.683594 910.902344 C 1080.460938 910.902344 1077.328125 911.222656 1074.238281 911.695312 C 1075.492188 902.992188 1076.179688 894.339844 1076.179688 885.847656 C 1076.179688 855.546875 1068.621094 825.828125 1054.273438 799.050781 L 1070.757812 799.050781 C 1075.257812 799.050781 1078.894531 795.40625 1078.894531 790.914062 L 1078.894531 761.554688 C 1078.894531 757.0625 1075.257812 753.417969 1070.757812 753.417969 L 1032.039062 753.417969 L 896.621094 670.683594 C 894.007812 669.09375 890.734375 669.097656 888.132812 670.6875 L 752.867188 753.417969 L 713.996094 753.417969 C 709.5 753.417969 705.859375 757.058594 705.859375 761.554688 L 705.859375 790.914062 C 705.859375 795.40625 709.496094 799.050781 713.996094 799.050781 L 730.484375 799.050781 C 716.238281 825.714844 708.730469 855.433594 708.730469 885.847656 C 708.730469 894.554688 709.378906 903.191406 710.558594 911.675781 C 707.507812 911.214844 704.410156 910.902344 701.230469 910.902344 C 676.222656 910.902344 654.644531 925.65625 644.585938 946.890625 C 643.585938 942.792969 642.667969 938.691406 641.886719 934.582031 C 641.164062 930.746094 637.804688 927.96875 633.894531 927.96875 L 576.292969 927.96875 L 576.292969 843.882812 L 633.894531 843.882812 C 637.792969 843.882812 641.140625 841.121094 641.882812 837.292969 C 648.445312 803.4375 661.554688 771.753906 680.855469 743.125 C 683.03125 739.894531 682.613281 735.574219 679.859375 732.820312 L 639.183594 692.148438 L 698.675781 632.652344 L 739.351562 673.332031 C 742.117188 676.097656 746.449219 676.496094 749.675781 674.3125 C 778.078125 655.0625 809.75 641.957031 843.820312 635.359375 C 847.652344 634.613281 850.410156 631.265625 850.410156 627.367188 L 850.410156 569.769531 L 934.5 569.769531 L 934.5 627.367188 C 934.5 631.265625 937.261719 634.617188 941.089844 635.359375 C 974.941406 641.914062 1006.625 655.027344 1035.261719 674.324219 C 1038.484375 676.507812 1042.808594 676.09375 1045.5625 673.332031 L 1086.230469 632.664062 L 1145.578125 692.144531 L 1104.890625 732.824219 C 1102.136719 735.578125 1101.722656 739.898438 1103.902344 743.128906 C 1123.410156 772.070312 1136.519531 803.742188 1142.859375 837.261719 C 1143.589844 841.101562 1146.949219 843.886719 1150.859375 843.886719 L 1208.460938 843.886719 L 1208.460938 927.96875 Z M 971.035156 761.554688 C 971.035156 766.046875 967.398438 769.691406 962.902344 769.691406 L 822.011719 769.691406 C 817.515625 769.691406 813.878906 766.046875 813.878906 761.554688 C 813.878906 757.058594 817.515625 753.417969 822.011719 753.417969 L 962.902344 753.417969 C 967.398438 753.417969 971.035156 757.058594 971.035156 761.554688 Z M 971.035156 761.554688 " fill-opacity="1" fill-rule="nonzero"/></g></svg>