<svg xmlns="http://www.w3.org/2000/svg" xmlns:xlink="http://www.w3.org/1999/xlink" width="2380" zoomAndPan="magnify" viewBox="0 0 1784.88 1784.99993" height="2380" preserveAspectRatio="xMidYMid meet" version="1.0"><defs><clipPath id="a820e5b412"><path d="M 388.707031 388.765625 L 1395.890625 388.765625 L 1395.890625 1395.949219 L 388.707031 1395.949219 Z M 388.707031 388.765625 " clip-rule="nonzero"/></clipPath><clipPath id="04b91a4d26"><path d="M 892.375 388.765625 C 614.207031 388.765625 388.707031 614.265625 388.707031 892.433594 C 388.707031 1170.601562 614.207031 1396.101562 892.375 1396.101562 C 1170.542969 1396.101562 1396.042969 1170.601562 1396.042969 892.433594 C 1396.042969 614.265625 1170.542969 388.765625 892.375 388.765625 Z M 892.375 388.765625 " clip-rule="nonzero"/></clipPath><linearGradient x1="0.00000179172" gradientTransform="matrix(20.98755, 0, 0, 20.98755, -0.0000125371, -0.0000626704)" y1="0.00000179172" x2="63.990321" gradientUnits="userSpaceOnUse" y2="63.990321" id="79ffaaa07b"><stop stop-opacity="1" stop-color="rgb(89.019775%, 57.649231%, 59.21936%)" offset="0"/><stop stop-opacity="1" stop-color="rgb(88.841248%, 57.440186%, 59.371948%)" offset="0.00390625"/><stop stop-opacity="1" stop-color="rgb(88.664246%, 57.232666%, 59.526062%)" offset="0.0078125"/><stop stop-opacity="1" stop-color="rgb(88.485718%, 57.023621%, 59.67865%)" offset="0.0117188"/><stop stop-opacity="1" stop-color="rgb(88.308716%, 56.816101%, 59.831238%)" offset="0.015625"/><stop stop-opacity="1" stop-color="rgb(88.130188%, 56.607056%, 59.983826%)" offset="0.0195312"/><stop stop-opacity="1" stop-color="rgb(87.953186%, 56.399536%, 60.137939%)" offset="0.0234375"/><stop stop-opacity="1" stop-color="rgb(87.774658%, 56.190491%, 60.290527%)" offset="0.0273438"/><stop stop-opacity="1" stop-color="rgb(87.597656%, 55.981445%, 60.444641%)" offset="0.03125"/><stop stop-opacity="1" stop-color="rgb(87.420654%, 55.7724%, 60.597229%)" offset="0.0351562"/><stop stop-opacity="1" stop-color="rgb(87.243652%, 55.56488%, 60.749817%)" offset="0.0390625"/><stop stop-opacity="1" stop-color="rgb(87.065125%, 55.355835%, 60.902405%)" offset="0.0429688"/><stop stop-opacity="1" stop-color="rgb(86.888123%, 55.148315%, 61.056519%)" offset="0.046875"/><stop stop-opacity="1" stop-color="rgb(86.709595%, 54.93927%, 61.209106%)" offset="0.0507812"/><stop stop-opacity="1" stop-color="rgb(86.532593%, 54.73175%, 61.36322%)" offset="0.0546875"/><stop stop-opacity="1" stop-color="rgb(86.354065%, 54.522705%, 61.515808%)" offset="0.0585938"/><stop stop-opacity="1" stop-color="rgb(86.177063%, 54.315186%, 61.668396%)" offset="0.0625"/><stop stop-opacity="1" stop-color="rgb(85.998535%, 54.10614%, 61.820984%)" offset="0.0664062"/><stop stop-opacity="1" stop-color="rgb(85.821533%, 53.898621%, 61.975098%)" offset="0.0703125"/><stop stop-opacity="1" stop-color="rgb(85.643005%, 53.689575%, 62.127686%)" offset="0.0742188"/><stop stop-opacity="1" stop-color="rgb(85.466003%, 53.48053%, 62.281799%)" offset="0.078125"/><stop stop-opacity="1" stop-color="rgb(85.289001%, 53.271484%, 62.434387%)" offset="0.0820313"/><stop stop-opacity="1" stop-color="rgb(85.112%, 53.063965%, 62.586975%)" offset="0.0859375"/><stop stop-opacity="1" stop-color="rgb(84.933472%, 52.854919%, 62.739563%)" offset="0.0898438"/><stop stop-opacity="1" stop-color="rgb(84.75647%, 52.6474%, 62.893677%)" offset="0.09375"/><stop stop-opacity="1" stop-color="rgb(84.577942%, 52.438354%, 63.046265%)" offset="0.0976562"/><stop stop-opacity="1" stop-color="rgb(84.40094%, 52.230835%, 63.200378%)" offset="0.101562"/><stop stop-opacity="1" stop-color="rgb(84.222412%, 52.02179%, 63.352966%)" offset="0.105469"/><stop stop-opacity="1" stop-color="rgb(84.04541%, 51.81427%, 63.505554%)" offset="0.109375"/><stop stop-opacity="1" stop-color="rgb(83.866882%, 51.605225%, 63.658142%)" offset="0.113281"/><stop stop-opacity="1" stop-color="rgb(83.68988%, 51.397705%, 63.812256%)" offset="0.117188"/><stop stop-opacity="1" stop-color="rgb(83.511353%, 51.18866%, 63.964844%)" offset="0.121094"/><stop stop-opacity="1" stop-color="rgb(83.334351%, 50.979614%, 64.118958%)" offset="0.125"/><stop stop-opacity="1" stop-color="rgb(83.157349%, 50.770569%, 64.271545%)" offset="0.128906"/><stop stop-opacity="1" stop-color="rgb(82.980347%, 50.563049%, 64.424133%)" offset="0.132812"/><stop stop-opacity="1" stop-color="rgb(82.801819%, 50.354004%, 64.576721%)" offset="0.136719"/><stop stop-opacity="1" stop-color="rgb(82.624817%, 50.146484%, 64.730835%)" offset="0.140625"/><stop stop-opacity="1" stop-color="rgb(82.446289%, 49.937439%, 64.883423%)" offset="0.144531"/><stop stop-opacity="1" stop-color="rgb(82.269287%, 49.729919%, 65.037537%)" offset="0.148438"/><stop stop-opacity="1" stop-color="rgb(82.090759%, 49.520874%, 65.190125%)" offset="0.152344"/><stop stop-opacity="1" stop-color="rgb(81.913757%, 49.313354%, 65.342712%)" offset="0.15625"/><stop stop-opacity="1" stop-color="rgb(81.735229%, 49.104309%, 65.4953%)" offset="0.160156"/><stop stop-opacity="1" stop-color="rgb(81.558228%, 48.89679%, 65.649414%)" offset="0.164063"/><stop stop-opacity="1" stop-color="rgb(81.381226%, 48.687744%, 65.802002%)" offset="0.167969"/><stop stop-opacity="1" stop-color="rgb(81.204224%, 48.478699%, 65.956116%)" offset="0.171875"/><stop stop-opacity="1" stop-color="rgb(81.025696%, 48.269653%, 66.108704%)" offset="0.175781"/><stop stop-opacity="1" stop-color="rgb(80.848694%, 48.062134%, 66.261292%)" offset="0.179688"/><stop stop-opacity="1" stop-color="rgb(80.670166%, 47.853088%, 66.413879%)" offset="0.183594"/><stop stop-opacity="1" stop-color="rgb(80.493164%, 47.645569%, 66.567993%)" offset="0.1875"/><stop stop-opacity="1" stop-color="rgb(80.314636%, 47.436523%, 66.720581%)" offset="0.191406"/><stop stop-opacity="1" stop-color="rgb(80.137634%, 47.229004%, 66.874695%)" offset="0.195312"/><stop stop-opacity="1" stop-color="rgb(79.959106%, 47.019958%, 67.027283%)" offset="0.199219"/><stop stop-opacity="1" stop-color="rgb(79.782104%, 46.812439%, 67.179871%)" offset="0.203125"/><stop stop-opacity="1" stop-color="rgb(79.603577%, 46.603394%, 67.332458%)" offset="0.207031"/><stop stop-opacity="1" stop-color="rgb(79.426575%, 46.395874%, 67.486572%)" offset="0.210938"/><stop stop-opacity="1" stop-color="rgb(79.249573%, 46.186829%, 67.63916%)" offset="0.214844"/><stop stop-opacity="1" stop-color="rgb(79.072571%, 45.977783%, 67.793274%)" offset="0.21875"/><stop stop-opacity="1" stop-color="rgb(78.894043%, 45.768738%, 67.945862%)" offset="0.222656"/><stop stop-opacity="1" stop-color="rgb(78.717041%, 45.561218%, 68.09845%)" offset="0.226562"/><stop stop-opacity="1" stop-color="rgb(78.538513%, 45.352173%, 68.251038%)" offset="0.230469"/><stop stop-opacity="1" stop-color="rgb(78.361511%, 45.144653%, 68.405151%)" offset="0.234375"/><stop stop-opacity="1" stop-color="rgb(78.182983%, 44.935608%, 68.557739%)" offset="0.238281"/><stop stop-opacity="1" stop-color="rgb(78.005981%, 44.728088%, 68.711853%)" offset="0.242188"/><stop stop-opacity="1" stop-color="rgb(77.827454%, 44.519043%, 68.864441%)" offset="0.246094"/><stop stop-opacity="1" stop-color="rgb(77.650452%, 44.311523%, 69.017029%)" offset="0.25"/><stop stop-opacity="1" stop-color="rgb(77.253723%, 44.206238%, 69.145203%)" offset="0.253906"/><stop stop-opacity="1" stop-color="rgb(76.856995%, 44.102478%, 69.274902%)" offset="0.257812"/><stop stop-opacity="1" stop-color="rgb(76.45874%, 43.997192%, 69.403076%)" offset="0.261719"/><stop stop-opacity="1" stop-color="rgb(76.060486%, 43.893433%, 69.532776%)" offset="0.265625"/><stop stop-opacity="1" stop-color="rgb(75.662231%, 43.789673%, 69.66095%)" offset="0.269531"/><stop stop-opacity="1" stop-color="rgb(75.263977%, 43.685913%, 69.789124%)" offset="0.273437"/><stop stop-opacity="1" stop-color="rgb(74.865723%, 43.582153%, 69.917297%)" offset="0.277344"/><stop stop-opacity="1" stop-color="rgb(74.467468%, 43.478394%, 70.046997%)" offset="0.28125"/><stop stop-opacity="1" stop-color="rgb(74.069214%, 43.373108%, 70.175171%)" offset="0.285156"/><stop stop-opacity="1" stop-color="rgb(73.670959%, 43.269348%, 70.303345%)" offset="0.289063"/><stop stop-opacity="1" stop-color="rgb(73.272705%, 43.165588%, 70.431519%)" offset="0.292969"/><stop stop-opacity="1" stop-color="rgb(72.874451%, 43.061829%, 70.561218%)" offset="0.296875"/><stop stop-opacity="1" stop-color="rgb(72.476196%, 42.958069%, 70.689392%)" offset="0.300781"/><stop stop-opacity="1" stop-color="rgb(72.077942%, 42.854309%, 70.817566%)" offset="0.304688"/><stop stop-opacity="1" stop-color="rgb(71.679688%, 42.749023%, 70.94574%)" offset="0.308594"/><stop stop-opacity="1" stop-color="rgb(71.281433%, 42.645264%, 71.075439%)" offset="0.3125"/><stop stop-opacity="1" stop-color="rgb(70.883179%, 42.541504%, 71.203613%)" offset="0.316406"/><stop stop-opacity="1" stop-color="rgb(70.484924%, 42.437744%, 71.331787%)" offset="0.320312"/><stop stop-opacity="1" stop-color="rgb(70.08667%, 42.332458%, 71.459961%)" offset="0.324219"/><stop stop-opacity="1" stop-color="rgb(69.688416%, 42.228699%, 71.589661%)" offset="0.328125"/><stop stop-opacity="1" stop-color="rgb(69.290161%, 42.124939%, 71.717834%)" offset="0.332031"/><stop stop-opacity="1" stop-color="rgb(68.891907%, 42.021179%, 71.846008%)" offset="0.335938"/><stop stop-opacity="1" stop-color="rgb(68.493652%, 41.917419%, 71.974182%)" offset="0.339844"/><stop stop-opacity="1" stop-color="rgb(68.095398%, 41.81366%, 72.103882%)" offset="0.34375"/><stop stop-opacity="1" stop-color="rgb(67.697144%, 41.708374%, 72.232056%)" offset="0.347656"/><stop stop-opacity="1" stop-color="rgb(67.298889%, 41.604614%, 72.360229%)" offset="0.351562"/><stop stop-opacity="1" stop-color="rgb(66.900635%, 41.500854%, 72.488403%)" offset="0.355469"/><stop stop-opacity="1" stop-color="rgb(66.50238%, 41.397095%, 72.618103%)" offset="0.359375"/><stop stop-opacity="1" stop-color="rgb(66.104126%, 41.293335%, 72.746277%)" offset="0.363281"/><stop stop-opacity="1" stop-color="rgb(65.705872%, 41.189575%, 72.875977%)" offset="0.367187"/><stop stop-opacity="1" stop-color="rgb(65.307617%, 41.08429%, 73.00415%)" offset="0.371094"/><stop stop-opacity="1" stop-color="rgb(64.909363%, 40.98053%, 73.132324%)" offset="0.375"/><stop stop-opacity="1" stop-color="rgb(64.511108%, 40.87677%, 73.260498%)" offset="0.378906"/><stop stop-opacity="1" stop-color="rgb(64.112854%, 40.77301%, 73.390198%)" offset="0.382812"/><stop stop-opacity="1" stop-color="rgb(63.7146%, 40.667725%, 73.518372%)" offset="0.386719"/><stop stop-opacity="1" stop-color="rgb(63.317871%, 40.563965%, 73.646545%)" offset="0.390625"/><stop stop-opacity="1" stop-color="rgb(62.919617%, 40.460205%, 73.774719%)" offset="0.394531"/><stop stop-opacity="1" stop-color="rgb(62.521362%, 40.356445%, 73.904419%)" offset="0.398437"/><stop stop-opacity="1" stop-color="rgb(62.123108%, 40.252686%, 74.032593%)" offset="0.402344"/><stop stop-opacity="1" stop-color="rgb(61.724854%, 40.148926%, 74.160767%)" offset="0.40625"/><stop stop-opacity="1" stop-color="rgb(61.326599%, 40.04364%, 74.28894%)" offset="0.410156"/><stop stop-opacity="1" stop-color="rgb(60.928345%, 39.93988%, 74.41864%)" offset="0.414062"/><stop stop-opacity="1" stop-color="rgb(60.53009%, 39.836121%, 74.546814%)" offset="0.417969"/><stop stop-opacity="1" stop-color="rgb(60.131836%, 39.732361%, 74.674988%)" offset="0.421875"/><stop stop-opacity="1" stop-color="rgb(59.733582%, 39.628601%, 74.803162%)" offset="0.425781"/><stop stop-opacity="1" stop-color="rgb(59.335327%, 39.524841%, 74.932861%)" offset="0.429688"/><stop stop-opacity="1" stop-color="rgb(58.937073%, 39.419556%, 75.061035%)" offset="0.433594"/><stop stop-opacity="1" stop-color="rgb(58.538818%, 39.315796%, 75.189209%)" offset="0.4375"/><stop stop-opacity="1" stop-color="rgb(58.140564%, 39.212036%, 75.317383%)" offset="0.441406"/><stop stop-opacity="1" stop-color="rgb(57.74231%, 39.108276%, 75.447083%)" offset="0.445313"/><stop stop-opacity="1" stop-color="rgb(57.344055%, 39.002991%, 75.575256%)" offset="0.449219"/><stop stop-opacity="1" stop-color="rgb(56.945801%, 38.899231%, 75.70343%)" offset="0.453125"/><stop stop-opacity="1" stop-color="rgb(56.547546%, 38.795471%, 75.831604%)" offset="0.457031"/><stop stop-opacity="1" stop-color="rgb(56.149292%, 38.691711%, 75.961304%)" offset="0.460938"/><stop stop-opacity="1" stop-color="rgb(55.751038%, 38.587952%, 76.089478%)" offset="0.464844"/><stop stop-opacity="1" stop-color="rgb(55.352783%, 38.484192%, 76.217651%)" offset="0.46875"/><stop stop-opacity="1" stop-color="rgb(54.954529%, 38.378906%, 76.345825%)" offset="0.472656"/><stop stop-opacity="1" stop-color="rgb(54.556274%, 38.275146%, 76.475525%)" offset="0.476563"/><stop stop-opacity="1" stop-color="rgb(54.15802%, 38.171387%, 76.603699%)" offset="0.480469"/><stop stop-opacity="1" stop-color="rgb(53.759766%, 38.067627%, 76.731873%)" offset="0.484375"/><stop stop-opacity="1" stop-color="rgb(53.361511%, 37.963867%, 76.860046%)" offset="0.488281"/><stop stop-opacity="1" stop-color="rgb(52.963257%, 37.860107%, 76.989746%)" offset="0.492188"/><stop stop-opacity="1" stop-color="rgb(52.565002%, 37.754822%, 77.11792%)" offset="0.496094"/><stop stop-opacity="1" stop-color="rgb(52.166748%, 37.651062%, 77.246094%)" offset="0.5"/><stop stop-opacity="1" stop-color="rgb(51.664734%, 37.734985%, 77.308655%)" offset="0.503906"/><stop stop-opacity="1" stop-color="rgb(51.164246%, 37.818909%, 77.371216%)" offset="0.507812"/><stop stop-opacity="1" stop-color="rgb(50.660706%, 37.904358%, 77.432251%)" offset="0.511719"/><stop stop-opacity="1" stop-color="rgb(50.158691%, 37.991333%, 77.493286%)" offset="0.515625"/><stop stop-opacity="1" stop-color="rgb(49.656677%, 38.076782%, 77.554321%)" offset="0.519531"/><stop stop-opacity="1" stop-color="rgb(49.154663%, 38.162231%, 77.616882%)" offset="0.523438"/><stop stop-opacity="1" stop-color="rgb(48.651123%, 38.247681%, 77.677917%)" offset="0.527344"/><stop stop-opacity="1" stop-color="rgb(48.149109%, 38.33313%, 77.738953%)" offset="0.53125"/><stop stop-opacity="1" stop-color="rgb(47.647095%, 38.418579%, 77.799988%)" offset="0.535156"/><stop stop-opacity="1" stop-color="rgb(47.145081%, 38.505554%, 77.862549%)" offset="0.539062"/><stop stop-opacity="1" stop-color="rgb(46.641541%, 38.591003%, 77.923584%)" offset="0.542969"/><stop stop-opacity="1" stop-color="rgb(46.139526%, 38.676453%, 77.984619%)" offset="0.546875"/><stop stop-opacity="1" stop-color="rgb(45.637512%, 38.761902%, 78.045654%)" offset="0.550781"/><stop stop-opacity="1" stop-color="rgb(45.135498%, 38.848877%, 78.108215%)" offset="0.554688"/><stop stop-opacity="1" stop-color="rgb(44.631958%, 38.934326%, 78.16925%)" offset="0.558594"/><stop stop-opacity="1" stop-color="rgb(44.129944%, 39.019775%, 78.230286%)" offset="0.5625"/><stop stop-opacity="1" stop-color="rgb(43.62793%, 39.105225%, 78.291321%)" offset="0.566406"/><stop stop-opacity="1" stop-color="rgb(43.125916%, 39.190674%, 78.353882%)" offset="0.570312"/><stop stop-opacity="1" stop-color="rgb(42.622375%, 39.276123%, 78.414917%)" offset="0.574219"/><stop stop-opacity="1" stop-color="rgb(42.120361%, 39.363098%, 78.475952%)" offset="0.578125"/><stop stop-opacity="1" stop-color="rgb(41.618347%, 39.448547%, 78.536987%)" offset="0.582031"/><stop stop-opacity="1" stop-color="rgb(41.116333%, 39.533997%, 78.598022%)" offset="0.585938"/><stop stop-opacity="1" stop-color="rgb(40.612793%, 39.619446%, 78.659058%)" offset="0.589844"/><stop stop-opacity="1" stop-color="rgb(40.110779%, 39.706421%, 78.721619%)" offset="0.59375"/><stop stop-opacity="1" stop-color="rgb(39.607239%, 39.79187%, 78.782654%)" offset="0.597656"/><stop stop-opacity="1" stop-color="rgb(39.105225%, 39.877319%, 78.843689%)" offset="0.601562"/><stop stop-opacity="1" stop-color="rgb(38.60321%, 39.962769%, 78.904724%)" offset="0.605469"/><stop stop-opacity="1" stop-color="rgb(38.101196%, 40.049744%, 78.967285%)" offset="0.609375"/><stop stop-opacity="1" stop-color="rgb(37.597656%, 40.135193%, 79.02832%)" offset="0.613281"/><stop stop-opacity="1" stop-color="rgb(37.095642%, 40.220642%, 79.089355%)" offset="0.617188"/><stop stop-opacity="1" stop-color="rgb(36.593628%, 40.306091%, 79.150391%)" offset="0.621094"/><stop stop-opacity="1" stop-color="rgb(36.091614%, 40.391541%, 79.212952%)" offset="0.625"/><stop stop-opacity="1" stop-color="rgb(35.588074%, 40.47699%, 79.273987%)" offset="0.628906"/><stop stop-opacity="1" stop-color="rgb(35.08606%, 40.563965%, 79.335022%)" offset="0.632813"/><stop stop-opacity="1" stop-color="rgb(34.584045%, 40.649414%, 79.396057%)" offset="0.636719"/><stop stop-opacity="1" stop-color="rgb(34.082031%, 40.734863%, 79.458618%)" offset="0.640625"/><stop stop-opacity="1" stop-color="rgb(33.578491%, 40.820312%, 79.519653%)" offset="0.644531"/><stop stop-opacity="1" stop-color="rgb(33.076477%, 40.907288%, 79.580688%)" offset="0.648438"/><stop stop-opacity="1" stop-color="rgb(32.574463%, 40.992737%, 79.641724%)" offset="0.652344"/><stop stop-opacity="1" stop-color="rgb(32.072449%, 41.078186%, 79.704285%)" offset="0.65625"/><stop stop-opacity="1" stop-color="rgb(31.568909%, 41.163635%, 79.76532%)" offset="0.660156"/><stop stop-opacity="1" stop-color="rgb(31.066895%, 41.249084%, 79.826355%)" offset="0.664062"/><stop stop-opacity="1" stop-color="rgb(30.56488%, 41.334534%, 79.88739%)" offset="0.667969"/><stop stop-opacity="1" stop-color="rgb(30.062866%, 41.421509%, 79.949951%)" offset="0.671875"/><stop stop-opacity="1" stop-color="rgb(29.559326%, 41.506958%, 80.010986%)" offset="0.675781"/><stop stop-opacity="1" stop-color="rgb(29.057312%, 41.592407%, 80.072021%)" offset="0.679688"/><stop stop-opacity="1" stop-color="rgb(28.555298%, 41.677856%, 80.133057%)" offset="0.683594"/><stop stop-opacity="1" stop-color="rgb(28.053284%, 41.764832%, 80.195618%)" offset="0.6875"/><stop stop-opacity="1" stop-color="rgb(27.549744%, 41.850281%, 80.256653%)" offset="0.691406"/><stop stop-opacity="1" stop-color="rgb(27.047729%, 41.93573%, 80.317688%)" offset="0.695312"/><stop stop-opacity="1" stop-color="rgb(26.544189%, 42.021179%, 80.378723%)" offset="0.699219"/><stop stop-opacity="1" stop-color="rgb(26.042175%, 42.108154%, 80.441284%)" offset="0.703125"/><stop stop-opacity="1" stop-color="rgb(25.540161%, 42.193604%, 80.502319%)" offset="0.707031"/><stop stop-opacity="1" stop-color="rgb(25.038147%, 42.279053%, 80.563354%)" offset="0.710938"/><stop stop-opacity="1" stop-color="rgb(24.534607%, 42.364502%, 80.62439%)" offset="0.714844"/><stop stop-opacity="1" stop-color="rgb(24.032593%, 42.449951%, 80.686951%)" offset="0.71875"/><stop stop-opacity="1" stop-color="rgb(23.530579%, 42.5354%, 80.747986%)" offset="0.722656"/><stop stop-opacity="1" stop-color="rgb(23.028564%, 42.622375%, 80.809021%)" offset="0.726562"/><stop stop-opacity="1" stop-color="rgb(22.525024%, 42.707825%, 80.870056%)" offset="0.730469"/><stop stop-opacity="1" stop-color="rgb(22.02301%, 42.793274%, 80.932617%)" offset="0.734375"/><stop stop-opacity="1" stop-color="rgb(21.520996%, 42.878723%, 80.993652%)" offset="0.738281"/><stop stop-opacity="1" stop-color="rgb(21.018982%, 42.965698%, 81.054688%)" offset="0.742188"/><stop stop-opacity="1" stop-color="rgb(20.515442%, 43.051147%, 81.115723%)" offset="0.746094"/><stop stop-opacity="1" stop-color="rgb(20.013428%, 43.136597%, 81.176758%)" offset="0.75"/><stop stop-opacity="1" stop-color="rgb(19.703674%, 43.058777%, 81.056213%)" offset="0.753906"/><stop stop-opacity="1" stop-color="rgb(19.395447%, 42.982483%, 80.937195%)" offset="0.757813"/><stop stop-opacity="1" stop-color="rgb(19.088745%, 42.901611%, 80.813599%)" offset="0.761719"/><stop stop-opacity="1" stop-color="rgb(18.782043%, 42.822266%, 80.691528%)" offset="0.765625"/><stop stop-opacity="1" stop-color="rgb(18.475342%, 42.74292%, 80.569458%)" offset="0.769531"/><stop stop-opacity="1" stop-color="rgb(18.170166%, 42.663574%, 80.447388%)" offset="0.773438"/><stop stop-opacity="1" stop-color="rgb(17.863464%, 42.584229%, 80.323792%)" offset="0.777344"/><stop stop-opacity="1" stop-color="rgb(17.556763%, 42.504883%, 80.201721%)" offset="0.78125"/><stop stop-opacity="1" stop-color="rgb(17.250061%, 42.424011%, 80.078125%)" offset="0.785156"/><stop stop-opacity="1" stop-color="rgb(16.944885%, 42.344666%, 79.956055%)" offset="0.789063"/><stop stop-opacity="1" stop-color="rgb(16.638184%, 42.26532%, 79.832458%)" offset="0.792969"/><stop stop-opacity="1" stop-color="rgb(16.331482%, 42.185974%, 79.710388%)" offset="0.796875"/><stop stop-opacity="1" stop-color="rgb(16.02478%, 42.105103%, 79.588318%)" offset="0.800781"/><stop stop-opacity="1" stop-color="rgb(15.719604%, 42.025757%, 79.466248%)" offset="0.804688"/><stop stop-opacity="1" stop-color="rgb(15.412903%, 41.946411%, 79.342651%)" offset="0.808594"/><stop stop-opacity="1" stop-color="rgb(15.106201%, 41.867065%, 79.220581%)" offset="0.8125"/><stop stop-opacity="1" stop-color="rgb(14.7995%, 41.786194%, 79.096985%)" offset="0.816406"/><stop stop-opacity="1" stop-color="rgb(14.494324%, 41.706848%, 78.974915%)" offset="0.820312"/><stop stop-opacity="1" stop-color="rgb(14.187622%, 41.627502%, 78.852844%)" offset="0.824219"/><stop stop-opacity="1" stop-color="rgb(13.88092%, 41.548157%, 78.730774%)" offset="0.828125"/><stop stop-opacity="1" stop-color="rgb(13.574219%, 41.467285%, 78.607178%)" offset="0.832031"/><stop stop-opacity="1" stop-color="rgb(13.267517%, 41.387939%, 78.485107%)" offset="0.835938"/><stop stop-opacity="1" stop-color="rgb(12.960815%, 41.308594%, 78.361511%)" offset="0.839844"/><stop stop-opacity="1" stop-color="rgb(12.65564%, 41.229248%, 78.239441%)" offset="0.84375"/><stop stop-opacity="1" stop-color="rgb(12.348938%, 41.149902%, 78.115845%)" offset="0.847656"/><stop stop-opacity="1" stop-color="rgb(12.042236%, 41.070557%, 77.993774%)" offset="0.851562"/><stop stop-opacity="1" stop-color="rgb(11.735535%, 40.989685%, 77.871704%)" offset="0.855469"/><stop stop-opacity="1" stop-color="rgb(11.430359%, 40.910339%, 77.749634%)" offset="0.859375"/><stop stop-opacity="1" stop-color="rgb(11.123657%, 40.830994%, 77.626038%)" offset="0.863281"/><stop stop-opacity="1" stop-color="rgb(10.816956%, 40.751648%, 77.503967%)" offset="0.867188"/><stop stop-opacity="1" stop-color="rgb(10.510254%, 40.670776%, 77.380371%)" offset="0.871094"/><stop stop-opacity="1" stop-color="rgb(10.205078%, 40.591431%, 77.258301%)" offset="0.875"/><stop stop-opacity="1" stop-color="rgb(9.898376%, 40.512085%, 77.134705%)" offset="0.878906"/><stop stop-opacity="1" stop-color="rgb(9.591675%, 40.432739%, 77.012634%)" offset="0.882812"/><stop stop-opacity="1" stop-color="rgb(9.284973%, 40.351868%, 76.890564%)" offset="0.886719"/><stop stop-opacity="1" stop-color="rgb(8.979797%, 40.272522%, 76.768494%)" offset="0.890625"/><stop stop-opacity="1" stop-color="rgb(8.673096%, 40.193176%, 76.644897%)" offset="0.894531"/><stop stop-opacity="1" stop-color="rgb(8.366394%, 40.113831%, 76.522827%)" offset="0.898438"/><stop stop-opacity="1" stop-color="rgb(8.059692%, 40.034485%, 76.399231%)" offset="0.902344"/><stop stop-opacity="1" stop-color="rgb(7.752991%, 39.955139%, 76.277161%)" offset="0.90625"/><stop stop-opacity="1" stop-color="rgb(7.446289%, 39.874268%, 76.153564%)" offset="0.910156"/><stop stop-opacity="1" stop-color="rgb(7.141113%, 39.794922%, 76.031494%)" offset="0.914062"/><stop stop-opacity="1" stop-color="rgb(6.834412%, 39.715576%, 75.909424%)" offset="0.917969"/><stop stop-opacity="1" stop-color="rgb(6.52771%, 39.63623%, 75.787354%)" offset="0.921875"/><stop stop-opacity="1" stop-color="rgb(6.221008%, 39.555359%, 75.663757%)" offset="0.925781"/><stop stop-opacity="1" stop-color="rgb(5.915833%, 39.476013%, 75.541687%)" offset="0.929688"/><stop stop-opacity="1" stop-color="rgb(5.609131%, 39.396667%, 75.418091%)" offset="0.933594"/><stop stop-opacity="1" stop-color="rgb(5.302429%, 39.317322%, 75.296021%)" offset="0.9375"/><stop stop-opacity="1" stop-color="rgb(4.995728%, 39.23645%, 75.172424%)" offset="0.941406"/><stop stop-opacity="1" stop-color="rgb(4.690552%, 39.157104%, 75.050354%)" offset="0.945312"/><stop stop-opacity="1" stop-color="rgb(4.38385%, 39.077759%, 74.928284%)" offset="0.949219"/><stop stop-opacity="1" stop-color="rgb(4.077148%, 38.998413%, 74.806213%)" offset="0.953125"/><stop stop-opacity="1" stop-color="rgb(3.770447%, 38.919067%, 74.682617%)" offset="0.957031"/><stop stop-opacity="1" stop-color="rgb(3.465271%, 38.839722%, 74.560547%)" offset="0.960937"/><stop stop-opacity="1" stop-color="rgb(3.158569%, 38.75885%, 74.436951%)" offset="0.964844"/><stop stop-opacity="1" stop-color="rgb(2.851868%, 38.679504%, 74.31488%)" offset="0.96875"/><stop stop-opacity="1" stop-color="rgb(2.545166%, 38.600159%, 74.191284%)" offset="0.972656"/><stop stop-opacity="1" stop-color="rgb(2.23999%, 38.520813%, 74.069214%)" offset="0.976562"/><stop stop-opacity="1" stop-color="rgb(1.933289%, 38.439941%, 73.947144%)" offset="0.980469"/><stop stop-opacity="1" stop-color="rgb(1.626587%, 38.360596%, 73.825073%)" offset="0.984375"/><stop stop-opacity="1" stop-color="rgb(1.319885%, 38.28125%, 73.701477%)" offset="0.988281"/><stop stop-opacity="1" stop-color="rgb(1.013184%, 38.201904%, 73.579407%)" offset="0.992188"/><stop stop-opacity="1" stop-color="rgb(0.706482%, 38.121033%, 73.455811%)" offset="0.996094"/><stop stop-opacity="1" stop-color="rgb(0.401306%, 38.041687%, 73.33374%)" offset="1"/></linearGradient><clipPath id="a9993f81d4"><path d="M 571.519531 585.078125 L 1213.476562 585.078125 L 1213.476562 1227 L 571.519531 1227 Z M 571.519531 585.078125 " clip-rule="nonzero"/></clipPath></defs><g clip-path="url(#a820e5b412)"><g clip-path="url(#04b91a4d26)"><path stroke-linecap="butt" transform="matrix(0.74995, 0, 0, 0.74995, 388.706936, 388.767019)" fill="none" stroke-linejoin="miter" d="M 671.602596 -0.00185836 C 300.68702 -0.00185836 0.000126892 300.685035 0.000126892 671.600611 C 0.000126892 1042.516187 300.68702 1343.20308 671.602596 1343.20308 C 1042.518172 1343.20308 1343.205066 1042.516187 1343.205066 671.600611 C 1343.205066 300.685035 1042.518172 -0.00185836 671.602596 -0.00185836 Z M 671.602596 -0.00185836 " stroke="url(#79ffaaa07b)" stroke-width="80" stroke-miterlimit="4"/></g></g><g clip-path="url(#a9993f81d4)"><path fill="#ffffff" d="M 776.585938 1130.371094 C 774.980469 1133.230469 772.007812 1134.839844 768.941406 1134.839844 C 767.492188 1134.839844 766.019531 1134.480469 764.660156 1133.71875 C 682.378906 1087.484375 631.261719 1000.210938 631.261719 905.953125 C 631.261719 885.582031 633.636719 865.203125 638.320312 845.386719 C 639.433594 840.679688 644.152344 837.765625 648.855469 838.878906 C 653.5625 839.992188 656.476562 844.707031 655.363281 849.414062 C 650.996094 867.914062 648.777344 886.9375 648.777344 905.953125 C 648.777344 993.890625 696.46875 1075.3125 773.242188 1118.445312 C 777.457031 1120.816406 778.957031 1126.15625 776.585938 1130.371094 Z M 800.289062 679.695312 C 801.355469 679.695312 802.4375 679.5 803.484375 679.089844 C 831.789062 667.988281 861.695312 662.355469 892.375 662.355469 C 923.054688 662.355469 952.960938 667.984375 981.265625 679.089844 C 985.769531 680.855469 990.851562 678.636719 992.617188 674.132812 C 994.382812 669.632812 992.167969 664.550781 987.664062 662.78125 C 957.3125 650.878906 925.253906 644.839844 892.378906 644.839844 C 859.5 644.839844 827.441406 650.878906 797.089844 662.78125 C 792.589844 664.546875 790.371094 669.632812 792.136719 674.132812 C 793.492188 677.585938 796.796875 679.695312 800.292969 679.695312 Z M 1135.894531 838.878906 C 1131.1875 839.992188 1128.273438 844.710938 1129.386719 849.417969 C 1133.753906 867.910156 1135.972656 886.929688 1135.972656 905.953125 C 1135.972656 993.890625 1088.28125 1075.3125 1011.507812 1118.445312 C 1007.292969 1120.816406 1005.792969 1126.15625 1008.164062 1130.371094 C 1009.769531 1133.230469 1012.746094 1134.839844 1015.808594 1134.839844 C 1017.261719 1134.839844 1018.734375 1134.480469 1020.089844 1133.71875 C 1102.371094 1087.484375 1153.488281 1000.210938 1153.488281 905.953125 C 1153.488281 885.574219 1151.113281 865.199219 1146.433594 845.386719 C 1145.320312 840.679688 1140.605469 837.765625 1135.894531 838.878906 Z M 997.699219 1218.03125 C 997.699219 1222.867188 993.777344 1226.785156 988.941406 1226.785156 L 795.8125 1226.785156 C 790.972656 1226.785156 787.054688 1222.867188 787.054688 1218.03125 C 787.054688 1162.445312 806.699219 1112.394531 838.8125 1084.839844 C 833.09375 1075.398438 829.796875 1064.328125 829.796875 1052.503906 C 829.796875 1017.996094 857.867188 989.921875 892.378906 989.921875 C 926.886719 989.921875 954.960938 1017.996094 954.960938 1052.503906 C 954.960938 1064.332031 951.660156 1075.398438 945.9375 1084.84375 C 978.054688 1112.417969 997.699219 1162.46875 997.699219 1218.027344 Z M 847.308594 1052.503906 C 847.308594 1077.355469 867.527344 1097.570312 892.375 1097.570312 C 917.226562 1097.570312 937.445312 1077.355469 937.445312 1052.503906 C 937.445312 1027.652344 917.226562 1007.4375 892.375 1007.4375 C 867.527344 1007.4375 847.308594 1027.652344 847.308594 1052.503906 Z M 980 1209.269531 C 978.066406 1163.09375 960.945312 1121.148438 934.839844 1098.421875 C 923.675781 1108.753906 908.753906 1115.085938 892.375 1115.085938 C 875.996094 1115.085938 861.074219 1108.753906 849.910156 1098.417969 C 823.808594 1121.121094 806.6875 1163.074219 804.753906 1209.269531 Z M 773.429688 821.945312 L 580.300781 821.945312 C 575.464844 821.945312 571.542969 818.027344 571.542969 813.191406 C 571.542969 757.613281 591.191406 707.558594 623.304688 680.007812 C 617.582031 670.5625 614.28125 659.492188 614.28125 647.667969 C 614.28125 613.15625 642.355469 585.082031 676.863281 585.082031 C 711.375 585.082031 739.445312 613.15625 739.445312 647.667969 C 739.445312 659.5 736.144531 670.578125 730.410156 680.027344 C 762.535156 707.597656 782.1875 757.640625 782.1875 813.191406 C 782.1875 818.027344 778.269531 821.945312 773.429688 821.945312 Z M 631.796875 647.667969 C 631.796875 672.515625 652.015625 692.734375 676.863281 692.734375 C 701.714844 692.734375 721.929688 672.515625 721.929688 647.667969 C 721.929688 622.816406 701.714844 602.597656 676.863281 602.597656 C 652.015625 602.597656 631.796875 622.816406 631.796875 647.667969 Z M 764.488281 804.433594 C 762.554688 758.261719 745.425781 716.320312 719.308594 693.601562 C 708.144531 703.921875 693.230469 710.246094 676.863281 710.246094 C 660.496094 710.246094 645.570312 703.917969 634.402344 693.585938 C 608.296875 716.289062 591.175781 758.242188 589.242188 804.433594 Z M 1213.207031 813.191406 C 1213.207031 818.027344 1209.289062 821.945312 1204.453125 821.945312 L 1011.324219 821.945312 C 1006.484375 821.945312 1002.566406 818.027344 1002.566406 813.191406 C 1002.566406 757.617188 1022.21875 707.570312 1054.339844 680.023438 C 1048.609375 670.574219 1045.304688 659.5 1045.304688 647.667969 C 1045.304688 613.15625 1073.378906 585.082031 1107.886719 585.082031 C 1142.394531 585.082031 1170.46875 613.15625 1170.46875 647.667969 C 1170.46875 659.5 1167.164062 670.574219 1161.4375 680.023438 C 1193.558594 707.574219 1213.207031 757.617188 1213.207031 813.191406 Z M 1062.820312 647.667969 C 1062.820312 672.515625 1083.039062 692.734375 1107.886719 692.734375 C 1132.738281 692.734375 1152.953125 672.515625 1152.953125 647.667969 C 1152.953125 622.816406 1132.738281 602.597656 1107.886719 602.597656 C 1083.039062 602.597656 1062.820312 622.816406 1062.820312 647.667969 Z M 1195.511719 804.433594 C 1193.578125 758.242188 1176.449219 716.300781 1150.332031 693.597656 C 1139.167969 703.921875 1124.257812 710.246094 1107.886719 710.246094 C 1091.519531 710.246094 1076.605469 703.921875 1065.441406 693.597656 C 1039.328125 716.296875 1022.199219 758.242188 1020.265625 804.433594 Z M 957.410156 862.394531 C 957.410156 898.253906 928.238281 927.429688 892.375 927.429688 C 856.515625 927.429688 827.308594 898.257812 827.308594 862.394531 C 827.308594 826.535156 856.496094 797.328125 892.375 797.328125 C 928.253906 797.328125 957.410156 826.515625 957.410156 862.394531 Z M 939.894531 862.394531 C 939.894531 836.171875 918.578125 814.84375 892.375 814.84375 C 866.171875 814.84375 844.824219 836.175781 844.824219 862.394531 C 844.824219 888.617188 866.15625 909.914062 892.375 909.914062 C 918.59375 909.914062 939.894531 888.597656 939.894531 862.394531 Z M 1006.582031 841.433594 L 1006.582031 883.320312 C 1006.582031 887.367188 1003.808594 890.886719 999.875 891.835938 L 983.5 895.78125 C 982.582031 898.289062 981.554688 900.765625 980.429688 903.191406 L 989.230469 917.535156 C 991.347656 920.992188 990.820312 925.453125 987.949219 928.316406 L 958.289062 957.941406 C 955.429688 960.800781 950.980469 961.328125 947.527344 959.21875 L 933.179688 950.445312 C 930.746094 951.578125 928.269531 952.605469 925.769531 953.523438 L 921.855469 969.847656 C 920.910156 973.785156 917.390625 976.5625 913.339844 976.5625 L 871.414062 976.5625 C 867.367188 976.5625 863.84375 973.785156 862.898438 969.847656 L 858.984375 953.527344 C 856.464844 952.605469 853.976562 951.574219 851.539062 950.445312 L 837.1875 959.21875 C 833.738281 961.332031 829.289062 960.800781 826.425781 957.941406 L 796.796875 928.308594 C 793.933594 925.445312 793.40625 920.992188 795.523438 917.539062 L 804.324219 903.191406 C 803.199219 900.765625 802.171875 898.292969 801.25 895.78125 L 784.878906 891.835938 C 780.945312 890.886719 778.171875 887.367188 778.171875 883.320312 L 778.171875 841.433594 C 778.171875 837.386719 780.945312 833.867188 784.878906 832.921875 L 801.25 828.972656 C 802.171875 826.464844 803.199219 823.988281 804.324219 821.566406 L 795.523438 807.21875 C 793.40625 803.765625 793.929688 799.3125 796.796875 796.445312 L 826.425781 766.816406 C 829.285156 763.953125 833.738281 763.421875 837.1875 765.535156 L 851.539062 774.3125 C 853.96875 773.183594 856.445312 772.15625 858.957031 771.234375 L 862.902344 754.890625 C 863.851562 750.960938 867.367188 748.191406 871.414062 748.191406 L 913.339844 748.191406 C 917.386719 748.191406 920.910156 750.96875 921.855469 754.90625 L 925.769531 771.230469 C 928.269531 772.148438 930.746094 773.175781 933.183594 774.308594 L 947.527344 765.535156 C 950.976562 763.421875 955.429688 763.949219 958.292969 766.8125 L 987.949219 796.4375 C 990.820312 799.300781 991.351562 803.761719 989.230469 807.21875 L 980.429688 821.5625 C 981.554688 823.988281 982.582031 826.464844 983.5 828.972656 L 999.875 832.917969 C 1003.808594 833.867188 1006.582031 837.386719 1006.582031 841.433594 Z M 989.066406 848.332031 L 974.703125 844.867188 C 971.699219 844.140625 969.296875 841.890625 968.386719 838.9375 C 966.929688 834.210938 965.011719 829.59375 962.691406 825.210938 C 961.242188 822.472656 961.347656 819.175781 962.964844 816.53125 L 970.683594 803.953125 L 950.78125 784.078125 L 938.191406 791.777344 C 935.554688 793.390625 932.257812 793.492188 929.527344 792.046875 C 925.097656 789.703125 920.484375 787.789062 915.816406 786.355469 C 912.851562 785.445312 910.589844 783.039062 909.867188 780.027344 L 906.433594 765.707031 L 878.3125 765.707031 L 874.847656 780.039062 C 874.125 783.042969 871.871094 785.441406 868.917969 786.351562 C 864.195312 787.808594 859.578125 789.726562 855.191406 792.046875 C 852.460938 793.492188 849.164062 793.390625 846.527344 791.777344 L 833.9375 784.078125 L 814.066406 803.949219 L 821.789062 816.535156 C 823.40625 819.175781 823.511719 822.476562 822.0625 825.210938 C 819.742188 829.59375 817.828125 834.210938 816.367188 838.9375 C 815.457031 841.890625 813.058594 844.144531 810.050781 844.867188 L 795.6875 848.332031 L 795.6875 876.425781 L 810.050781 879.890625 C 813.054688 880.613281 815.457031 882.867188 816.367188 885.820312 C 817.828125 890.546875 819.742188 895.164062 822.0625 899.546875 C 823.511719 902.285156 823.40625 905.582031 821.789062 908.222656 L 814.066406 920.8125 L 833.9375 940.679688 L 846.527344 932.980469 C 849.164062 931.367188 852.457031 931.265625 855.191406 932.710938 C 859.589844 935.039062 864.214844 936.953125 868.941406 938.402344 C 871.902344 939.3125 874.164062 941.71875 874.890625 944.730469 L 878.320312 959.050781 L 906.433594 959.050781 L 909.867188 944.730469 C 910.59375 941.71875 912.855469 939.3125 915.816406 938.402344 C 920.488281 936.96875 925.097656 935.054688 929.527344 932.710938 C 932.261719 931.265625 935.558594 931.367188 938.195312 932.980469 L 950.785156 940.679688 L 970.683594 920.804688 L 962.96875 908.226562 C 961.347656 905.585938 961.242188 902.285156 962.691406 899.546875 C 965.015625 895.164062 966.929688 890.542969 968.386719 885.820312 C 969.300781 882.867188 971.699219 880.613281 974.703125 879.890625 L 989.066406 876.425781 Z M 989.066406 848.332031 " fill-opacity="1" fill-rule="nonzero"/></g></svg>