<?xml version="1.0" encoding="UTF-8"?>
<svg id="Layer_1" xmlns="http://www.w3.org/2000/svg" width="490" height="250" version="1.1" viewBox="0 0 490 250">
  <!-- Generator: Adobe Illustrator 30.1.0, SVG Export Plug-In . SVG Version: 2.1.1 Build 136)  -->
  <g id="Layer_3">
    <g>
      <path d="M5.489,102.611h30.867v64.19201c7.772.123,14.891-3.00101,21.348-9.369,6.457-6.371,10.774-14.048,12.951-23.04201.112-.62399.229-1.248.343-1.87399.112-.625.168-1.311.168-2.06.227-1.25301.372-2.531.431-3.841.056-1.309.084-2.463.084-3.465,0-7.37-1.712-13.144-5.143-17.334-3.428-4.182-8.005-6.273-13.716-6.273l-52.822-.187,6.519-29.038h49.557c14.408.125,25.809,4.026,34.211,11.707,8.403,7.685,12.888,19.892,13.461,36.627v2.436c0,2.125-.083,4.218-.258,6.277-.17,2.05801-.426,4.15701-.768,6.27399-2.401,14.73801-9.202,28.416-20.408,41.02899-11.205,12.61501-26.87,19.60899-46.986,20.979l-29.838-.183v-92.85499h-.001Z" fill="#094684"/>
      <path d="M391.73801,102.611h30.867v64.19201c7.76801.123,14.89001-3.00101,21.34799-9.369,6.457-6.371,10.77301-14.048,12.94901-23.04201.11499-.62399.23001-1.248.34399-1.87399.11301-.625.17001-1.311.17001-2.06.22699-1.25301.36801-2.531.42999-3.841.056-1.309.086-2.463.086-3.465,0-7.37-1.715-13.144-5.14401-17.334-3.42899-4.182-8.005-6.273-13.71701-6.273l-52.819-.188,6.517-29.037h49.55798c14.409.124,25.811,4.026,34.21301,11.707,8.40399,7.685,12.888,19.892,13.461,36.627v2.436c0,2.125-.08499,4.218-.259,6.277-.172,2.06001-.42599,4.15701-.76901,6.275-2.401,14.739-9.20401,28.41699-20.40799,41.02899-11.20401,12.616-26.867,19.61-46.98502,20.98l-29.83801-.183v-92.857h-.00394v.00002Z" fill="#dc082c"/>
      <path d="M119.64,108.918c6.142-5.37,16.224-8.055,30.25-8.055,1.854,0,4.37601.066,7.562.188,3.187.125,6.461.626,9.825,1.499,5.099,1.123,9.966,3.165,14.08099,6.744,9.04201,7.857,8.078,22.573,2.97,32.967-3.735,7.59599-8.47501,12.30299-12.185,15.925-3.01399,2.87399-5.88499,5.18201-8.604,6.931-2.724,1.746-4.724,2.87399-5.99899,3.37199,1.043,1.00101,2.485,1.65601,4.34801,1.873,11.118,1.286,21.554.185,21.554.185l-8.16901,25.103h-1.625c-20.812,0-39.91899-4.52499-50.269-17.229-9.363-11.498-13.997-22.77499-13.997-41.496.00101-12.46999,4.11401-22.63399,10.258-28.00699ZM140.246,150.565c9.103-5.23399,12.599-9.131,13.875-10.438,2.983-3.045,5.50101-5.396,4.91-10.397-.98801-8.353-17.756-5.162-20.399,3.258-1.821,5.80101.099,15.26801,1.614,17.57701h0Z" fill="#094684"/>
      <path d="M301.621,70.321h84.55499l-6.91299,29.083h-46.58398v18.011h42.09698l-6.55899,28.891h-35.53799v20.642h49.862l-6.729,28.70399h-74.19v-125.33099h-.00101Z" fill="#dc082c"/>
      <g>
        <rect x="192.573" y="103.262" width="66.73001" height="19.625" fill="#094684"/>
        <g>
          <path d="M247.78,126.812h-30.033l4.54401,115.94301h-3.41701l-4.547-115.943h-10.22501s11.427,64.85,12.09599,118.35801h19.47701c.67401-53.50902,12.10501-118.35802,12.10501-118.35802Z" fill="#094684"/>
          <path d="M216.23399,250h19.408c0-.8.007-1.605.011-2.41299h-19.429c.004.808.00999,1.61299.00999,2.41299Z" fill="#094684"/>
        </g>
      </g>
      <path d="M202.836,28.583s7.883,3.02,5.459,11.07c-2.005,6.646-9.907,15.7-14.55701,27.778-4.653,12.078-.812,24.155,7.884,30.395h46.311c10.51601-13.283,14.153-25.361,12.536-37.641-1.86401-14.143-16.987-30.798-23.056-36.838C230.604,16.568,219.41701,7.045,226.29201,0,226.29201,0,217.951,4.256,217.19301,13.688c-1.215,15.095,16.722,22.643,12.13,37.438-4.244,13.689-25.881,16.908-19.20799,35.02399,0,0-11.321-6.643-.40601-20.732,5.871-7.571,10.41699-12.589,11.93401-18.317,3.02898-11.47399-8.09003-19.72699-18.80702-18.51799Z" fill="#dc082c"/>
      <path d="M233.97501,47.904s1.562,9.009-10.834,18.116c-11.68201,8.583-11.61,16.86-8.64101,22.92,0,0-2.77299-10.276,8.356-17.682,9.302-6.19199,17.037-11.931,11.119-23.354Z" fill="#f0b50d"/>
      <path d="M273.62201,103.262h-10.526v19.938c4.76001.93,5.867,4.036,5.867,10.55501v28.483c0,8.006-1.66199,10.87-9.707,10.87h-8.79401v24.052h23.16101c8.04099,0,18.198-8.754,18.198-19.321v-55.256c-.00201-9.50901-8.30002-19.32101-18.19901-19.32101Z" fill="#094684"/>
      <g>
        <g>
          <path d="M7.057,229.502c0-2.83701-.028-3.24699-1.422-3.369l-.627-.05701c-.205-.147-.205-.67999.025-.821,2.141-.18201,4.516-.271,7.425-.271,2.824,0,4.841.233,7.006,1.004,3.563,1.3,6.089,4.433,6.089,8.832,0,3.283-1.639,6.647-5.315,8.517-2.112,1.061-4.66,1.41499-7.37,1.41499-1.804,0-3.203-.17599-4.303-.17599-1.125,0-2.46.02699-3.763.08701-.24-.119-.273-.64999-.062-.854l.65-.093c1.395-.174,1.666-.263,1.666-3.397l.001-10.81699h0ZM10.5,239.164c0,2.866.208,4.401,3.359,4.401,5.279,0,7.653-3.72,7.653-8.714,0-5.85001-3.411-8.685-8.373-8.685-1.242,0-2.195.23599-2.402.41299-.208.179-.237.795-.237,2.186,0,0,0,10.399,0,10.399Z" fill="#094684"/>
          <path d="M30.328,229.32401c0-3.129-.268-3.248-1.659-3.422l-.48-.063c-.206-.203-.172-.73801.059-.856,1.129.06,2.531.09,3.831.09h5.671c1.902,0,3.619-.03,4.008-.09.117.502.297,2.836.474,4.106-.117.23399-.714.29601-.952.119-.472-1.713-.918-2.424-1.868-2.688-.68-.17999-1.576-.267-2.375-.267h-1.989c-1.275,0-1.275.058-1.275,1.742v4.99699c0,.765.028.79601.711.79601h1.426c2.583,0,3.025-.03101,3.294-1.302l.207-1.004c.24-.20599.8-.20599.95.02699-.03.80299-.089,1.86301-.089,2.95599,0,1.123.058,2.158.089,3.104-.15.207-.709.207-.95.03l-.207-1.181c-.209-1.243-.712-1.306-3.294-1.306h-1.426c-.683,0-.711.063-.711.8v3.752c0,1.50999.06,2.571.503,3.073.355.414.861.616,3.357.65199,3.769.03,4.421-.798,5.458-3.19099.27-.20799.774-.119.949.17599-.175,1.246-.828,3.485-1.246,4.284-1.308-.06-3.86-.088-7.332-.088h-3.383c-1.3,0-3.113.02699-4.452.088-.237-.12-.266-.651-.061-.855l1.103-.119c1.392-.147,1.66-.23599,1.66-3.37l-.001-10.98999h0Z" fill="#094684"/>
          <path d="M47.544,229.502c0-2.688-.028-3.16-1.275-3.308l-1.037-.118c-.208-.207-.208-.70799.023-.82201,2.083-.241,3.863-.271,6.56-.271,2.824,0,4.871.414,6.208,1.185,1.544.914,2.52,2.48199,2.52,4.429,0,4.492-4.3,5.733-6.643,5.733-.269,0-.506,0-.747-.02901-.204-.17999-.242-.563-.086-.741,2.7-.53,3.677-2.481,3.677-4.90401,0-2.39101-1.54-4.487-4.239-4.487-1.483,0-1.517.088-1.517,1.24001v12.909c0,3.134.268,3.22301,1.665,3.37l1.099.118c.173.205.149.73599-.059.856-1.754-.061-3.093-.088-4.396-.088-1.307,0-2.646.02699-3.83.088-.235-.12-.268-.651-.057-.856l.473-.061c1.397-.179,1.663-.29401,1.663-3.42799l-.002-10.81499h0Z" fill="#094684"/>
          <path d="M65.412,237.33501c-.773,0-.744,0-1.011.798l-1.214,3.54601c-.595,1.743-.479,1.799.621,1.974l.86.15199c.209.203.18.735-.058.856-.949-.061-1.928-.061-3.146-.089-.982,0-1.897.026-2.94.089-.204-.14999-.238-.59599-.028-.856l.892-.15199c.858-.14301,1.185-.381,1.627-1.355.357-.767.83-2.008,1.458-3.605l4.066-10.521c.355-.942.655-1.649.563-2.155,1.036-.205,2.02-1.416,2.078-1.416.236,0,.386.089.503.235.479,1.332.862,2.72,1.338,4.049l4.276,12.382c.679,1.97701.829,2.157,2.344,2.44701l.444.093c.236.203.236.70599.029.856-1.215-.061-2.316-.089-3.857-.089-1.275,0-2.586.05701-3.622.089-.236-.14999-.268-.681-.091-.856l.655-.093c1.069-.147,1.216-.321.773-1.563l-1.396-4.01801c-.267-.798-.385-.798-1.218-.798l-3.94599-.00002h0ZM68.971,236.002c.832,0,.953-.054.712-.76401l-1.244-3.549c-.532-1.56799-.684-2.12801-.832-2.33299h-.058c-.12.20399-.389.942-.892,2.33299l-1.246,3.45799c-.295.854-.242.854.473.854h3.08701v.00101Z" fill="#094684"/>
          <path d="M81.377,229.502c0-2.83701-.027-3.19-1.42-3.33501l-.773-.091c-.208-.207-.208-.681.03-.82201,1.864-.18201,4.389-.271,6.822-.271,2.316,0,4.335.297,5.641,1.004,1.518.798,2.612,2.185,2.612,4.314,0,2.718-2.106,4.078-3.561,4.668-.177.089-.118.328,0,.505,2.375,3.98601,3.859,6.495,5.254,7.647.83.711,1.695.88901,2.048.92.15.118.15.44299.059.588-.353.091-.92.175-1.957.175-2.852,0-4.395-1.151-6.206-3.89799-.803-1.241-1.632-2.86501-2.346-4.01801-.53-.886-.861-1-1.838-1-.89,0-.918.02499-.918.647v3.78101c0,3.134.263,3.22301,1.658,3.396l.66.092c.201.205.173.73599-.062.856-1.308-.061-2.643-.088-3.946-.088-1.308,0-2.647.02699-4.011.088-.239-.12-.33-.651-.058-.856l.651-.092c1.399-.174,1.661-.263,1.661-3.396v-10.814ZM84.825,233.759c0,.944,0,1.005,1.423,1.005,2.904,0,4.247-1.418,4.247-4.22501,0-2.332-1.517-4.37199-4.103-4.37199-1.539,0-1.568.088-1.568,1.44701v6.14499h.001Z" fill="#094684"/>
          <path d="M104.264,227.556c0-1.244-.027-1.30099-.803-1.30099h-1.662c-2.73,0-3.532.325-4.629,2.717-.21.179-.83.08701-.951-.207.506-1.59599.951-3.427,1.163-4.46201.055-.09.17-.121.323-.121.118,0,.238.032.293.121.149.739.567.769,2.587.769h12.109c1.454,0,1.899-.09,2.257-.769.116-.05701.236-.121.356-.121.176,0,.325.064.382.147-.298,1.218-.531,3.755-.445,4.698-.149.239-.651.29601-.921.092-.381-2.306-.948-2.864-4.124-2.864h-1.687c-.779,0-.806.05701-.806,1.30099v12.761c0,3.134.266,3.22301,1.663,3.37l1.071.118c.203.205.179.73599-.061.856-1.723-.061-3.061-.088-4.365-.088-1.305,0-2.699.02699-4.6.088-.236-.12-.271-.709-.06-.856l1.247-.14999c1.398-.177,1.663-.20399,1.663-3.338v-12.76099h-.00003Z" fill="#094684"/>
          <path d="M142.022,243.806c.297.118.269.735-.06.855-1.27699-.061-2.43401-.088-3.62199-.088-1.39101,0-2.67101.02699-3.979.088-.235-.12-.354-.679-.05299-.855l.80099-.151c1.183-.20399,1.271-.412,1.271-2.418v-12.08501h-.058c-.8,1.62399-1.21201,2.511-1.78,3.692l-2.554,5.19701c-1.007,2.071-2.491,5.35201-3.03101,6.741-.11099.116-.561.116-.76401,0-.506-1.60001-1.783-4.492-2.469-5.974l-2.64-5.67101c-.567-1.23599-1.367-3.104-1.724-3.987h-.059c-.061,1.44501-.121,3.75301-.176,4.994-.062,1.804-.123,4.429-.123,6.851,0,1.953.033,2.397,1.31,2.632l.974.179c.211.177.211.735-.026.855-1.098-.061-2.019-.088-3.116-.088-.947,0-2.025.02699-3.182.088-.262-.149-.262-.709-.084-.855l.502-.062c1.426-.179,1.637-.623,1.841-2.422.214-1.862.3-3.78.445-6.856.12-2.009.298-4.46001.298-6.259,0-1.39301-.443-1.98199-1.604-2.19l-1.005-.17799c-.182-.20399-.153-.767.119-.856.888.06,1.69.09,2.791.09,1.039,0,2.074,0,3.171-.09.126,1.776.865,3.311,1.643,4.907l3.26399,6.82201c.233.506,1.008,1.98,1.39101,2.657.47701-.855.858-1.685,1.547-3.069l2.78999-5.67c.952-1.955,1.89799-3.69701,2.401-5.64799.80299.06,1.786.09,2.436.09,1.24699,0,2.285-.03,3.117-.09.32401.118.382.679.088.856l-.97701.147c-1.306.20799-1.605.679-1.605,2.245,0,4.377.05901,8.74899.26801,13.119.08701,1.98399.412,2.16,1.36501,2.30299l.858.15399Z" fill="#094684"/>
          <path d="M146.89,229.32401c0-3.129-.27299-3.248-1.666-3.422l-.47301-.063c-.20599-.203-.177-.73801.06-.856,1.12801.06,2.521.09,3.83099.09h5.666c1.899,0,3.62199-.03,4.00999-.09.12.502.295,2.836.47701,4.106-.12399.23399-.714.29601-.952.119-.47501-1.713-.92-2.424-1.871-2.688-.68201-.17999-1.578-.267-2.37801-.267h-1.98399c-1.27901,0-1.27901.058-1.27901,1.742v4.99699c0,.765.032.79601.71201.79601h1.42999c2.576,0,3.02499-.03101,3.29201-1.302l.207-1.004c.235-.20599.80099-.20599.951.02699-.02901.80299-.09,1.86301-.09,2.95599,0,1.123.061,2.158.09,3.104-.14999.207-.715.207-.951.03l-.207-1.181c-.207-1.243-.716-1.306-3.29201-1.306h-1.42999c-.67999,0-.71201.063-.71201.8v3.752c0,1.50999.062,2.571.504,3.073.36.414.862.616,3.356.65199,3.77.03,4.42-.798,5.463-3.19099.265-.20799.769-.119.94701.17599-.17799,1.246-.82899,3.485-1.24699,4.284-1.304-.06-3.85699-.088-7.325-.088h-3.386c-1.31,0-3.12.02699-4.453.088-.237-.12-.271-.651-.05901-.855l1.095-.119c1.39301-.147,1.666-.23599,1.666-3.37l-.00198-10.98999h0Z" fill="#094684"/>
          <path d="M180.431,239.548c0,.888,0,4.519.091,5.201-.24001.325-.65601.444-1.011.414-.478-.62199-1.33501-1.62399-3.472-4.05099l-6.94701-7.884c-1.903-2.188-2.879-3.28-3.38699-3.728-.086,0-.086.325-.086,1.89v5.771c0,2.207.02699,4.92999.53101,5.817.272.444.772.64799,1.517.73399l.653.092c.267.205.23199.769-.062.856-1.092-.061-2.254-.088-3.384-.088-1.248,0-2.048.02699-3.08099.088-.242-.149-.3-.651-.05901-.856l.647-.14999c.563-.11501,1.101-.20399,1.31-.675.384-.91901.384-3.487.384-5.817v-7.009c0-2.302.03-2.78-.979-3.633-.33-.26601-1.15601-.505-1.57201-.59399l-.44501-.089c-.21201-.17799-.17799-.767.116-.855,1.129.117,2.759.089,3.5.089.627,0,1.334-.03,2.048-.089.50999,1.271,3.742,4.995,4.782,6.116l2.965,3.189c1.246,1.35699,4.00999,4.493,4.306,4.67.088-.089.088-.237.088-.709v-5.76199c0-2.214-.028-4.93201-.56599-5.82201-.267-.442-.741-.649-1.48199-.73801l-.67799-.089c-.27299-.203-.24001-.767.05701-.855,1.15601.05901,2.25301.089,3.41.089,1.27901,0,2.05099-.03,3.116-.089.242.146.30099.64999.06.855l-.67799.147c-.565.121-1.07201.20799-1.278.679-.416.918-.416,3.489-.416,5.82201l.00198,7.063h0Z" fill="#094684"/>
          <path d="M192.211,227.556c0-1.244-.03101-1.30099-.802-1.30099h-1.658c-2.733,0-3.537.325-4.633,2.717-.20599.179-.83099.08701-.951-.207.509-1.59599.951-3.427,1.158-4.46201.063-.09.177-.121.328-.121.117,0,.23801.032.3.121.146.739.562.769,2.577.769h12.114c1.455,0,1.899-.09,2.257-.769.118-.05701.23399-.121.35201-.121.177,0,.32899.064.39.147-.29601,1.218-.537,3.755-.44701,4.698-.14799.239-.65401.29601-.91901.092-.38901-2.306-.953-2.864-4.125-2.864h-1.69501c-.77,0-.8.05701-.8,1.30099v12.761c0,3.134.271,3.22301,1.664,3.37l1.07201.118c.2.205.172.73599-.06599.856-1.72-.061-3.05701-.088-4.36501-.088-1.30499,0-2.698.02699-4.59599.088-.23801-.12-.271-.709-.05701-.856l1.242-.14999c1.394-.177,1.661-.20399,1.661-3.338v-12.76099h-.00099Z" fill="#094684"/>
        </g>
        <g>
          <path d="M268.33499,234.881c0,5.81599-4.44901,10.16299-10.448,10.16299-6.70801,0-10.569-4.69501-10.569-9.95599,0-6.028,4.39999-10.487,10.63-10.487,6.86002,0,10.38699,4.901,10.38699,10.28ZM251.35699,234.23c0,4.07899,1.752,9.632,6.832,9.632,3.38101,0,6.10999-2.513,6.10999-8.448,0-4.461-2.01501-9.633-6.73801-9.633-2.96797.002-6.20398,2.157-6.20398,8.44899Z" fill="#094684"/>
          <path d="M280.41599,225.07201c1.89801,0,3.56-.03,4.189-.09,0,.65199,0,2.869.05499,4.259-.116.23399-.651.29401-.94699.116-.297-1.71201-.771-2.573-1.901-2.87-.798-.203-1.543-.23199-2.492-.23199h-1.51599c-1.24399,0-1.24399.05701-1.24399,1.714v5.287c0,.741.02701.79401.70901.79401h1.75601c2.577,0,3.026-.05499,3.319-1.29601l.23801-1.004c.18301-.205.741-.205.89301.02699-.03.771-.091,1.866-.091,2.957,0,1.095.06,2.153.091,3.069-.15201.237-.70999.237-.89301.034l-.23801-1.15601c-.26401-1.23599-.742-1.298-3.319-1.298h-1.75601c-.681,0-.70901.062-.70901.79601v4.136c0,3.13499.26099,3.162,1.66101,3.33701l1.245.15199c.20901.203.177.735-.05499.856-1.89999-.061-3.23401-.089-4.54599-.089-1.30499,0-2.638.026-4.00299.089-.23801-.121-.26901-.651-.06299-.856l.65399-.093c1.39499-.173,1.66-.26199,1.66-3.396v-10.992c0-3.13-.26599-3.21899-1.66-3.423l-.38699-.063c-.20499-.203-.177-.73801.06201-.855,1.04001.05901,2.37399.089,3.67899.089l5.60895.00099h0Z" fill="#094684"/>
          <path d="M296.203,229.32401c0-3.129-.26401-3.248-1.65799-3.422l-.47601-.063c-.20599-.203-.17899-.73801.06-.856,1.129.06,2.522.09,3.827.09h5.67001c1.89899,0,3.621-.03,4.005-.09.12299.502.30099,2.836.48001,4.106-.12299.23399-.70999.29601-.95099.119-.47501-1.713-.918-2.424-1.87399-2.688-.67999-.17999-1.56699-.267-2.37201-.267h-1.98801c-1.27399,0-1.27399.058-1.27399,1.742v4.99699c0,.765.03101.79601.71301.79601h1.423c2.58401,0,3.02701-.03101,3.29501-1.302l.203-1.004c.23901-.20599.80399-.20599.957.02699-.034.80299-.091,1.86301-.091,2.95599,0,1.123.05701,2.158.091,3.104-.15302.207-.71701.207-.957.03l-.203-1.181c-.20901-1.243-.711-1.306-3.29501-1.306h-1.423c-.68201,0-.71301.063-.71301.8v3.752c0,1.50999.056,2.571.50601,3.073.354.414.854.616,3.35101.65199,3.772.03,4.42401-.798,5.46201-3.19099.26901-.20799.772-.119.95401.17599-.18201,1.246-.83401,3.485-1.24799,4.284-1.30701-.06-3.86099-.088-7.33401-.088h-3.38501c-1.30499,0-3.117.02699-4.45099.088-.23599-.12-.272-.651-.05701-.855l1.09698-.119c1.396-.147,1.659-.23599,1.659-3.37v-10.992h-.00305v.00201Z" fill="#094684"/>
          <path d="M313.422,229.502c0-2.83701-.02701-3.24699-1.423-3.369l-.62701-.05701c-.20499-.147-.20499-.67999.03-.821,2.14099-.18201,4.51199-.271,7.42001-.271,2.827,0,4.841.233,7.009,1.004,3.56201,1.3,6.08701,4.433,6.08701,8.832,0,3.283-1.63699,6.647-5.31601,8.517-2.10699,1.061-4.66,1.41499-7.35999,1.41499-1.811,0-3.20599-.17599-4.30399-.17599-1.133,0-2.46799.02699-3.771.08701-.23599-.119-.26901-.64999-.05899-.854l.651-.093c1.396-.174,1.66199-.263,1.66199-3.397l.00098-10.81699h0ZM316.86499,239.164c0,2.866.20801,4.401,3.358,4.401,5.28101,0,7.65298-3.72,7.65298-8.714,0-5.85001-3.41199-8.685-8.36801-8.685-1.246,0-2.19699.23599-2.40601.41299-.20401.179-.237.795-.237,2.186v10.399h.00003Z" fill="#094684"/>
          <path d="M336.51599,229.32401c0-3.129-.26901-3.19099-1.664-3.422l-.505-.092c-.20401-.205-.17499-.709.061-.827,1.186.06,2.521.09,3.82999.09,1.336,0,2.67099-.03,3.979-.09.23801.118.26599.62199.05801.827l-.65201.092c-1.397.174-1.66501.293-1.66501,3.422v6.769c0,4.077,1.24799,7.504,5.375,7.504,3.89099,0,5.48901-2.924,5.48901-7.416v-3.69099c0-2.214-.02499-4.968-.55899-5.823-.271-.44099-.745-.649-1.483-.763l-.599-.092c-.26901-.20599-.237-.737.05801-.828,1.01099.06,2.14001.091,3.298.091,1.24701,0,2.04901-.03101,3.146-.091.241.146.298.62199.061.828l-.65302.146c-.565.119-1.099.237-1.30701.70799-.41599.892-.41599,3.489-.41599,5.823v3.515c0,2.69-.41599,5.174-1.965,6.827-1.53699,1.655-3.76501,2.214-5.81699,2.214-2.78601,0-4.742-.586-6.11301-1.89-1.332-1.27-1.95499-3.338-1.95499-6.326l-.00204-7.50499h0Z" fill="#094684"/>
          <path d="M374.80399,230.034c-.21201.239-.741.267-.95099.063-.504-1.866-1.836-4.31599-5.758-4.31599-3.767,0-7.569,2.66-7.569,8.716,0,6.29601,3.948,9.36501,7.784,9.36501,3.73801,0,5.367-2.481,6.20099-4.40199.26501-.26601.73901-.14999.88501.119-.20599,1.978-1.005,3.933-1.41901,4.48601-.35599.062-.711.17999-1.04001.271-.65399.20399-2.70001.707-4.62701.707-2.94101,0-5.46799-.586-7.60199-1.979-2.40799-1.56599-4.22101-4.255-4.22101-8.12199,0-3.45799,1.543-6.146,3.74399-7.83,2.19501-1.65601,5.19101-2.513,8.19-2.513,1.69501,0,3.73901.299,5.138.653.35599.084.56299.11501.83099.173.05505.68097.12204,2.42697.41403,4.60896Z" fill="#094684"/>
          <path d="M382.017,237.33501c-.767,0-.742,0-1.00601.798l-1.21799,3.54601c-.59299,1.743-.47,1.799.62201,1.974l.85901.15199c.21201.203.181.735-.06.856-.94601-.061-1.92801-.061-3.14301-.089-.98001,0-1.89801.026-2.939.089-.20401-.14999-.23801-.59599-.03-.856l.89301-.15199c.85699-.14301,1.18301-.381,1.63101-1.355.35501-.767.832-2.008,1.453-3.605l4.07101-10.521c.35001-.942.65201-1.649.56201-2.155,1.04099-.205,2.01599-1.416,2.07501-1.416.23801,0,.39001.089.504.235.48001,1.332.86301,2.72,1.33701,4.049l4.27499,12.382c.68399,1.97701.82999,2.157,2.345,2.44701l.44501.093c.237.203.237.70599.02701.856-1.216-.061-2.314-.089-3.854-.089-1.27301,0-2.58301.05701-3.62399.089-.237-.14999-.26599-.681-.08899-.856l.65399-.093c1.064-.147,1.215-.321.77301-1.563l-1.39899-4.01801c-.26501-.798-.38501-.798-1.21399-.798l-3.95013-.00002h0ZM385.57999,236.002c.832,0,.94601-.054.70901-.76401l-1.24301-3.549c-.53299-1.56799-.685-2.12801-.83099-2.33299h-.06c-.11899.20399-.38599.942-.89001,2.33299l-1.25101,3.45799c-.293.854-.23499.854.474.854h3.09201v.00101Z" fill="#094684"/>
          <path d="M400.50699,227.556c0-1.244-.02802-1.30099-.797-1.30099h-1.66501c-2.729,0-3.53.325-4.63199,2.717-.20999.179-.82599.08701-.952-.207.51099-1.59599.952-3.427,1.16101-4.46201.06299-.09.17999-.121.327-.121.11899,0,.23901.032.297.121.151.739.56299.769,2.582.769h12.11301c1.45499,0,1.89801-.09,2.258-.769.116-.05701.23499-.121.354-.121.17599,0,.327.064.383.147-.29401,1.218-.53299,3.755-.444,4.698-.14801.239-.65201.29601-.92099.092-.38901-2.306-.948-2.864-4.12399-2.864h-1.69299c-.76999,0-.79999.05701-.79999,1.30099v12.761c0,3.134.26999,3.22301,1.66199,3.37l1.06699.118c.21201.205.17801.73599-.05701.856-1.72501-.061-3.056-.088-4.36801-.088-1.29999,0-2.69601.02699-4.59601.088-.23901-.12-.26801-.709-.05899-.856l1.24799-.14999c1.39499-.177,1.65601-.20399,1.65601-3.338v-12.76099h0Z" fill="#094684"/>
          <path d="M419.23901,240.31599c0,3.134.26599,3.22301,1.66199,3.396l.65399.092c.20401.205.17499.73599-.06201.856-1.30301-.061-2.64401-.088-3.948-.088-1.306,0-2.70099.02699-4.00601.088-.23999-.12-.26901-.651-.06299-.856l.65302-.092c1.39499-.174,1.664-.263,1.664-3.396v-10.993c0-3.129-.271-3.217-1.664-3.396l-.65302-.089c-.20499-.203-.17801-.73801.06299-.855,1.30499.05901,2.64099.089,4.00601.089,1.30499,0,2.646-.03,3.948-.089.23599.117.26599.64999.06201.855l-.65399.089c-1.397.17999-1.66199.26801-1.66199,3.396v10.993Z" fill="#094684"/>
          <path d="M445.03,234.881c0,5.81599-4.45001,10.16299-10.44699,10.16299-6.70499,0-10.56601-4.69501-10.56601-9.95599,0-6.028,4.396-10.487,10.629-10.487,6.85501,0,10.384,4.901,10.384,10.28ZM428.05399,234.23c0,4.07899,1.75201,9.632,6.82999,9.632,3.38101,0,6.11301-2.513,6.11301-8.448,0-4.461-2.021-9.633-6.741-9.633-2.96997.002-6.202,2.157-6.202,8.44899Z" fill="#094684"/>
          <path d="M466.13699,239.548c0,.888,0,4.519.091,5.201-.23999.325-.655.444-1.008.414-.478-.62199-1.33899-1.62399-3.479-4.05099l-6.94601-7.884c-1.89899-2.188-2.87701-3.28-3.38101-3.728-.08899,0-.08899.325-.08899,1.89v5.771c0,2.207.02701,4.92999.53699,5.817.26401.444.76801.64799,1.51001.73399l.65302.092c.26501.205.23901.769-.06299.856-1.09399-.061-2.25699-.088-3.379-.088-1.25101,0-2.04999.02699-3.08899.088-.237-.149-.29999-.651-.06201-.856l.65701-.14999c.56299-.11501,1.09698-.20399,1.30499-.675.383-.91901.383-3.487.383-5.817v-7.009c0-2.302.03299-2.78-.97299-3.633-.332-.26601-1.164-.505-1.58099-.59399l-.439-.089c-.211-.17799-.18301-.767.10999-.855,1.13501.117,2.76501.089,3.509.089.61801,0,1.33099-.03,2.04401-.089.50601,1.271,3.74399,4.995,4.78,6.116l2.97299,3.189c1.23901,1.35699,4.008,4.493,4.30301,4.67.08701-.089.08701-.237.08701-.709v-5.76199c0-2.214-.02499-4.93201-.56299-5.82201-.26599-.442-.741-.649-1.48199-.73801l-.68399-.089c-.26999-.203-.23801-.767.056-.855,1.15799.05901,2.25699.089,3.41501.089,1.27499,0,2.04999-.03,3.117-.089.23801.146.29999.64999.06299.855l-.67599.147c-.57401.121-1.07599.20799-1.28101.679-.41901.918-.41901,3.489-.41901,5.82201v7.062h.00095v.00101Z" fill="#094684"/>
        </g>
      </g>
    </g>
  </g>
</svg>